solid OpenSCAD_Model
  facet normal -1 0 0
    outer loop
      vertex -20.25 -20.25 4.4964e-15
      vertex -20.25 -10 8
      vertex -20.25 -10 2.22045e-15
    endloop
  endfacet
  facet normal -1 -0 0
    outer loop
      vertex -20.25 -10 8
      vertex -20.25 -20.25 4.4964e-15
      vertex -20.25 -20.25 8
    endloop
  endfacet
  facet normal -1 0 0
    outer loop
      vertex -20.25 10.25 -2.27596e-15
      vertex -20.25 20.25 8
      vertex -20.25 20.25 -4.4964e-15
    endloop
  endfacet
  facet normal -1 -0 0
    outer loop
      vertex -20.25 20.25 8
      vertex -20.25 10.25 -2.27596e-15
      vertex -20.25 10.25 8
    endloop
  endfacet
  facet normal 0 -1 0
    outer loop
      vertex -20.25 -20.25 4.4964e-15
      vertex -10.15 -20.25 8
      vertex -20.25 -20.25 8
    endloop
  endfacet
  facet normal 0 -1 -0
    outer loop
      vertex -10.15 -20.25 8
      vertex -20.25 -20.25 4.4964e-15
      vertex -10.15 -20.25 4.4964e-15
    endloop
  endfacet
  facet normal 0 -1 0
    outer loop
      vertex 11.25 -20.25 4.4964e-15
      vertex 20.25 -20.25 8
      vertex 11.25 -20.25 8
    endloop
  endfacet
  facet normal 0 -1 -0
    outer loop
      vertex 20.25 -20.25 8
      vertex 11.25 -20.25 4.4964e-15
      vertex 20.25 -20.25 4.4964e-15
    endloop
  endfacet
  facet normal 1 -0 0
    outer loop
      vertex 20.25 -20.25 8
      vertex 20.25 -10 2.22045e-15
      vertex 20.25 -10 8
    endloop
  endfacet
  facet normal 1 0 0
    outer loop
      vertex 20.25 -10 2.22045e-15
      vertex 20.25 -20.25 8
      vertex 20.25 -20.25 4.4964e-15
    endloop
  endfacet
  facet normal 1 -0 0
    outer loop
      vertex 20.25 10.25 8
      vertex 20.25 20.25 -4.4964e-15
      vertex 20.25 20.25 8
    endloop
  endfacet
  facet normal 1 0 0
    outer loop
      vertex 20.25 20.25 -4.4964e-15
      vertex 20.25 10.25 8
      vertex 20.25 10.25 -2.27596e-15
    endloop
  endfacet
  facet normal 0 1 -0
    outer loop
      vertex 20.25 20.25 -4.4964e-15
      vertex -20.25 20.25 8
      vertex 20.25 20.25 8
    endloop
  endfacet
  facet normal 0 1 0
    outer loop
      vertex -20.25 20.25 8
      vertex 20.25 20.25 -4.4964e-15
      vertex -20.25 20.25 -4.4964e-15
    endloop
  endfacet
  facet normal 0 -2.22045e-16 -1
    outer loop
      vertex -29.05 7.4 -1.64313e-15
      vertex -20.25 10.25 -2.27596e-15
      vertex -14.25 7.4 -1.64313e-15
    endloop
  endfacet
  facet normal 0 -2.22045e-16 -1
    outer loop
      vertex -29.05 7.4 -1.64313e-15
      vertex -32.25 10.25 -2.27596e-15
      vertex -20.25 10.25 -2.27596e-15
    endloop
  endfacet
  facet normal 0 -2.22045e-16 -1
    outer loop
      vertex -32.25 10.25 -2.27596e-15
      vertex -29.05 7.4 -1.64313e-15
      vertex -32.25 -10 2.22045e-15
    endloop
  endfacet
  facet normal 0 -2.22045e-16 -1
    outer loop
      vertex -14.25 -7.4 1.64313e-15
      vertex -10.15 -0.47572 1.05631e-16
      vertex -10.15 -20.25 4.4964e-15
    endloop
  endfacet
  facet normal 0 -2.22045e-16 -1
    outer loop
      vertex -10.15 -0.47572 1.05631e-16
      vertex -14.25 -7.4 1.64313e-15
      vertex -10.2 -9.53674e-07 2.11758e-22
    endloop
  endfacet
  facet normal 0 -2.22045e-16 -1
    outer loop
      vertex -20.25 -10 2.22045e-15
      vertex -10.15 -20.25 4.4964e-15
      vertex -20.25 -20.25 4.4964e-15
    endloop
  endfacet
  facet normal 0 -2.22045e-16 -1
    outer loop
      vertex -10.15 -20.25 4.4964e-15
      vertex -20.25 -10 2.22045e-15
      vertex -14.25 -7.4 1.64313e-15
    endloop
  endfacet
  facet normal 0 -2.22045e-16 -1
    outer loop
      vertex -20.25 -10 2.22045e-15
      vertex -29.05 -7.4 1.64313e-15
      vertex -14.25 -7.4 1.64313e-15
    endloop
  endfacet
  facet normal 0 -2.22045e-16 -1
    outer loop
      vertex -29.05 -7.4 1.64313e-15
      vertex -32.25 -10 2.22045e-15
      vertex -29.05 7.4 -1.64313e-15
    endloop
  endfacet
  facet normal 0 -2.22045e-16 -1
    outer loop
      vertex -32.25 -10 2.22045e-15
      vertex -29.05 -7.4 1.64313e-15
      vertex -20.25 -10 2.22045e-15
    endloop
  endfacet
  facet normal 0 -2.22045e-16 -1
    outer loop
      vertex 11.25 -20.25 4.4964e-15
      vertex 20.25 -10 2.22045e-15
      vertex 20.25 -20.25 4.4964e-15
    endloop
  endfacet
  facet normal 0 -2.22045e-16 -1
    outer loop
      vertex 11.25 2.46519e-31 -0
      vertex 14.25 -7.4 1.64313e-15
      vertex 11.25 -20.25 4.4964e-15
    endloop
  endfacet
  facet normal 0 -2.22045e-16 -1
    outer loop
      vertex 20.25 -10 2.22045e-15
      vertex 11.25 -20.25 4.4964e-15
      vertex 14.25 -7.4 1.64313e-15
    endloop
  endfacet
  facet normal 0 -2.22045e-16 -1
    outer loop
      vertex 29.05 7.4 -1.64313e-15
      vertex 32.25 -10 2.22045e-15
      vertex 29.05 -7.4 1.64313e-15
    endloop
  endfacet
  facet normal 0 -2.22045e-16 -1
    outer loop
      vertex 20.25 -10 2.22045e-15
      vertex 29.05 -7.4 1.64313e-15
      vertex 32.25 -10 2.22045e-15
    endloop
  endfacet
  facet normal -0 -2.22045e-16 -1
    outer loop
      vertex 29.05 -7.4 1.64313e-15
      vertex 20.25 -10 2.22045e-15
      vertex 14.25 -7.4 1.64313e-15
    endloop
  endfacet
  facet normal 0 -2.22045e-16 -1
    outer loop
      vertex 32.25 -10 2.22045e-15
      vertex 29.05 7.4 -1.64313e-15
      vertex 32.25 10.25 -2.27596e-15
    endloop
  endfacet
  facet normal 0 -2.22045e-16 -1
    outer loop
      vertex 29.05 7.4 -1.64313e-15
      vertex 20.25 10.25 -2.27596e-15
      vertex 32.25 10.25 -2.27596e-15
    endloop
  endfacet
  facet normal 0 -2.22045e-16 -1
    outer loop
      vertex 14.25 7.4 -1.64313e-15
      vertex 20.25 10.25 -2.27596e-15
      vertex 29.05 7.4 -1.64313e-15
    endloop
  endfacet
  facet normal 0 -2.22045e-16 -1
    outer loop
      vertex 14.25 7.4 -1.64313e-15
      vertex 20.25 20.25 -4.4964e-15
      vertex 20.25 10.25 -2.27596e-15
    endloop
  endfacet
  facet normal 0 -2.22045e-16 -1
    outer loop
      vertex 14.25 -7.4 1.64313e-15
      vertex 11.25 2.46519e-31 -0
      vertex 14.25 7.4 -1.64313e-15
    endloop
  endfacet
  facet normal 0 -2.22045e-16 -1
    outer loop
      vertex 10.9662 2.22465 -4.93972e-16
      vertex 11.25 2.46519e-31 -0
      vertex 11.2 2.46519e-31 -0
    endloop
  endfacet
  facet normal 0 -2.22045e-16 -1
    outer loop
      vertex 11.25 2.46519e-31 -0
      vertex 10.9662 2.22465 -4.93972e-16
      vertex 14.25 7.4 -1.64313e-15
    endloop
  endfacet
  facet normal 0 -2.22045e-16 -1
    outer loop
      vertex 10.2749 4.35208 -9.66356e-16
      vertex 14.25 7.4 -1.64313e-15
      vertex 10.9662 2.22465 -4.93972e-16
    endloop
  endfacet
  facet normal 0 -2.22045e-16 -1
    outer loop
      vertex 9.15648 6.2893 -1.39651e-15
      vertex 14.25 7.4 -1.64313e-15
      vertex 10.2749 4.35208 -9.66356e-16
    endloop
  endfacet
  facet normal 0 -2.22045e-16 -1
    outer loop
      vertex 7.6597 7.95165 -1.76562e-15
      vertex 14.25 7.4 -1.64313e-15
      vertex 9.15648 6.2893 -1.39651e-15
    endloop
  endfacet
  facet normal 0 -2.22045e-16 -1
    outer loop
      vertex 5.85 9.26647 -2.05757e-15
      vertex 14.25 7.4 -1.64313e-15
      vertex 7.6597 7.95165 -1.76562e-15
    endloop
  endfacet
  facet normal 0 -2.22045e-16 -1
    outer loop
      vertex 14.25 7.4 -1.64313e-15
      vertex 5.85 9.26647 -2.05757e-15
      vertex 20.25 20.25 -4.4964e-15
    endloop
  endfacet
  facet normal 0 -2.22045e-16 -1
    outer loop
      vertex 3.80648 10.1763 -2.25959e-15
      vertex 20.25 20.25 -4.4964e-15
      vertex 5.85 9.26647 -2.05757e-15
    endloop
  endfacet
  facet normal 0 -2.22045e-16 -1
    outer loop
      vertex 1.61845 10.6414 -2.36286e-15
      vertex 20.25 20.25 -4.4964e-15
      vertex 3.80648 10.1763 -2.25959e-15
    endloop
  endfacet
  facet normal 0 -2.22045e-16 -1
    outer loop
      vertex -0.618455 10.6414 -2.36286e-15
      vertex 20.25 20.25 -4.4964e-15
      vertex 1.61845 10.6414 -2.36286e-15
    endloop
  endfacet
  facet normal 0 -2.22045e-16 -1
    outer loop
      vertex -20.25 20.25 -4.4964e-15
      vertex -0.618455 10.6414 -2.36286e-15
      vertex -2.80648 10.1763 -2.25959e-15
    endloop
  endfacet
  facet normal 0 -2.22045e-16 -1
    outer loop
      vertex -14.25 7.4 -1.64313e-15
      vertex -10.2 -9.53674e-07 2.11758e-22
      vertex -14.25 -7.4 1.64313e-15
    endloop
  endfacet
  facet normal 0 -2.22045e-16 -1
    outer loop
      vertex -10.2 -9.53674e-07 2.11758e-22
      vertex -14.25 7.4 -1.64313e-15
      vertex -9.96618 2.22465 -4.93972e-16
    endloop
  endfacet
  facet normal 0 -2.22045e-16 -1
    outer loop
      vertex -9.96618 2.22465 -4.93972e-16
      vertex -14.25 7.4 -1.64313e-15
      vertex -9.27494 4.35208 -9.66356e-16
    endloop
  endfacet
  facet normal 0 -2.22045e-16 -1
    outer loop
      vertex -14.25 7.4 -1.64313e-15
      vertex -8.15648 6.2893 -1.39651e-15
      vertex -9.27494 4.35208 -9.66356e-16
    endloop
  endfacet
  facet normal 0 -2.22045e-16 -1
    outer loop
      vertex -14.25 7.4 -1.64313e-15
      vertex -6.6597 7.95165 -1.76562e-15
      vertex -8.15648 6.2893 -1.39651e-15
    endloop
  endfacet
  facet normal 0 -2.22045e-16 -1
    outer loop
      vertex -14.25 7.4 -1.64313e-15
      vertex -4.85 9.26647 -2.05757e-15
      vertex -6.6597 7.95165 -1.76562e-15
    endloop
  endfacet
  facet normal 0 -2.22045e-16 -1
    outer loop
      vertex -20.25 20.25 -4.4964e-15
      vertex -4.85 9.26647 -2.05757e-15
      vertex -14.25 7.4 -1.64313e-15
    endloop
  endfacet
  facet normal 0 -2.22045e-16 -1
    outer loop
      vertex -4.85 9.26647 -2.05757e-15
      vertex -20.25 20.25 -4.4964e-15
      vertex -2.80648 10.1763 -2.25959e-15
    endloop
  endfacet
  facet normal 0 -2.22045e-16 -1
    outer loop
      vertex -20.25 20.25 -4.4964e-15
      vertex -14.25 7.4 -1.64313e-15
      vertex -20.25 10.25 -2.27596e-15
    endloop
  endfacet
  facet normal 0 -2.22045e-16 -1
    outer loop
      vertex -0.618455 10.6414 -2.36286e-15
      vertex -20.25 20.25 -4.4964e-15
      vertex 20.25 20.25 -4.4964e-15
    endloop
  endfacet
  facet normal -0 0 1
    outer loop
      vertex -29.05 -7.4 8
      vertex -20.25 -10 8
      vertex -14.25 -7.4 8
    endloop
  endfacet
  facet normal 0 0 1
    outer loop
      vertex -29.05 -7.4 8
      vertex -32.25 -10 8
      vertex -20.25 -10 8
    endloop
  endfacet
  facet normal 0 0 1
    outer loop
      vertex -29.05 7.4 8
      vertex -32.25 -10 8
      vertex -29.05 -7.4 8
    endloop
  endfacet
  facet normal 0 0 1
    outer loop
      vertex 20.25 20.25 8
      vertex 14.25 7.4 8
      vertex 20.25 10.25 8
    endloop
  endfacet
  facet normal 0 0 1
    outer loop
      vertex 14.25 7.4 8
      vertex 11.25 3.55271e-15 8
      vertex 14.25 -7.4 8
    endloop
  endfacet
  facet normal -0 0 1
    outer loop
      vertex 10.9662 2.22465 8
      vertex 11.25 3.55271e-15 8
      vertex 14.25 7.4 8
    endloop
  endfacet
  facet normal 0 0 1
    outer loop
      vertex 11.25 3.55271e-15 8
      vertex 10.9662 2.22465 8
      vertex 11.2 3.55271e-15 8
    endloop
  endfacet
  facet normal -0 0 1
    outer loop
      vertex 5.85 9.26647 8
      vertex 14.25 7.4 8
      vertex 20.25 20.25 8
    endloop
  endfacet
  facet normal 0 0 1
    outer loop
      vertex 14.25 7.4 8
      vertex 10.2749 4.35208 8
      vertex 10.9662 2.22465 8
    endloop
  endfacet
  facet normal 0 0 1
    outer loop
      vertex 14.25 7.4 8
      vertex 9.15648 6.2893 8
      vertex 10.2749 4.35208 8
    endloop
  endfacet
  facet normal 0 0 1
    outer loop
      vertex 14.25 7.4 8
      vertex 7.6597 7.95165 8
      vertex 9.15648 6.2893 8
    endloop
  endfacet
  facet normal 0 0 1
    outer loop
      vertex 14.25 7.4 8
      vertex 5.85 9.26647 8
      vertex 7.6597 7.95165 8
    endloop
  endfacet
  facet normal 0 0 1
    outer loop
      vertex 20.25 20.25 8
      vertex 3.80648 10.1763 8
      vertex 5.85 9.26647 8
    endloop
  endfacet
  facet normal 0 0 1
    outer loop
      vertex 20.25 20.25 8
      vertex 1.61845 10.6414 8
      vertex 3.80648 10.1763 8
    endloop
  endfacet
  facet normal 0 0 1
    outer loop
      vertex 20.25 20.25 8
      vertex -0.618455 10.6414 8
      vertex 1.61845 10.6414 8
    endloop
  endfacet
  facet normal -0 0 1
    outer loop
      vertex -20.25 20.25 8
      vertex -0.618455 10.6414 8
      vertex 20.25 20.25 8
    endloop
  endfacet
  facet normal 0 0 1
    outer loop
      vertex -9.96618 2.22465 8
      vertex -14.25 7.4 8
      vertex -10.2 -9.53674e-07 8
    endloop
  endfacet
  facet normal 0 0 1
    outer loop
      vertex -9.27494 4.35208 8
      vertex -14.25 7.4 8
      vertex -9.96618 2.22465 8
    endloop
  endfacet
  facet normal 0 0 1
    outer loop
      vertex -8.15648 6.2893 8
      vertex -14.25 7.4 8
      vertex -9.27494 4.35208 8
    endloop
  endfacet
  facet normal 0 0 1
    outer loop
      vertex -6.6597 7.95165 8
      vertex -14.25 7.4 8
      vertex -8.15648 6.2893 8
    endloop
  endfacet
  facet normal 0 0 1
    outer loop
      vertex -4.85 9.26647 8
      vertex -14.25 7.4 8
      vertex -6.6597 7.95165 8
    endloop
  endfacet
  facet normal 0 0 1
    outer loop
      vertex -20.25 20.25 8
      vertex -4.85 9.26647 8
      vertex -2.80648 10.1763 8
    endloop
  endfacet
  facet normal 0 0 1
    outer loop
      vertex -0.618455 10.6414 8
      vertex -20.25 20.25 8
      vertex -2.80648 10.1763 8
    endloop
  endfacet
  facet normal 0 0 1
    outer loop
      vertex -4.85 9.26647 8
      vertex -20.25 20.25 8
      vertex -14.25 7.4 8
    endloop
  endfacet
  facet normal -0 0 1
    outer loop
      vertex -20.25 10.25 8
      vertex -14.25 7.4 8
      vertex -20.25 20.25 8
    endloop
  endfacet
  facet normal 0 0 1
    outer loop
      vertex -20.25 10.25 8
      vertex -29.05 7.4 8
      vertex -14.25 7.4 8
    endloop
  endfacet
  facet normal 0 0 1
    outer loop
      vertex -32.25 -10 8
      vertex -29.05 7.4 8
      vertex -32.25 10.25 8
    endloop
  endfacet
  facet normal -0 0 1
    outer loop
      vertex -32.25 10.25 8
      vertex -29.05 7.4 8
      vertex -20.25 10.25 8
    endloop
  endfacet
  facet normal 0 0 1
    outer loop
      vertex 32.25 10.25 8
      vertex 29.05 7.4 8
      vertex 32.25 -10 8
    endloop
  endfacet
  facet normal -0 0 1
    outer loop
      vertex 20.25 10.25 8
      vertex 29.05 7.4 8
      vertex 32.25 10.25 8
    endloop
  endfacet
  facet normal 0 0 1
    outer loop
      vertex 29.05 7.4 8
      vertex 20.25 10.25 8
      vertex 14.25 7.4 8
    endloop
  endfacet
  facet normal -0 0 1
    outer loop
      vertex 29.05 -7.4 8
      vertex 32.25 -10 8
      vertex 29.05 7.4 8
    endloop
  endfacet
  facet normal 0 0 1
    outer loop
      vertex 29.05 -7.4 8
      vertex 20.25 -10 8
      vertex 32.25 -10 8
    endloop
  endfacet
  facet normal -0 0 1
    outer loop
      vertex 14.25 -7.4 8
      vertex 20.25 -10 8
      vertex 29.05 -7.4 8
    endloop
  endfacet
  facet normal 0 0 1
    outer loop
      vertex 11.25 -20.25 8
      vertex 20.25 -10 8
      vertex 14.25 -7.4 8
    endloop
  endfacet
  facet normal 0 0 1
    outer loop
      vertex 20.25 -10 8
      vertex 11.25 -20.25 8
      vertex 20.25 -20.25 8
    endloop
  endfacet
  facet normal 0 0 1
    outer loop
      vertex 11.25 -20.25 8
      vertex 14.25 -7.4 8
      vertex 11.25 3.55271e-15 8
    endloop
  endfacet
  facet normal 0 0 1
    outer loop
      vertex -14.25 -7.4 8
      vertex -10.15 -0.47572 8
      vertex -10.2 -9.53674e-07 8
    endloop
  endfacet
  facet normal 0 0 1
    outer loop
      vertex -14.25 -7.4 8
      vertex -10.2 -9.53674e-07 8
      vertex -14.25 7.4 8
    endloop
  endfacet
  facet normal 0 0 1
    outer loop
      vertex -10.15 -0.47572 8
      vertex -14.25 -7.4 8
      vertex -10.15 -20.25 8
    endloop
  endfacet
  facet normal -0 0 1
    outer loop
      vertex -20.25 -10 8
      vertex -10.15 -20.25 8
      vertex -14.25 -7.4 8
    endloop
  endfacet
  facet normal 0 0 1
    outer loop
      vertex -10.15 -20.25 8
      vertex -20.25 -10 8
      vertex -20.25 -20.25 8
    endloop
  endfacet
  facet normal -1 0 0
    outer loop
      vertex -32.25 10.25 -2.27596e-15
      vertex -32.25 1.49178 3.84321
      vertex -32.25 10.25 8
    endloop
  endfacet
  facet normal -1 0 0
    outer loop
      vertex -32.25 10.25 -2.27596e-15
      vertex -32.25 1.42658 3.53647
      vertex -32.25 1.49178 3.84321
    endloop
  endfacet
  facet normal -1 0 0
    outer loop
      vertex -32.25 10.25 -2.27596e-15
      vertex -32.25 1.29904 3.25
      vertex -32.25 1.42658 3.53647
    endloop
  endfacet
  facet normal -1 0 0
    outer loop
      vertex -32.25 10.25 -2.27596e-15
      vertex -32.25 1.11472 2.9963
      vertex -32.25 1.29904 3.25
    endloop
  endfacet
  facet normal -1 0 0
    outer loop
      vertex -32.25 10.25 -2.27596e-15
      vertex -32.25 0.881678 2.78647
      vertex -32.25 1.11472 2.9963
    endloop
  endfacet
  facet normal -1 0 0
    outer loop
      vertex -32.25 10.25 -2.27596e-15
      vertex -32.25 0.610105 2.62968
      vertex -32.25 0.881678 2.78647
    endloop
  endfacet
  facet normal -1 0 0
    outer loop
      vertex -32.25 10.25 -2.27596e-15
      vertex -32.25 0.311867 2.53278
      vertex -32.25 0.610105 2.62968
    endloop
  endfacet
  facet normal -1 0 0
    outer loop
      vertex -32.25 10.25 -2.27596e-15
      vertex -32.25 0.0924043 2.50971
      vertex -32.25 0.311867 2.53278
    endloop
  endfacet
  facet normal -1 0 0
    outer loop
      vertex -32.25 10.25 -2.27596e-15
      vertex -32.25 -9.53674e-07 2.5
      vertex -32.25 0.0924043 2.50971
    endloop
  endfacet
  facet normal -1 0 0
    outer loop
      vertex -32.25 -10 2.22045e-15
      vertex -32.25 -9.53674e-07 2.5
      vertex -32.25 10.25 -2.27596e-15
    endloop
  endfacet
  facet normal -1 -0 0
    outer loop
      vertex -32.25 -9.53674e-07 2.5
      vertex -32.25 -10 2.22045e-15
      vertex -32.25 -0.0924059 2.50971
    endloop
  endfacet
  facet normal -1 -0 0
    outer loop
      vertex -32.25 -1.49178 3.84321
      vertex -32.25 -10 2.22045e-15
      vertex -32.25 -1.49178 4.15679
    endloop
  endfacet
  facet normal -1 -0 0
    outer loop
      vertex -32.25 -1.42659 3.53647
      vertex -32.25 -10 2.22045e-15
      vertex -32.25 -1.49178 3.84321
    endloop
  endfacet
  facet normal -1 -0 0
    outer loop
      vertex -32.25 -1.33683 3.33488
      vertex -32.25 -10 2.22045e-15
      vertex -32.25 -1.42659 3.53647
    endloop
  endfacet
  facet normal -1 -0 0
    outer loop
      vertex -32.25 -1.29904 3.25
      vertex -32.25 -10 2.22045e-15
      vertex -32.25 -1.33683 3.33488
    endloop
  endfacet
  facet normal -1 -0 0
    outer loop
      vertex -32.25 -1.24443 3.17483
      vertex -32.25 -10 2.22045e-15
      vertex -32.25 -1.29904 3.25
    endloop
  endfacet
  facet normal -1 -0 0
    outer loop
      vertex -32.25 -1.11472 2.9963
      vertex -32.25 -10 2.22045e-15
      vertex -32.25 -1.24443 3.17483
    endloop
  endfacet
  facet normal -1 -0 0
    outer loop
      vertex -32.25 -0.881679 2.78647
      vertex -32.25 -10 2.22045e-15
      vertex -32.25 -1.11472 2.9963
    endloop
  endfacet
  facet normal -1 -0 0
    outer loop
      vertex -32.25 -0.610106 2.62968
      vertex -32.25 -10 2.22045e-15
      vertex -32.25 -0.881679 2.78647
    endloop
  endfacet
  facet normal -1 -0 0
    outer loop
      vertex -32.25 -0.311868 2.53278
      vertex -32.25 -10 2.22045e-15
      vertex -32.25 -0.610106 2.62968
    endloop
  endfacet
  facet normal -1 -0 0
    outer loop
      vertex -32.25 -0.0924059 2.50971
      vertex -32.25 -10 2.22045e-15
      vertex -32.25 -0.311868 2.53278
    endloop
  endfacet
  facet normal -1 0 0
    outer loop
      vertex -32.25 1.49178 4.15679
      vertex -32.25 10.25 8
      vertex -32.25 1.49178 3.84321
    endloop
  endfacet
  facet normal -1 0 0
    outer loop
      vertex -32.25 1.42658 4.46352
      vertex -32.25 10.25 8
      vertex -32.25 1.49178 4.15679
    endloop
  endfacet
  facet normal -1 0 0
    outer loop
      vertex -32.25 1.38879 4.54841
      vertex -32.25 10.25 8
      vertex -32.25 1.42658 4.46352
    endloop
  endfacet
  facet normal -1 0 0
    outer loop
      vertex -32.25 1.29904 4.75
      vertex -32.25 10.25 8
      vertex -32.25 1.38879 4.54841
    endloop
  endfacet
  facet normal -1 0 0
    outer loop
      vertex -32.25 1.16933 4.92853
      vertex -32.25 10.25 8
      vertex -32.25 1.29904 4.75
    endloop
  endfacet
  facet normal -1 0 0
    outer loop
      vertex -32.25 1.11472 5.0037
      vertex -32.25 10.25 8
      vertex -32.25 1.16933 4.92853
    endloop
  endfacet
  facet normal -1 0 0
    outer loop
      vertex -32.25 0.881678 5.21352
      vertex -32.25 10.25 8
      vertex -32.25 1.11472 5.0037
    endloop
  endfacet
  facet normal -1 0 0
    outer loop
      vertex -32.25 0.610105 5.37032
      vertex -32.25 10.25 8
      vertex -32.25 0.881678 5.21352
    endloop
  endfacet
  facet normal -1 0 0
    outer loop
      vertex -32.25 0.311867 5.46722
      vertex -32.25 10.25 8
      vertex -32.25 0.610105 5.37032
    endloop
  endfacet
  facet normal -1 0 0
    outer loop
      vertex -32.25 0.219462 5.47693
      vertex -32.25 10.25 8
      vertex -32.25 0.311867 5.46722
    endloop
  endfacet
  facet normal -1 0 0
    outer loop
      vertex -32.25 2.44249e-15 5.5
      vertex -32.25 10.25 8
      vertex -32.25 0.219462 5.47693
    endloop
  endfacet
  facet normal -1 0 0
    outer loop
      vertex -32.25 -10 8
      vertex -32.25 2.44249e-15 5.5
      vertex -32.25 -0.219462 5.47693
    endloop
  endfacet
  facet normal -1 0 0
    outer loop
      vertex -32.25 -10 8
      vertex -32.25 -0.219462 5.47693
      vertex -32.25 -0.311868 5.46722
    endloop
  endfacet
  facet normal -1 0 0
    outer loop
      vertex -32.25 -10 8
      vertex -32.25 -1.38879 4.54841
      vertex -32.25 -1.42659 4.46352
    endloop
  endfacet
  facet normal -1 0 0
    outer loop
      vertex -32.25 -10 8
      vertex -32.25 -1.49178 4.15679
      vertex -32.25 -10 2.22045e-15
    endloop
  endfacet
  facet normal -1 0 0
    outer loop
      vertex -32.25 -1.49178 4.15679
      vertex -32.25 -10 8
      vertex -32.25 -1.42659 4.46352
    endloop
  endfacet
  facet normal -1 0 0
    outer loop
      vertex -32.25 -1.38879 4.54841
      vertex -32.25 -10 8
      vertex -32.25 -1.29904 4.75
    endloop
  endfacet
  facet normal -1 0 0
    outer loop
      vertex -32.25 -1.29904 4.75
      vertex -32.25 -10 8
      vertex -32.25 -1.16933 4.92853
    endloop
  endfacet
  facet normal -1 0 0
    outer loop
      vertex -32.25 -1.16933 4.92853
      vertex -32.25 -10 8
      vertex -32.25 -1.11472 5.0037
    endloop
  endfacet
  facet normal -1 0 0
    outer loop
      vertex -32.25 -1.11472 5.0037
      vertex -32.25 -10 8
      vertex -32.25 -0.881679 5.21352
    endloop
  endfacet
  facet normal -1 0 0
    outer loop
      vertex -32.25 2.44249e-15 5.5
      vertex -32.25 -10 8
      vertex -32.25 10.25 8
    endloop
  endfacet
  facet normal -1 0 0
    outer loop
      vertex -32.25 -0.610106 5.37032
      vertex -32.25 -10 8
      vertex -32.25 -0.311868 5.46722
    endloop
  endfacet
  facet normal -1 0 0
    outer loop
      vertex -32.25 -0.881679 5.21352
      vertex -32.25 -10 8
      vertex -32.25 -0.610106 5.37032
    endloop
  endfacet
  facet normal 0 -1 0
    outer loop
      vertex -32.25 -10 2.22045e-15
      vertex -20.25 -10 8
      vertex -32.25 -10 8
    endloop
  endfacet
  facet normal 0 -1 -0
    outer loop
      vertex -20.25 -10 8
      vertex -32.25 -10 2.22045e-15
      vertex -20.25 -10 2.22045e-15
    endloop
  endfacet
  facet normal 0 -1 0
    outer loop
      vertex 20.25 -10 2.22045e-15
      vertex 32.25 -10 8
      vertex 20.25 -10 8
    endloop
  endfacet
  facet normal 0 -1 -0
    outer loop
      vertex 32.25 -10 8
      vertex 20.25 -10 2.22045e-15
      vertex 32.25 -10 2.22045e-15
    endloop
  endfacet
  facet normal 1 0 0
    outer loop
      vertex 32.25 10.25 8
      vertex 32.25 1.49178 4.15679
      vertex 32.25 10.25 -2.27596e-15
    endloop
  endfacet
  facet normal 1 0 0
    outer loop
      vertex 32.25 10.25 8
      vertex 32.25 1.42658 4.46352
      vertex 32.25 1.49178 4.15679
    endloop
  endfacet
  facet normal 1 0 0
    outer loop
      vertex 32.25 10.25 8
      vertex 32.25 1.33683 4.66512
      vertex 32.25 1.42658 4.46352
    endloop
  endfacet
  facet normal 1 0 0
    outer loop
      vertex 32.25 10.25 8
      vertex 32.25 1.29904 4.75
      vertex 32.25 1.33683 4.66512
    endloop
  endfacet
  facet normal 1 0 0
    outer loop
      vertex 32.25 10.25 8
      vertex 32.25 1.24442 4.82517
      vertex 32.25 1.29904 4.75
    endloop
  endfacet
  facet normal 1 0 0
    outer loop
      vertex 32.25 10.25 8
      vertex 32.25 1.11472 5.0037
      vertex 32.25 1.24442 4.82517
    endloop
  endfacet
  facet normal 1 0 0
    outer loop
      vertex 32.25 10.25 8
      vertex 32.25 0.881678 5.21352
      vertex 32.25 1.11472 5.0037
    endloop
  endfacet
  facet normal 1 0 0
    outer loop
      vertex 32.25 10.25 8
      vertex 32.25 0.610105 5.37032
      vertex 32.25 0.881678 5.21352
    endloop
  endfacet
  facet normal 1 0 0
    outer loop
      vertex 32.25 10.25 8
      vertex 32.25 0.311867 5.46722
      vertex 32.25 0.610105 5.37032
    endloop
  endfacet
  facet normal 1 0 0
    outer loop
      vertex 32.25 10.25 8
      vertex 32.25 0.092405 5.49029
      vertex 32.25 0.311867 5.46722
    endloop
  endfacet
  facet normal 1 0 0
    outer loop
      vertex 32.25 10.25 8
      vertex 32.25 2.44249e-15 5.5
      vertex 32.25 0.092405 5.49029
    endloop
  endfacet
  facet normal 1 -0 0
    outer loop
      vertex 32.25 -10 8
      vertex 32.25 2.44249e-15 5.5
      vertex 32.25 10.25 8
    endloop
  endfacet
  facet normal 1 0 0
    outer loop
      vertex 32.25 2.44249e-15 5.5
      vertex 32.25 -10 8
      vertex 32.25 -0.0924053 5.49029
    endloop
  endfacet
  facet normal 1 0 0
    outer loop
      vertex 32.25 -1.49178 4.15679
      vertex 32.25 -10 8
      vertex 32.25 -1.49178 3.84321
    endloop
  endfacet
  facet normal 1 0 0
    outer loop
      vertex 32.25 -1.42659 4.46352
      vertex 32.25 -10 8
      vertex 32.25 -1.49178 4.15679
    endloop
  endfacet
  facet normal 1 0 0
    outer loop
      vertex 32.25 -1.33683 4.66512
      vertex 32.25 -10 8
      vertex 32.25 -1.42659 4.46352
    endloop
  endfacet
  facet normal 1 0 0
    outer loop
      vertex 32.25 -1.29904 4.75
      vertex 32.25 -10 8
      vertex 32.25 -1.33683 4.66512
    endloop
  endfacet
  facet normal 1 0 0
    outer loop
      vertex 32.25 -1.24443 4.82517
      vertex 32.25 -10 8
      vertex 32.25 -1.29904 4.75
    endloop
  endfacet
  facet normal 1 0 0
    outer loop
      vertex 32.25 -1.11472 5.0037
      vertex 32.25 -10 8
      vertex 32.25 -1.24443 4.82517
    endloop
  endfacet
  facet normal 1 0 0
    outer loop
      vertex 32.25 -0.881679 5.21352
      vertex 32.25 -10 8
      vertex 32.25 -1.11472 5.0037
    endloop
  endfacet
  facet normal 1 0 0
    outer loop
      vertex 32.25 -0.610106 5.37032
      vertex 32.25 -10 8
      vertex 32.25 -0.881679 5.21352
    endloop
  endfacet
  facet normal 1 0 0
    outer loop
      vertex 32.25 -0.311868 5.46722
      vertex 32.25 -10 8
      vertex 32.25 -0.610106 5.37032
    endloop
  endfacet
  facet normal 1 0 0
    outer loop
      vertex 32.25 -0.0924053 5.49029
      vertex 32.25 -10 8
      vertex 32.25 -0.311868 5.46722
    endloop
  endfacet
  facet normal 1 -0 0
    outer loop
      vertex 32.25 1.49178 3.84321
      vertex 32.25 10.25 -2.27596e-15
      vertex 32.25 1.49178 4.15679
    endloop
  endfacet
  facet normal 1 -0 0
    outer loop
      vertex 32.25 1.42658 3.53647
      vertex 32.25 10.25 -2.27596e-15
      vertex 32.25 1.49178 3.84321
    endloop
  endfacet
  facet normal 1 -0 0
    outer loop
      vertex 32.25 1.29904 3.25
      vertex 32.25 10.25 -2.27596e-15
      vertex 32.25 1.42658 3.53647
    endloop
  endfacet
  facet normal 1 -0 0
    outer loop
      vertex 32.25 1.11472 2.9963
      vertex 32.25 10.25 -2.27596e-15
      vertex 32.25 1.29904 3.25
    endloop
  endfacet
  facet normal 1 -0 0
    outer loop
      vertex 32.25 0.881678 2.78647
      vertex 32.25 10.25 -2.27596e-15
      vertex 32.25 1.11472 2.9963
    endloop
  endfacet
  facet normal 1 -0 0
    outer loop
      vertex 32.25 0.610105 2.62968
      vertex 32.25 10.25 -2.27596e-15
      vertex 32.25 0.881678 2.78647
    endloop
  endfacet
  facet normal 1 -0 0
    outer loop
      vertex 32.25 0.311867 2.53278
      vertex 32.25 10.25 -2.27596e-15
      vertex 32.25 0.610105 2.62968
    endloop
  endfacet
  facet normal 1 -0 0
    outer loop
      vertex 32.25 0.219462 2.52307
      vertex 32.25 10.25 -2.27596e-15
      vertex 32.25 0.311867 2.53278
    endloop
  endfacet
  facet normal 1 -0 0
    outer loop
      vertex 32.25 -9.53674e-07 2.5
      vertex 32.25 10.25 -2.27596e-15
      vertex 32.25 0.219462 2.52307
    endloop
  endfacet
  facet normal 1 0 0
    outer loop
      vertex 32.25 -10 2.22045e-15
      vertex 32.25 -9.53674e-07 2.5
      vertex 32.25 -0.219463 2.52307
    endloop
  endfacet
  facet normal 1 0 0
    outer loop
      vertex 32.25 -10 2.22045e-15
      vertex 32.25 -0.219463 2.52307
      vertex 32.25 -0.311868 2.53278
    endloop
  endfacet
  facet normal 1 0 0
    outer loop
      vertex 32.25 -10 2.22045e-15
      vertex 32.25 -1.49178 3.84321
      vertex 32.25 -10 8
    endloop
  endfacet
  facet normal 1 0 0
    outer loop
      vertex 32.25 -1.49178 3.84321
      vertex 32.25 -10 2.22045e-15
      vertex 32.25 -1.42659 3.53647
    endloop
  endfacet
  facet normal 1 0 0
    outer loop
      vertex 32.25 -1.42659 3.53647
      vertex 32.25 -10 2.22045e-15
      vertex 32.25 -1.38879 3.45159
    endloop
  endfacet
  facet normal 1 0 0
    outer loop
      vertex 32.25 -1.38879 3.45159
      vertex 32.25 -10 2.22045e-15
      vertex 32.25 -1.29904 3.25
    endloop
  endfacet
  facet normal 1 0 0
    outer loop
      vertex 32.25 -1.29904 3.25
      vertex 32.25 -10 2.22045e-15
      vertex 32.25 -1.16933 3.07147
    endloop
  endfacet
  facet normal 1 0 0
    outer loop
      vertex 32.25 -1.16933 3.07147
      vertex 32.25 -10 2.22045e-15
      vertex 32.25 -1.11472 2.9963
    endloop
  endfacet
  facet normal 1 0 0
    outer loop
      vertex 32.25 -1.11472 2.9963
      vertex 32.25 -10 2.22045e-15
      vertex 32.25 -0.881679 2.78647
    endloop
  endfacet
  facet normal 1 0 0
    outer loop
      vertex 32.25 -9.53674e-07 2.5
      vertex 32.25 -10 2.22045e-15
      vertex 32.25 10.25 -2.27596e-15
    endloop
  endfacet
  facet normal 1 0 0
    outer loop
      vertex 32.25 -0.610106 2.62968
      vertex 32.25 -10 2.22045e-15
      vertex 32.25 -0.311868 2.53278
    endloop
  endfacet
  facet normal 1 0 0
    outer loop
      vertex 32.25 -0.881679 2.78647
      vertex 32.25 -10 2.22045e-15
      vertex 32.25 -0.610106 2.62968
    endloop
  endfacet
  facet normal 0 1 -0
    outer loop
      vertex -20.25 10.25 -2.27596e-15
      vertex -32.25 10.25 8
      vertex -20.25 10.25 8
    endloop
  endfacet
  facet normal 0 1 0
    outer loop
      vertex -32.25 10.25 8
      vertex -20.25 10.25 -2.27596e-15
      vertex -32.25 10.25 -2.27596e-15
    endloop
  endfacet
  facet normal 0 1 -0
    outer loop
      vertex 32.25 10.25 -2.27596e-15
      vertex 20.25 10.25 8
      vertex 32.25 10.25 8
    endloop
  endfacet
  facet normal 0 1 0
    outer loop
      vertex 20.25 10.25 8
      vertex 32.25 10.25 -2.27596e-15
      vertex 20.25 10.25 -2.27596e-15
    endloop
  endfacet
  facet normal 0 1 -0
    outer loop
      vertex -14.25 -7.4 1.64313e-15
      vertex -29.05 -7.4 8
      vertex -14.25 -7.4 8
    endloop
  endfacet
  facet normal 0 1 0
    outer loop
      vertex -29.05 -7.4 8
      vertex -14.25 -7.4 1.64313e-15
      vertex -29.05 -7.4 1.64313e-15
    endloop
  endfacet
  facet normal 1 0 0
    outer loop
      vertex -29.05 7.4 8
      vertex -29.05 1.49178 4.15679
      vertex -29.05 7.4 -1.64313e-15
    endloop
  endfacet
  facet normal 1 0 0
    outer loop
      vertex -29.05 7.4 8
      vertex -29.05 1.42658 4.46352
      vertex -29.05 1.49178 4.15679
    endloop
  endfacet
  facet normal 1 0 0
    outer loop
      vertex -29.05 7.4 8
      vertex -29.05 1.39887 4.52577
      vertex -29.05 1.42658 4.46352
    endloop
  endfacet
  facet normal 1 0 0
    outer loop
      vertex -29.05 7.4 8
      vertex -29.05 1.29904 4.75
      vertex -29.05 1.39887 4.52577
    endloop
  endfacet
  facet normal 1 0 0
    outer loop
      vertex -29.05 7.4 8
      vertex -29.05 1.15477 4.94857
      vertex -29.05 1.29904 4.75
    endloop
  endfacet
  facet normal 1 0 0
    outer loop
      vertex -29.05 7.4 8
      vertex -29.05 1.11472 5.0037
      vertex -29.05 1.15477 4.94857
    endloop
  endfacet
  facet normal 1 0 0
    outer loop
      vertex -29.05 7.4 8
      vertex -29.05 0.881678 5.21352
      vertex -29.05 1.11472 5.0037
    endloop
  endfacet
  facet normal 1 0 0
    outer loop
      vertex -29.05 7.4 8
      vertex -29.05 0.610105 5.37032
      vertex -29.05 0.881678 5.21352
    endloop
  endfacet
  facet normal 1 0 0
    outer loop
      vertex -29.05 7.4 8
      vertex -29.05 0.311867 5.46722
      vertex -29.05 0.610105 5.37032
    endloop
  endfacet
  facet normal 1 0 0
    outer loop
      vertex -29.05 7.4 8
      vertex -29.05 0.244103 5.47434
      vertex -29.05 0.311867 5.46722
    endloop
  endfacet
  facet normal 1 0 0
    outer loop
      vertex -29.05 7.4 8
      vertex -29.05 2.44249e-15 5.5
      vertex -29.05 0.244103 5.47434
    endloop
  endfacet
  facet normal 1 -0 0
    outer loop
      vertex -29.05 -7.4 8
      vertex -29.05 2.44249e-15 5.5
      vertex -29.05 7.4 8
    endloop
  endfacet
  facet normal 1 0 0
    outer loop
      vertex -29.05 2.44249e-15 5.5
      vertex -29.05 -7.4 8
      vertex -29.05 -0.244104 5.47434
    endloop
  endfacet
  facet normal 1 0 0
    outer loop
      vertex -29.05 -0.244104 5.47434
      vertex -29.05 -7.4 8
      vertex -29.05 -0.311868 5.46722
    endloop
  endfacet
  facet normal 1 0 0
    outer loop
      vertex -29.05 -1.49178 4.15679
      vertex -29.05 -7.4 8
      vertex -29.05 -1.49178 3.84321
    endloop
  endfacet
  facet normal 1 0 0
    outer loop
      vertex -29.05 -1.42659 4.46352
      vertex -29.05 -7.4 8
      vertex -29.05 -1.49178 4.15679
    endloop
  endfacet
  facet normal 1 0 0
    outer loop
      vertex -29.05 -1.39887 4.52577
      vertex -29.05 -7.4 8
      vertex -29.05 -1.42659 4.46352
    endloop
  endfacet
  facet normal 1 0 0
    outer loop
      vertex -29.05 -1.29904 4.75
      vertex -29.05 -7.4 8
      vertex -29.05 -1.39887 4.52577
    endloop
  endfacet
  facet normal 1 0 0
    outer loop
      vertex -29.05 -1.15477 4.94857
      vertex -29.05 -7.4 8
      vertex -29.05 -1.29904 4.75
    endloop
  endfacet
  facet normal 1 0 0
    outer loop
      vertex -29.05 -1.11472 5.0037
      vertex -29.05 -7.4 8
      vertex -29.05 -1.15477 4.94857
    endloop
  endfacet
  facet normal 1 0 0
    outer loop
      vertex -29.05 -0.881679 5.21352
      vertex -29.05 -7.4 8
      vertex -29.05 -1.11472 5.0037
    endloop
  endfacet
  facet normal 1 0 0
    outer loop
      vertex -29.05 -0.610106 5.37032
      vertex -29.05 -7.4 8
      vertex -29.05 -0.881679 5.21352
    endloop
  endfacet
  facet normal 1 0 0
    outer loop
      vertex -29.05 -0.311868 5.46722
      vertex -29.05 -7.4 8
      vertex -29.05 -0.610106 5.37032
    endloop
  endfacet
  facet normal 1 -0 0
    outer loop
      vertex -29.05 1.49178 3.84321
      vertex -29.05 7.4 -1.64313e-15
      vertex -29.05 1.49178 4.15679
    endloop
  endfacet
  facet normal 1 -0 0
    outer loop
      vertex -29.05 1.42658 3.53647
      vertex -29.05 7.4 -1.64313e-15
      vertex -29.05 1.49178 3.84321
    endloop
  endfacet
  facet normal 1 -0 0
    outer loop
      vertex -29.05 1.29904 3.25
      vertex -29.05 7.4 -1.64313e-15
      vertex -29.05 1.42658 3.53647
    endloop
  endfacet
  facet normal 1 -0 0
    outer loop
      vertex -29.05 1.11472 2.9963
      vertex -29.05 7.4 -1.64313e-15
      vertex -29.05 1.29904 3.25
    endloop
  endfacet
  facet normal 1 -0 0
    outer loop
      vertex -29.05 0.881678 2.78647
      vertex -29.05 7.4 -1.64313e-15
      vertex -29.05 1.11472 2.9963
    endloop
  endfacet
  facet normal 1 -0 0
    outer loop
      vertex -29.05 0.610105 2.62968
      vertex -29.05 7.4 -1.64313e-15
      vertex -29.05 0.881678 2.78647
    endloop
  endfacet
  facet normal 1 -0 0
    outer loop
      vertex -29.05 0.311867 2.53278
      vertex -29.05 7.4 -1.64313e-15
      vertex -29.05 0.610105 2.62968
    endloop
  endfacet
  facet normal 1 -0 0
    outer loop
      vertex -29.05 0.0677629 2.50712
      vertex -29.05 7.4 -1.64313e-15
      vertex -29.05 0.311867 2.53278
    endloop
  endfacet
  facet normal 1 -0 0
    outer loop
      vertex -29.05 -9.53674e-07 2.5
      vertex -29.05 7.4 -1.64313e-15
      vertex -29.05 0.0677629 2.50712
    endloop
  endfacet
  facet normal 1 0 0
    outer loop
      vertex -29.05 -7.4 1.64313e-15
      vertex -29.05 -9.53674e-07 2.5
      vertex -29.05 -0.0677646 2.50712
    endloop
  endfacet
  facet normal 1 0 0
    outer loop
      vertex -29.05 -7.4 1.64313e-15
      vertex -29.05 -0.0677646 2.50712
      vertex -29.05 -0.311868 2.53278
    endloop
  endfacet
  facet normal 1 0 0
    outer loop
      vertex -29.05 -7.4 1.64313e-15
      vertex -29.05 -0.311868 2.53278
      vertex -29.05 -0.610106 2.62968
    endloop
  endfacet
  facet normal 1 0 0
    outer loop
      vertex -29.05 -7.4 1.64313e-15
      vertex -29.05 -1.49178 3.84321
      vertex -29.05 -7.4 8
    endloop
  endfacet
  facet normal 1 0 0
    outer loop
      vertex -29.05 -1.49178 3.84321
      vertex -29.05 -7.4 1.64313e-15
      vertex -29.05 -1.42659 3.53647
    endloop
  endfacet
  facet normal 1 0 0
    outer loop
      vertex -29.05 -1.42659 3.53647
      vertex -29.05 -7.4 1.64313e-15
      vertex -29.05 -1.32675 3.31225
    endloop
  endfacet
  facet normal 1 0 0
    outer loop
      vertex -29.05 -1.32675 3.31225
      vertex -29.05 -7.4 1.64313e-15
      vertex -29.05 -1.29904 3.25
    endloop
  endfacet
  facet normal 1 0 0
    outer loop
      vertex -29.05 -1.29904 3.25
      vertex -29.05 -7.4 1.64313e-15
      vertex -29.05 -1.25899 3.19488
    endloop
  endfacet
  facet normal 1 0 0
    outer loop
      vertex -29.05 -1.25899 3.19488
      vertex -29.05 -7.4 1.64313e-15
      vertex -29.05 -1.11472 2.9963
    endloop
  endfacet
  facet normal 1 0 0
    outer loop
      vertex -29.05 -9.53674e-07 2.5
      vertex -29.05 -7.4 1.64313e-15
      vertex -29.05 7.4 -1.64313e-15
    endloop
  endfacet
  facet normal 1 0 0
    outer loop
      vertex -29.05 -0.881679 2.78647
      vertex -29.05 -7.4 1.64313e-15
      vertex -29.05 -0.610106 2.62968
    endloop
  endfacet
  facet normal 1 0 0
    outer loop
      vertex -29.05 -1.11472 2.9963
      vertex -29.05 -7.4 1.64313e-15
      vertex -29.05 -0.881679 2.78647
    endloop
  endfacet
  facet normal 0 -1 0
    outer loop
      vertex -29.05 7.4 -1.64313e-15
      vertex -14.25 7.4 8
      vertex -29.05 7.4 8
    endloop
  endfacet
  facet normal 0 -1 -0
    outer loop
      vertex -14.25 7.4 8
      vertex -29.05 7.4 -1.64313e-15
      vertex -14.25 7.4 -1.64313e-15
    endloop
  endfacet
  facet normal -1 0 0
    outer loop
      vertex -14.25 -7.4 1.64313e-15
      vertex -14.25 7.4 8
      vertex -14.25 7.4 -1.64313e-15
    endloop
  endfacet
  facet normal -1 -0 0
    outer loop
      vertex -14.25 7.4 8
      vertex -14.25 -7.4 1.64313e-15
      vertex -14.25 -7.4 8
    endloop
  endfacet
  facet normal 0 1 -0
    outer loop
      vertex 29.05 -7.4 1.64313e-15
      vertex 14.25 -7.4 8
      vertex 29.05 -7.4 8
    endloop
  endfacet
  facet normal 0 1 0
    outer loop
      vertex 14.25 -7.4 8
      vertex 29.05 -7.4 1.64313e-15
      vertex 14.25 -7.4 1.64313e-15
    endloop
  endfacet
  facet normal 1 -0 0
    outer loop
      vertex 14.25 -7.4 8
      vertex 14.25 7.4 -1.64313e-15
      vertex 14.25 7.4 8
    endloop
  endfacet
  facet normal 1 0 0
    outer loop
      vertex 14.25 7.4 -1.64313e-15
      vertex 14.25 -7.4 8
      vertex 14.25 -7.4 1.64313e-15
    endloop
  endfacet
  facet normal 0 -1 0
    outer loop
      vertex 14.25 7.4 -1.64313e-15
      vertex 29.05 7.4 8
      vertex 14.25 7.4 8
    endloop
  endfacet
  facet normal 0 -1 -0
    outer loop
      vertex 29.05 7.4 8
      vertex 14.25 7.4 -1.64313e-15
      vertex 29.05 7.4 -1.64313e-15
    endloop
  endfacet
  facet normal -1 0 0
    outer loop
      vertex 29.05 7.4 -1.64313e-15
      vertex 29.05 1.49178 3.84321
      vertex 29.05 7.4 8
    endloop
  endfacet
  facet normal -1 0 0
    outer loop
      vertex 29.05 7.4 -1.64313e-15
      vertex 29.05 1.42658 3.53647
      vertex 29.05 1.49178 3.84321
    endloop
  endfacet
  facet normal -1 0 0
    outer loop
      vertex 29.05 7.4 -1.64313e-15
      vertex 29.05 1.29904 3.25
      vertex 29.05 1.42658 3.53647
    endloop
  endfacet
  facet normal -1 0 0
    outer loop
      vertex 29.05 7.4 -1.64313e-15
      vertex 29.05 1.11472 2.9963
      vertex 29.05 1.29904 3.25
    endloop
  endfacet
  facet normal -1 0 0
    outer loop
      vertex 29.05 7.4 -1.64313e-15
      vertex 29.05 0.881678 2.78647
      vertex 29.05 1.11472 2.9963
    endloop
  endfacet
  facet normal -1 0 0
    outer loop
      vertex 29.05 7.4 -1.64313e-15
      vertex 29.05 0.610105 2.62968
      vertex 29.05 0.881678 2.78647
    endloop
  endfacet
  facet normal -1 0 0
    outer loop
      vertex 29.05 7.4 -1.64313e-15
      vertex 29.05 0.311867 2.53278
      vertex 29.05 0.610105 2.62968
    endloop
  endfacet
  facet normal -1 0 0
    outer loop
      vertex 29.05 7.4 -1.64313e-15
      vertex 29.05 0.244103 2.52566
      vertex 29.05 0.311867 2.53278
    endloop
  endfacet
  facet normal -1 0 0
    outer loop
      vertex 29.05 7.4 -1.64313e-15
      vertex 29.05 -9.53674e-07 2.5
      vertex 29.05 0.244103 2.52566
    endloop
  endfacet
  facet normal -1 0 0
    outer loop
      vertex 29.05 -7.4 1.64313e-15
      vertex 29.05 -9.53674e-07 2.5
      vertex 29.05 7.4 -1.64313e-15
    endloop
  endfacet
  facet normal -1 -0 0
    outer loop
      vertex 29.05 -9.53674e-07 2.5
      vertex 29.05 -7.4 1.64313e-15
      vertex 29.05 -0.244104 2.52566
    endloop
  endfacet
  facet normal -1 -0 0
    outer loop
      vertex 29.05 -0.244104 2.52566
      vertex 29.05 -7.4 1.64313e-15
      vertex 29.05 -0.311868 2.53278
    endloop
  endfacet
  facet normal -1 0 0
    outer loop
      vertex 29.05 -7.4 1.64313e-15
      vertex 29.05 -1.15477 3.05143
      vertex 29.05 -1.11472 2.9963
    endloop
  endfacet
  facet normal -1 -0 0
    outer loop
      vertex 29.05 -1.49178 3.84321
      vertex 29.05 -7.4 1.64313e-15
      vertex 29.05 -1.49178 4.15679
    endloop
  endfacet
  facet normal -1 -0 0
    outer loop
      vertex 29.05 -1.42659 3.53647
      vertex 29.05 -7.4 1.64313e-15
      vertex 29.05 -1.49178 3.84321
    endloop
  endfacet
  facet normal -1 -0 0
    outer loop
      vertex 29.05 -1.39887 3.47423
      vertex 29.05 -7.4 1.64313e-15
      vertex 29.05 -1.42659 3.53647
    endloop
  endfacet
  facet normal -1 -0 0
    outer loop
      vertex 29.05 -1.29904 3.25
      vertex 29.05 -7.4 1.64313e-15
      vertex 29.05 -1.39887 3.47423
    endloop
  endfacet
  facet normal -1 -0 0
    outer loop
      vertex 29.05 -1.15477 3.05143
      vertex 29.05 -7.4 1.64313e-15
      vertex 29.05 -1.29904 3.25
    endloop
  endfacet
  facet normal -1 -0 0
    outer loop
      vertex 29.05 -0.881679 2.78647
      vertex 29.05 -7.4 1.64313e-15
      vertex 29.05 -1.11472 2.9963
    endloop
  endfacet
  facet normal -1 -0 0
    outer loop
      vertex 29.05 -0.610106 2.62968
      vertex 29.05 -7.4 1.64313e-15
      vertex 29.05 -0.881679 2.78647
    endloop
  endfacet
  facet normal -1 -0 0
    outer loop
      vertex 29.05 -0.311868 2.53278
      vertex 29.05 -7.4 1.64313e-15
      vertex 29.05 -0.610106 2.62968
    endloop
  endfacet
  facet normal -1 0 0
    outer loop
      vertex 29.05 1.49178 4.15679
      vertex 29.05 7.4 8
      vertex 29.05 1.49178 3.84321
    endloop
  endfacet
  facet normal -1 0 0
    outer loop
      vertex 29.05 1.42658 4.46352
      vertex 29.05 7.4 8
      vertex 29.05 1.49178 4.15679
    endloop
  endfacet
  facet normal -1 0 0
    outer loop
      vertex 29.05 1.32675 4.68775
      vertex 29.05 7.4 8
      vertex 29.05 1.42658 4.46352
    endloop
  endfacet
  facet normal -1 0 0
    outer loop
      vertex 29.05 1.29904 4.75
      vertex 29.05 7.4 8
      vertex 29.05 1.32675 4.68775
    endloop
  endfacet
  facet normal -1 0 0
    outer loop
      vertex 29.05 1.25899 4.80512
      vertex 29.05 7.4 8
      vertex 29.05 1.29904 4.75
    endloop
  endfacet
  facet normal -1 0 0
    outer loop
      vertex 29.05 1.11472 5.0037
      vertex 29.05 7.4 8
      vertex 29.05 1.25899 4.80512
    endloop
  endfacet
  facet normal -1 0 0
    outer loop
      vertex 29.05 0.881678 5.21352
      vertex 29.05 7.4 8
      vertex 29.05 1.11472 5.0037
    endloop
  endfacet
  facet normal -1 0 0
    outer loop
      vertex 29.05 0.610105 5.37032
      vertex 29.05 7.4 8
      vertex 29.05 0.881678 5.21352
    endloop
  endfacet
  facet normal -1 0 0
    outer loop
      vertex 29.05 0.311867 5.46722
      vertex 29.05 7.4 8
      vertex 29.05 0.610105 5.37032
    endloop
  endfacet
  facet normal -1 0 0
    outer loop
      vertex 29.05 0.0677636 5.49288
      vertex 29.05 7.4 8
      vertex 29.05 0.311867 5.46722
    endloop
  endfacet
  facet normal -1 0 0
    outer loop
      vertex 29.05 2.44249e-15 5.5
      vertex 29.05 7.4 8
      vertex 29.05 0.0677636 5.49288
    endloop
  endfacet
  facet normal -1 0 0
    outer loop
      vertex 29.05 -7.4 8
      vertex 29.05 2.44249e-15 5.5
      vertex 29.05 -0.0677638 5.49288
    endloop
  endfacet
  facet normal -1 0 0
    outer loop
      vertex 29.05 -7.4 8
      vertex 29.05 -0.0677638 5.49288
      vertex 29.05 -0.311868 5.46722
    endloop
  endfacet
  facet normal -1 0 0
    outer loop
      vertex 29.05 -7.4 8
      vertex 29.05 -0.311868 5.46722
      vertex 29.05 -0.610106 5.37032
    endloop
  endfacet
  facet normal -1 0 0
    outer loop
      vertex 29.05 -7.4 8
      vertex 29.05 -1.25899 4.80512
      vertex 29.05 -1.29904 4.75
    endloop
  endfacet
  facet normal -1 0 0
    outer loop
      vertex 29.05 -7.4 8
      vertex 29.05 -1.49178 4.15679
      vertex 29.05 -7.4 1.64313e-15
    endloop
  endfacet
  facet normal -1 0 0
    outer loop
      vertex 29.05 -1.49178 4.15679
      vertex 29.05 -7.4 8
      vertex 29.05 -1.42659 4.46352
    endloop
  endfacet
  facet normal -1 0 0
    outer loop
      vertex 29.05 -1.42659 4.46352
      vertex 29.05 -7.4 8
      vertex 29.05 -1.32675 4.68775
    endloop
  endfacet
  facet normal -1 0 0
    outer loop
      vertex 29.05 -1.32675 4.68775
      vertex 29.05 -7.4 8
      vertex 29.05 -1.29904 4.75
    endloop
  endfacet
  facet normal -1 0 0
    outer loop
      vertex 29.05 -1.25899 4.80512
      vertex 29.05 -7.4 8
      vertex 29.05 -1.11472 5.0037
    endloop
  endfacet
  facet normal -1 0 0
    outer loop
      vertex 29.05 2.44249e-15 5.5
      vertex 29.05 -7.4 8
      vertex 29.05 7.4 8
    endloop
  endfacet
  facet normal -1 0 0
    outer loop
      vertex 29.05 -0.881679 5.21352
      vertex 29.05 -7.4 8
      vertex 29.05 -0.610106 5.37032
    endloop
  endfacet
  facet normal -1 0 0
    outer loop
      vertex 29.05 -1.11472 5.0037
      vertex 29.05 -7.4 8
      vertex 29.05 -0.881679 5.21352
    endloop
  endfacet
  facet normal 0.994522 0.104529 0
    outer loop
      vertex -10.15 -0.47572 8
      vertex -10.2 -9.53674e-07 2.11758e-22
      vertex -10.2 -9.53674e-07 8
    endloop
  endfacet
  facet normal 0.994522 0.104529 0
    outer loop
      vertex -10.2 -9.53674e-07 2.11758e-22
      vertex -10.15 -0.47572 8
      vertex -10.15 -0.47572 1.05631e-16
    endloop
  endfacet
  facet normal 0 -1 0
    outer loop
      vertex -0.618455 10.6414 -2.36286e-15
      vertex 1.61845 10.6414 8
      vertex -0.618455 10.6414 8
    endloop
  endfacet
  facet normal 0 -1 -0
    outer loop
      vertex 1.61845 10.6414 8
      vertex -0.618455 10.6414 -2.36286e-15
      vertex 1.61845 10.6414 -2.36286e-15
    endloop
  endfacet
  facet normal -0.951056 -0.309017 0
    outer loop
      vertex 10.9662 2.22465 -4.93972e-16
      vertex 10.2749 4.35208 8
      vertex 10.2749 4.35208 -9.66356e-16
    endloop
  endfacet
  facet normal -0.951056 -0.309017 0
    outer loop
      vertex 10.2749 4.35208 8
      vertex 10.9662 2.22465 -4.93972e-16
      vertex 10.9662 2.22465 8
    endloop
  endfacet
  facet normal -0.994522 -0.104529 0
    outer loop
      vertex 10.9662 2.22465 -4.93972e-16
      vertex 11.2 3.55271e-15 8
      vertex 10.9662 2.22465 8
    endloop
  endfacet
  facet normal -0.994522 -0.104529 4.642e-17
    outer loop
      vertex 11.2 3.55271e-15 8
      vertex 10.9662 2.22465 -4.93972e-16
      vertex 11.2 2.46519e-31 -0
    endloop
  endfacet
  facet normal -0.866026 -0.5 0
    outer loop
      vertex 10.2749 4.35208 -9.66356e-16
      vertex 9.15648 6.2893 8
      vertex 9.15648 6.2893 -1.39651e-15
    endloop
  endfacet
  facet normal -0.866026 -0.5 0
    outer loop
      vertex 9.15648 6.2893 8
      vertex 10.2749 4.35208 -9.66356e-16
      vertex 10.2749 4.35208 8
    endloop
  endfacet
  facet normal -0.587785 -0.809017 0
    outer loop
      vertex 5.85 9.26647 8
      vertex 7.6597 7.95165 -1.76562e-15
      vertex 7.6597 7.95165 8
    endloop
  endfacet
  facet normal -0.587785 -0.809017 0
    outer loop
      vertex 7.6597 7.95165 -1.76562e-15
      vertex 5.85 9.26647 8
      vertex 5.85 9.26647 -2.05757e-15
    endloop
  endfacet
  facet normal 0.207912 -0.978148 0
    outer loop
      vertex -2.80648 10.1763 -2.25959e-15
      vertex -0.618455 10.6414 8
      vertex -2.80648 10.1763 8
    endloop
  endfacet
  facet normal 0.207912 -0.978148 0
    outer loop
      vertex -0.618455 10.6414 8
      vertex -2.80648 10.1763 -2.25959e-15
      vertex -0.618455 10.6414 -2.36286e-15
    endloop
  endfacet
  facet normal 0.743145 -0.669131 0
    outer loop
      vertex -8.15648 6.2893 8
      vertex -6.6597 7.95165 -1.76562e-15
      vertex -6.6597 7.95165 8
    endloop
  endfacet
  facet normal 0.743145 -0.669131 0
    outer loop
      vertex -6.6597 7.95165 -1.76562e-15
      vertex -8.15648 6.2893 8
      vertex -8.15648 6.2893 -1.39651e-15
    endloop
  endfacet
  facet normal 0.866026 -0.5 0
    outer loop
      vertex -9.27494 4.35208 8
      vertex -8.15648 6.2893 -1.39651e-15
      vertex -8.15648 6.2893 8
    endloop
  endfacet
  facet normal 0.866026 -0.5 0
    outer loop
      vertex -8.15648 6.2893 -1.39651e-15
      vertex -9.27494 4.35208 8
      vertex -9.27494 4.35208 -9.66356e-16
    endloop
  endfacet
  facet normal 0.951056 -0.309017 0
    outer loop
      vertex -9.96618 2.22465 8
      vertex -9.27494 4.35208 -9.66356e-16
      vertex -9.27494 4.35208 8
    endloop
  endfacet
  facet normal 0.951056 -0.309017 0
    outer loop
      vertex -9.27494 4.35208 -9.66356e-16
      vertex -9.96618 2.22465 8
      vertex -9.96618 2.22465 -4.93972e-16
    endloop
  endfacet
  facet normal 0.994522 -0.104529 0
    outer loop
      vertex -10.2 -9.53674e-07 8
      vertex -9.96618 2.22465 -4.93972e-16
      vertex -9.96618 2.22465 8
    endloop
  endfacet
  facet normal 0.994522 -0.104529 0
    outer loop
      vertex -9.96618 2.22465 -4.93972e-16
      vertex -10.2 -9.53674e-07 8
      vertex -10.2 -9.53674e-07 2.11758e-22
    endloop
  endfacet
  facet normal -0.406737 -0.913545 0
    outer loop
      vertex 3.80648 10.1763 8
      vertex 5.85 9.26647 -2.05757e-15
      vertex 5.85 9.26647 8
    endloop
  endfacet
  facet normal -0.406737 -0.913545 0
    outer loop
      vertex 5.85 9.26647 -2.05757e-15
      vertex 3.80648 10.1763 8
      vertex 3.80648 10.1763 -2.25959e-15
    endloop
  endfacet
  facet normal -0.207912 -0.978148 0
    outer loop
      vertex 1.61845 10.6414 8
      vertex 3.80648 10.1763 -2.25959e-15
      vertex 3.80648 10.1763 8
    endloop
  endfacet
  facet normal -0.207912 -0.978148 0
    outer loop
      vertex 3.80648 10.1763 -2.25959e-15
      vertex 1.61845 10.6414 8
      vertex 1.61845 10.6414 -2.36286e-15
    endloop
  endfacet
  facet normal -0.743145 -0.669131 0
    outer loop
      vertex 9.15648 6.2893 -1.39651e-15
      vertex 7.6597 7.95165 8
      vertex 7.6597 7.95165 -1.76562e-15
    endloop
  endfacet
  facet normal -0.743145 -0.669131 0
    outer loop
      vertex 7.6597 7.95165 8
      vertex 9.15648 6.2893 -1.39651e-15
      vertex 9.15648 6.2893 8
    endloop
  endfacet
  facet normal 0.406737 -0.913545 0
    outer loop
      vertex -4.85 9.26647 -2.05757e-15
      vertex -2.80648 10.1763 8
      vertex -4.85 9.26647 8
    endloop
  endfacet
  facet normal 0.406737 -0.913545 0
    outer loop
      vertex -2.80648 10.1763 8
      vertex -4.85 9.26647 -2.05757e-15
      vertex -2.80648 10.1763 -2.25959e-15
    endloop
  endfacet
  facet normal 0.587785 -0.809017 0
    outer loop
      vertex -6.6597 7.95165 -1.76562e-15
      vertex -4.85 9.26647 8
      vertex -6.6597 7.95165 8
    endloop
  endfacet
  facet normal 0.587785 -0.809017 0
    outer loop
      vertex -4.85 9.26647 8
      vertex -6.6597 7.95165 -1.76562e-15
      vertex -4.85 9.26647 -2.05757e-15
    endloop
  endfacet
  facet normal 1 -0 0
    outer loop
      vertex -10.15 -20.25 8
      vertex -10.15 -0.47572 1.05631e-16
      vertex -10.15 -0.47572 8
    endloop
  endfacet
  facet normal 1 0 0
    outer loop
      vertex -10.15 -0.47572 1.05631e-16
      vertex -10.15 -20.25 8
      vertex -10.15 -20.25 4.4964e-15
    endloop
  endfacet
  facet normal -1 0 0
    outer loop
      vertex 11.25 -20.25 4.4964e-15
      vertex 11.25 3.55271e-15 8
      vertex 11.25 2.46519e-31 -0
    endloop
  endfacet
  facet normal -1 -0 0
    outer loop
      vertex 11.25 3.55271e-15 8
      vertex 11.25 -20.25 4.4964e-15
      vertex 11.25 -20.25 8
    endloop
  endfacet
  facet normal 0 -1 4.44089e-16
    outer loop
      vertex 11.2 2.46519e-31 -0
      vertex 11.25 3.55271e-15 8
      vertex 11.2 3.55271e-15 8
    endloop
  endfacet
  facet normal 0 -1 4.44089e-16
    outer loop
      vertex 11.25 3.55271e-15 8
      vertex 11.2 2.46519e-31 -0
      vertex 11.25 2.46519e-31 -0
    endloop
  endfacet
  facet normal 0 0.104532 -0.994522
    outer loop
      vertex -32.25 -0.311868 5.46722
      vertex -29.05 -0.244104 5.47434
      vertex -29.05 -0.311868 5.46722
    endloop
  endfacet
  facet normal 6.9028e-08 0.104529 -0.994522
    outer loop
      vertex -29.05 -0.244104 5.47434
      vertex -32.25 -0.311868 5.46722
      vertex -32.25 -0.219462 5.47693
    endloop
  endfacet
  facet normal 3.20973e-08 0.104524 -0.994522
    outer loop
      vertex -32.25 -0.219462 5.47693
      vertex -29.05 2.44249e-15 5.5
      vertex -29.05 -0.244104 5.47434
    endloop
  endfacet
  facet normal -1.48195e-07 0.104527 -0.994522
    outer loop
      vertex -29.05 2.44249e-15 5.5
      vertex -32.25 -0.219462 5.47693
      vertex -32.25 2.44249e-15 5.5
    endloop
  endfacet
  facet normal 3.32825e-08 -0.104525 0.994522
    outer loop
      vertex -32.25 0.0924043 2.50971
      vertex -29.05 -9.53674e-07 2.5
      vertex -29.05 0.0677629 2.50712
    endloop
  endfacet
  facet normal 0 -0.104526 0.994522
    outer loop
      vertex -29.05 -9.53674e-07 2.5
      vertex -32.25 0.0924043 2.50971
      vertex -32.25 -9.53674e-07 2.5
    endloop
  endfacet
  facet normal -6.06083e-08 0.913546 -0.406735
    outer loop
      vertex -29.05 -1.29904 4.75
      vertex -32.25 -1.38879 4.54841
      vertex -32.25 -1.29904 4.75
    endloop
  endfacet
  facet normal -3.60007e-09 0.913546 -0.406736
    outer loop
      vertex -32.25 -1.38879 4.54841
      vertex -29.05 -1.29904 4.75
      vertex -29.05 -1.39887 4.52577
    endloop
  endfacet
  facet normal 0 0.809015 -0.587788
    outer loop
      vertex -29.05 -1.15477 4.94857
      vertex -32.25 -1.11472 5.0037
      vertex -29.05 -1.11472 5.0037
    endloop
  endfacet
  facet normal 2.90072e-08 0.809016 -0.587786
    outer loop
      vertex -32.25 -1.11472 5.0037
      vertex -29.05 -1.15477 4.94857
      vertex -32.25 -1.16933 4.92853
    endloop
  endfacet
  facet normal -0 0.5 0.866026
    outer loop
      vertex -32.25 -0.610106 2.62968
      vertex -29.05 -0.881679 2.78647
      vertex -29.05 -0.610106 2.62968
    endloop
  endfacet
  facet normal 0 0.5 0.866026
    outer loop
      vertex -29.05 -0.881679 2.78647
      vertex -32.25 -0.610106 2.62968
      vertex -32.25 -0.881679 2.78647
    endloop
  endfacet
  facet normal 2.66676e-08 0.809016 -0.587786
    outer loop
      vertex -29.05 -1.15477 4.94857
      vertex -32.25 -1.29904 4.75
      vertex -32.25 -1.16933 4.92853
    endloop
  endfacet
  facet normal -8.75868e-08 0.809017 -0.587785
    outer loop
      vertex -32.25 -1.29904 4.75
      vertex -29.05 -1.15477 4.94857
      vertex -29.05 -1.29904 4.75
    endloop
  endfacet
  facet normal 0 0.309018 -0.951056
    outer loop
      vertex -32.25 -0.610106 5.37032
      vertex -29.05 -0.311868 5.46722
      vertex -29.05 -0.610106 5.37032
    endloop
  endfacet
  facet normal 0 0.309018 -0.951056
    outer loop
      vertex -29.05 -0.311868 5.46722
      vertex -32.25 -0.610106 5.37032
      vertex -32.25 -0.311868 5.46722
    endloop
  endfacet
  facet normal 0 -0.104529 0.994522
    outer loop
      vertex -32.25 0.311867 2.53278
      vertex -29.05 0.0677629 2.50712
      vertex -29.05 0.311867 2.53278
    endloop
  endfacet
  facet normal 4.60339e-09 -0.104529 0.994522
    outer loop
      vertex -29.05 0.0677629 2.50712
      vertex -32.25 0.311867 2.53278
      vertex -32.25 0.0924043 2.50971
    endloop
  endfacet
  facet normal 0 -0.913546 0.406735
    outer loop
      vertex -32.25 1.29904 3.25
      vertex -29.05 1.42658 3.53647
      vertex -32.25 1.42658 3.53647
    endloop
  endfacet
  facet normal 0 -0.913546 0.406735
    outer loop
      vertex -29.05 1.42658 3.53647
      vertex -32.25 1.29904 3.25
      vertex -29.05 1.29904 3.25
    endloop
  endfacet
  facet normal 0 -0.809015 -0.587788
    outer loop
      vertex -32.25 1.11472 5.0037
      vertex -29.05 1.15477 4.94857
      vertex -29.05 1.11472 5.0037
    endloop
  endfacet
  facet normal 2.90072e-08 -0.809016 -0.587786
    outer loop
      vertex -29.05 1.15477 4.94857
      vertex -32.25 1.11472 5.0037
      vertex -32.25 1.16933 4.92853
    endloop
  endfacet
  facet normal 0 -0.309018 -0.951056
    outer loop
      vertex -32.25 0.311867 5.46722
      vertex -29.05 0.610105 5.37032
      vertex -29.05 0.311867 5.46722
    endloop
  endfacet
  facet normal -0 -0.309018 -0.951056
    outer loop
      vertex -29.05 0.610105 5.37032
      vertex -32.25 0.311867 5.46722
      vertex -32.25 0.610105 5.37032
    endloop
  endfacet
  facet normal -0 0.104525 0.994522
    outer loop
      vertex -32.25 -9.53674e-07 2.5
      vertex -29.05 -0.0677646 2.50712
      vertex -29.05 -9.53674e-07 2.5
    endloop
  endfacet
  facet normal 2.43747e-08 0.104527 0.994522
    outer loop
      vertex -29.05 -0.0677646 2.50712
      vertex -32.25 -9.53674e-07 2.5
      vertex -32.25 -0.0924059 2.50971
    endloop
  endfacet
  facet normal 0 0.809018 0.587784
    outer loop
      vertex -29.05 -1.25899 3.19488
      vertex -32.25 -1.29904 3.25
      vertex -29.05 -1.29904 3.25
    endloop
  endfacet
  facet normal 2.64646e-08 0.809017 0.587785
    outer loop
      vertex -32.25 -1.29904 3.25
      vertex -29.05 -1.25899 3.19488
      vertex -32.25 -1.24443 3.17483
    endloop
  endfacet
  facet normal 6.77829e-10 0.913546 0.406736
    outer loop
      vertex -29.05 -1.29904 3.25
      vertex -32.25 -1.33683 3.33488
      vertex -29.05 -1.32675 3.31225
    endloop
  endfacet
  facet normal 0 0.913546 0.406736
    outer loop
      vertex -32.25 -1.33683 3.33488
      vertex -29.05 -1.29904 3.25
      vertex -32.25 -1.29904 3.25
    endloop
  endfacet
  facet normal 0 0.978148 -0.207912
    outer loop
      vertex -29.05 -1.49178 4.15679
      vertex -32.25 -1.42659 4.46352
      vertex -29.05 -1.42659 4.46352
    endloop
  endfacet
  facet normal 0 0.978148 -0.207912
    outer loop
      vertex -32.25 -1.42659 4.46352
      vertex -29.05 -1.49178 4.15679
      vertex -32.25 -1.49178 4.15679
    endloop
  endfacet
  facet normal -6.77829e-10 0.913546 -0.406736
    outer loop
      vertex -29.05 -1.42659 4.46352
      vertex -32.25 -1.38879 4.54841
      vertex -29.05 -1.39887 4.52577
    endloop
  endfacet
  facet normal 0 0.913546 -0.406736
    outer loop
      vertex -32.25 -1.38879 4.54841
      vertex -29.05 -1.42659 4.46352
      vertex -32.25 -1.42659 4.46352
    endloop
  endfacet
  facet normal 0 1 -0
    outer loop
      vertex -29.05 -1.49178 3.84321
      vertex -32.25 -1.49178 4.15679
      vertex -29.05 -1.49178 4.15679
    endloop
  endfacet
  facet normal 0 1 0
    outer loop
      vertex -32.25 -1.49178 4.15679
      vertex -29.05 -1.49178 3.84321
      vertex -32.25 -1.49178 3.84321
    endloop
  endfacet
  facet normal 0 0.669131 -0.743145
    outer loop
      vertex -32.25 -1.11472 5.0037
      vertex -29.05 -0.881679 5.21352
      vertex -29.05 -1.11472 5.0037
    endloop
  endfacet
  facet normal 0 0.669131 -0.743145
    outer loop
      vertex -29.05 -0.881679 5.21352
      vertex -32.25 -1.11472 5.0037
      vertex -32.25 -0.881679 5.21352
    endloop
  endfacet
  facet normal 0 -0.978148 0.207912
    outer loop
      vertex -32.25 1.42658 3.53647
      vertex -29.05 1.49178 3.84321
      vertex -32.25 1.49178 3.84321
    endloop
  endfacet
  facet normal 0 -0.978148 0.207912
    outer loop
      vertex -29.05 1.49178 3.84321
      vertex -32.25 1.42658 3.53647
      vertex -29.05 1.42658 3.53647
    endloop
  endfacet
  facet normal 9.41733e-08 -0.104532 -0.994521
    outer loop
      vertex -32.25 0.219462 5.47693
      vertex -29.05 0.311867 5.46722
      vertex -29.05 0.244103 5.47434
    endloop
  endfacet
  facet normal -0 -0.104529 -0.994522
    outer loop
      vertex -29.05 0.311867 5.46722
      vertex -32.25 0.219462 5.47693
      vertex -32.25 0.311867 5.46722
    endloop
  endfacet
  facet normal -1.48195e-07 -0.104524 -0.994522
    outer loop
      vertex -32.25 2.44249e-15 5.5
      vertex -29.05 0.244103 5.47434
      vertex -29.05 2.44249e-15 5.5
    endloop
  endfacet
  facet normal 5.23663e-08 -0.104527 -0.994522
    outer loop
      vertex -29.05 0.244103 5.47434
      vertex -32.25 2.44249e-15 5.5
      vertex -32.25 0.219462 5.47693
    endloop
  endfacet
  facet normal 4.11566e-09 0.104529 0.994522
    outer loop
      vertex -32.25 -0.0924059 2.50971
      vertex -29.05 -0.311868 2.53278
      vertex -29.05 -0.0677646 2.50712
    endloop
  endfacet
  facet normal 0 0.104529 0.994522
    outer loop
      vertex -29.05 -0.311868 2.53278
      vertex -32.25 -0.0924059 2.50971
      vertex -32.25 -0.311868 2.53278
    endloop
  endfacet
  facet normal -0 0.309018 0.951056
    outer loop
      vertex -32.25 -0.311868 2.53278
      vertex -29.05 -0.610106 2.62968
      vertex -29.05 -0.311868 2.53278
    endloop
  endfacet
  facet normal 0 0.309018 0.951056
    outer loop
      vertex -29.05 -0.610106 2.62968
      vertex -32.25 -0.311868 2.53278
      vertex -32.25 -0.610106 2.62968
    endloop
  endfacet
  facet normal -0 0.669131 0.743145
    outer loop
      vertex -32.25 -0.881679 2.78647
      vertex -29.05 -1.11472 2.9963
      vertex -29.05 -0.881679 2.78647
    endloop
  endfacet
  facet normal 0 0.669131 0.743145
    outer loop
      vertex -29.05 -1.11472 2.9963
      vertex -32.25 -0.881679 2.78647
      vertex -32.25 -1.11472 2.9963
    endloop
  endfacet
  facet normal 6.55549e-09 0.809015 0.587787
    outer loop
      vertex -29.05 -1.11472 2.9963
      vertex -32.25 -1.24443 3.17483
      vertex -29.05 -1.25899 3.19488
    endloop
  endfacet
  facet normal 0 0.809016 0.587787
    outer loop
      vertex -32.25 -1.24443 3.17483
      vertex -29.05 -1.11472 2.9963
      vertex -32.25 -1.11472 2.9963
    endloop
  endfacet
  facet normal 0 0.913546 0.406735
    outer loop
      vertex -29.05 -1.42659 3.53647
      vertex -32.25 -1.33683 3.33488
      vertex -32.25 -1.42659 3.53647
    endloop
  endfacet
  facet normal -5.57719e-09 0.913546 0.406735
    outer loop
      vertex -32.25 -1.33683 3.33488
      vertex -29.05 -1.42659 3.53647
      vertex -29.05 -1.32675 3.31225
    endloop
  endfacet
  facet normal 0 0.978148 0.207912
    outer loop
      vertex -29.05 -1.42659 3.53647
      vertex -32.25 -1.49178 3.84321
      vertex -29.05 -1.49178 3.84321
    endloop
  endfacet
  facet normal 0 0.978148 0.207912
    outer loop
      vertex -32.25 -1.49178 3.84321
      vertex -29.05 -1.42659 3.53647
      vertex -32.25 -1.42659 3.53647
    endloop
  endfacet
  facet normal 0 0.5 -0.866026
    outer loop
      vertex -32.25 -0.881679 5.21352
      vertex -29.05 -0.610106 5.37032
      vertex -29.05 -0.881679 5.21352
    endloop
  endfacet
  facet normal 0 0.5 -0.866026
    outer loop
      vertex -29.05 -0.610106 5.37032
      vertex -32.25 -0.881679 5.21352
      vertex -32.25 -0.610106 5.37032
    endloop
  endfacet
  facet normal 0 -0.809016 0.587787
    outer loop
      vertex -32.25 1.11472 2.9963
      vertex -29.05 1.29904 3.25
      vertex -32.25 1.29904 3.25
    endloop
  endfacet
  facet normal 0 -0.809016 0.587787
    outer loop
      vertex -29.05 1.29904 3.25
      vertex -32.25 1.11472 2.9963
      vertex -29.05 1.11472 2.9963
    endloop
  endfacet
  facet normal 0 -0.669131 0.743145
    outer loop
      vertex -32.25 1.11472 2.9963
      vertex -29.05 0.881678 2.78647
      vertex -29.05 1.11472 2.9963
    endloop
  endfacet
  facet normal 0 -0.669131 0.743145
    outer loop
      vertex -29.05 0.881678 2.78647
      vertex -32.25 1.11472 2.9963
      vertex -32.25 0.881678 2.78647
    endloop
  endfacet
  facet normal -6.06083e-08 -0.913546 -0.406735
    outer loop
      vertex -32.25 1.38879 4.54841
      vertex -29.05 1.29904 4.75
      vertex -32.25 1.29904 4.75
    endloop
  endfacet
  facet normal -3.60007e-09 -0.913546 -0.406736
    outer loop
      vertex -29.05 1.29904 4.75
      vertex -32.25 1.38879 4.54841
      vertex -29.05 1.39887 4.52577
    endloop
  endfacet
  facet normal 2.66676e-08 -0.809016 -0.587786
    outer loop
      vertex -32.25 1.29904 4.75
      vertex -29.05 1.15477 4.94857
      vertex -32.25 1.16933 4.92853
    endloop
  endfacet
  facet normal -8.75868e-08 -0.809017 -0.587785
    outer loop
      vertex -29.05 1.15477 4.94857
      vertex -32.25 1.29904 4.75
      vertex -29.05 1.29904 4.75
    endloop
  endfacet
  facet normal 0 -0.978148 -0.207912
    outer loop
      vertex -32.25 1.49178 4.15679
      vertex -29.05 1.42658 4.46352
      vertex -32.25 1.42658 4.46352
    endloop
  endfacet
  facet normal 0 -0.978148 -0.207912
    outer loop
      vertex -29.05 1.42658 4.46352
      vertex -32.25 1.49178 4.15679
      vertex -29.05 1.49178 4.15679
    endloop
  endfacet
  facet normal 0 -1 0
    outer loop
      vertex -32.25 1.49178 3.84321
      vertex -29.05 1.49178 4.15679
      vertex -32.25 1.49178 4.15679
    endloop
  endfacet
  facet normal 0 -1 -0
    outer loop
      vertex -29.05 1.49178 4.15679
      vertex -32.25 1.49178 3.84321
      vertex -29.05 1.49178 3.84321
    endloop
  endfacet
  facet normal 0 -0.5 -0.866026
    outer loop
      vertex -32.25 0.610105 5.37032
      vertex -29.05 0.881678 5.21352
      vertex -29.05 0.610105 5.37032
    endloop
  endfacet
  facet normal -0 -0.5 -0.866026
    outer loop
      vertex -29.05 0.881678 5.21352
      vertex -32.25 0.610105 5.37032
      vertex -32.25 0.881678 5.21352
    endloop
  endfacet
  facet normal 0 -0.669131 -0.743145
    outer loop
      vertex -32.25 0.881678 5.21352
      vertex -29.05 1.11472 5.0037
      vertex -29.05 0.881678 5.21352
    endloop
  endfacet
  facet normal -0 -0.669131 -0.743145
    outer loop
      vertex -29.05 1.11472 5.0037
      vertex -32.25 0.881678 5.21352
      vertex -32.25 1.11472 5.0037
    endloop
  endfacet
  facet normal 0 -0.5 0.866026
    outer loop
      vertex -32.25 0.881678 2.78647
      vertex -29.05 0.610105 2.62968
      vertex -29.05 0.881678 2.78647
    endloop
  endfacet
  facet normal 0 -0.5 0.866026
    outer loop
      vertex -29.05 0.610105 2.62968
      vertex -32.25 0.881678 2.78647
      vertex -32.25 0.610105 2.62968
    endloop
  endfacet
  facet normal 0 -0.309018 0.951056
    outer loop
      vertex -32.25 0.610105 2.62968
      vertex -29.05 0.311867 2.53278
      vertex -29.05 0.610105 2.62968
    endloop
  endfacet
  facet normal 0 -0.309018 0.951056
    outer loop
      vertex -29.05 0.311867 2.53278
      vertex -32.25 0.610105 2.62968
      vertex -32.25 0.311867 2.53278
    endloop
  endfacet
  facet normal -4.97075e-10 -0.913546 -0.406736
    outer loop
      vertex -32.25 1.42658 4.46352
      vertex -29.05 1.39887 4.52577
      vertex -32.25 1.38879 4.54841
    endloop
  endfacet
  facet normal 0 -0.913546 -0.406736
    outer loop
      vertex -29.05 1.39887 4.52577
      vertex -32.25 1.42658 4.46352
      vertex -29.05 1.42658 4.46352
    endloop
  endfacet
  facet normal 0 0.104529 -0.994522
    outer loop
      vertex 29.05 -0.311868 5.46722
      vertex 32.25 -0.0924053 5.49029
      vertex 32.25 -0.311868 5.46722
    endloop
  endfacet
  facet normal 6.24791e-08 0.104528 -0.994522
    outer loop
      vertex 32.25 -0.0924053 5.49029
      vertex 29.05 -0.311868 5.46722
      vertex 29.05 -0.0677638 5.49288
    endloop
  endfacet
  facet normal 2.99311e-08 0.104524 -0.994522
    outer loop
      vertex 29.05 -0.0677638 5.49288
      vertex 32.25 2.44249e-15 5.5
      vertex 32.25 -0.0924053 5.49029
    endloop
  endfacet
  facet normal -1.48195e-07 0.104532 -0.994522
    outer loop
      vertex 32.25 2.44249e-15 5.5
      vertex 29.05 -0.0677638 5.49288
      vertex 29.05 2.44249e-15 5.5
    endloop
  endfacet
  facet normal 0 1 -0
    outer loop
      vertex 32.25 -1.49178 3.84321
      vertex 29.05 -1.49178 4.15679
      vertex 32.25 -1.49178 4.15679
    endloop
  endfacet
  facet normal 0 1 0
    outer loop
      vertex 29.05 -1.49178 4.15679
      vertex 32.25 -1.49178 3.84321
      vertex 29.05 -1.49178 3.84321
    endloop
  endfacet
  facet normal 3.00767e-08 -0.104526 0.994522
    outer loop
      vertex 29.05 0.244103 2.52566
      vertex 32.25 -9.53674e-07 2.5
      vertex 32.25 0.219462 2.52307
    endloop
  endfacet
  facet normal 0 -0.104526 0.994522
    outer loop
      vertex 32.25 -9.53674e-07 2.5
      vertex 29.05 0.244103 2.52566
      vertex 29.05 -9.53674e-07 2.5
    endloop
  endfacet
  facet normal -6.06083e-08 0.913546 -0.406736
    outer loop
      vertex 32.25 -1.29904 4.75
      vertex 29.05 -1.32675 4.68775
      vertex 29.05 -1.29904 4.75
    endloop
  endfacet
  facet normal -1.66593e-08 0.913545 -0.406738
    outer loop
      vertex 29.05 -1.32675 4.68775
      vertex 32.25 -1.29904 4.75
      vertex 32.25 -1.33683 4.66512
    endloop
  endfacet
  facet normal 0 0.809016 -0.587787
    outer loop
      vertex 32.25 -1.24443 4.82517
      vertex 29.05 -1.11472 5.0037
      vertex 32.25 -1.11472 5.0037
    endloop
  endfacet
  facet normal 3.28172e-08 0.809016 -0.587787
    outer loop
      vertex 29.05 -1.11472 5.0037
      vertex 32.25 -1.24443 4.82517
      vertex 29.05 -1.25899 4.80512
    endloop
  endfacet
  facet normal 0 -0.978148 0.207912
    outer loop
      vertex 29.05 1.42658 3.53647
      vertex 32.25 1.49178 3.84321
      vertex 29.05 1.49178 3.84321
    endloop
  endfacet
  facet normal 0 -0.978148 0.207912
    outer loop
      vertex 32.25 1.49178 3.84321
      vertex 29.05 1.42658 3.53647
      vertex 32.25 1.42658 3.53647
    endloop
  endfacet
  facet normal 0 -0.669131 -0.743145
    outer loop
      vertex 29.05 0.881678 5.21352
      vertex 32.25 1.11472 5.0037
      vertex 32.25 0.881678 5.21352
    endloop
  endfacet
  facet normal -0 -0.669131 -0.743145
    outer loop
      vertex 32.25 1.11472 5.0037
      vertex 29.05 0.881678 5.21352
      vertex 29.05 1.11472 5.0037
    endloop
  endfacet
  facet normal -0 0.5 0.866026
    outer loop
      vertex 29.05 -0.610106 2.62968
      vertex 32.25 -0.881679 2.78647
      vertex 32.25 -0.610106 2.62968
    endloop
  endfacet
  facet normal 0 0.5 0.866026
    outer loop
      vertex 32.25 -0.881679 2.78647
      vertex 29.05 -0.610106 2.62968
      vertex 29.05 -0.881679 2.78647
    endloop
  endfacet
  facet normal 3.95553e-08 0.809015 -0.587788
    outer loop
      vertex 32.25 -1.24443 4.82517
      vertex 29.05 -1.29904 4.75
      vertex 29.05 -1.25899 4.80512
    endloop
  endfacet
  facet normal -8.75866e-08 0.809018 -0.587784
    outer loop
      vertex 29.05 -1.29904 4.75
      vertex 32.25 -1.24443 4.82517
      vertex 32.25 -1.29904 4.75
    endloop
  endfacet
  facet normal 0 0.309018 -0.951056
    outer loop
      vertex 29.05 -0.610106 5.37032
      vertex 32.25 -0.311868 5.46722
      vertex 32.25 -0.610106 5.37032
    endloop
  endfacet
  facet normal 0 0.309018 -0.951056
    outer loop
      vertex 32.25 -0.311868 5.46722
      vertex 29.05 -0.610106 5.37032
      vertex 29.05 -0.311868 5.46722
    endloop
  endfacet
  facet normal 0 -0.104529 0.994522
    outer loop
      vertex 29.05 0.311867 2.53278
      vertex 32.25 0.219462 2.52307
      vertex 32.25 0.311867 2.53278
    endloop
  endfacet
  facet normal 6.91315e-09 -0.104529 0.994522
    outer loop
      vertex 32.25 0.219462 2.52307
      vertex 29.05 0.311867 2.53278
      vertex 29.05 0.244103 2.52566
    endloop
  endfacet
  facet normal 0 -0.809016 -0.587787
    outer loop
      vertex 29.05 1.11472 5.0037
      vertex 32.25 1.24442 4.82517
      vertex 32.25 1.11472 5.0037
    endloop
  endfacet
  facet normal 3.28172e-08 -0.809016 -0.587787
    outer loop
      vertex 32.25 1.24442 4.82517
      vertex 29.05 1.11472 5.0037
      vertex 29.05 1.25899 4.80512
    endloop
  endfacet
  facet normal 0 -0.309018 -0.951056
    outer loop
      vertex 29.05 0.311867 5.46722
      vertex 32.25 0.610105 5.37032
      vertex 32.25 0.311867 5.46722
    endloop
  endfacet
  facet normal -0 -0.309018 -0.951056
    outer loop
      vertex 32.25 0.610105 5.37032
      vertex 29.05 0.311867 5.46722
      vertex 29.05 0.610105 5.37032
    endloop
  endfacet
  facet normal -0 0.104526 0.994522
    outer loop
      vertex 29.05 -9.53674e-07 2.5
      vertex 32.25 -0.219463 2.52307
      vertex 32.25 -9.53674e-07 2.5
    endloop
  endfacet
  facet normal 2.70175e-08 0.104526 0.994522
    outer loop
      vertex 32.25 -0.219463 2.52307
      vertex 29.05 -9.53674e-07 2.5
      vertex 29.05 -0.244104 2.52566
    endloop
  endfacet
  facet normal 0 0.809017 0.587786
    outer loop
      vertex 32.25 -1.16933 3.07147
      vertex 29.05 -1.29904 3.25
      vertex 32.25 -1.29904 3.25
    endloop
  endfacet
  facet normal 1.98178e-08 0.809016 0.587786
    outer loop
      vertex 29.05 -1.29904 3.25
      vertex 32.25 -1.16933 3.07147
      vertex 29.05 -1.15477 3.05143
    endloop
  endfacet
  facet normal 4.00429e-09 0.913546 0.406736
    outer loop
      vertex 32.25 -1.29904 3.25
      vertex 29.05 -1.39887 3.47423
      vertex 32.25 -1.38879 3.45159
    endloop
  endfacet
  facet normal 0 0.913546 0.406736
    outer loop
      vertex 29.05 -1.39887 3.47423
      vertex 32.25 -1.29904 3.25
      vertex 29.05 -1.29904 3.25
    endloop
  endfacet
  facet normal 0 0.978148 -0.207912
    outer loop
      vertex 32.25 -1.49178 4.15679
      vertex 29.05 -1.42659 4.46352
      vertex 32.25 -1.42659 4.46352
    endloop
  endfacet
  facet normal 0 0.978148 -0.207912
    outer loop
      vertex 29.05 -1.42659 4.46352
      vertex 32.25 -1.49178 4.15679
      vertex 29.05 -1.49178 4.15679
    endloop
  endfacet
  facet normal 9.60595e-09 0.913546 -0.406735
    outer loop
      vertex 32.25 -1.42659 4.46352
      vertex 29.05 -1.32675 4.68775
      vertex 32.25 -1.33683 4.66512
    endloop
  endfacet
  facet normal 0 0.913546 -0.406735
    outer loop
      vertex 29.05 -1.32675 4.68775
      vertex 32.25 -1.42659 4.46352
      vertex 29.05 -1.42659 4.46352
    endloop
  endfacet
  facet normal 0 0.669131 -0.743145
    outer loop
      vertex 29.05 -1.11472 5.0037
      vertex 32.25 -0.881679 5.21352
      vertex 32.25 -1.11472 5.0037
    endloop
  endfacet
  facet normal 0 0.669131 -0.743145
    outer loop
      vertex 32.25 -0.881679 5.21352
      vertex 29.05 -1.11472 5.0037
      vertex 29.05 -0.881679 5.21352
    endloop
  endfacet
  facet normal 6.95199e-08 -0.104529 -0.994522
    outer loop
      vertex 29.05 0.0677636 5.49288
      vertex 32.25 0.311867 5.46722
      vertex 32.25 0.092405 5.49029
    endloop
  endfacet
  facet normal -0 -0.104528 -0.994522
    outer loop
      vertex 32.25 0.311867 5.46722
      vertex 29.05 0.0677636 5.49288
      vertex 29.05 0.311867 5.46722
    endloop
  endfacet
  facet normal -1.48195e-07 -0.104524 -0.994522
    outer loop
      vertex 29.05 2.44249e-15 5.5
      vertex 32.25 0.092405 5.49029
      vertex 32.25 2.44249e-15 5.5
    endloop
  endfacet
  facet normal 9.47486e-08 -0.104532 -0.994521
    outer loop
      vertex 32.25 0.092405 5.49029
      vertex 29.05 2.44249e-15 5.5
      vertex 29.05 0.0677636 5.49288
    endloop
  endfacet
  facet normal 5.03719e-09 0.104529 0.994522
    outer loop
      vertex 29.05 -0.244104 2.52566
      vertex 32.25 -0.311868 2.53278
      vertex 32.25 -0.219463 2.52307
    endloop
  endfacet
  facet normal 0 0.104529 0.994522
    outer loop
      vertex 32.25 -0.311868 2.53278
      vertex 29.05 -0.244104 2.52566
      vertex 29.05 -0.311868 2.53278
    endloop
  endfacet
  facet normal -0 0.309018 0.951056
    outer loop
      vertex 29.05 -0.311868 2.53278
      vertex 32.25 -0.610106 2.62968
      vertex 32.25 -0.311868 2.53278
    endloop
  endfacet
  facet normal 0 0.309018 0.951056
    outer loop
      vertex 32.25 -0.610106 2.62968
      vertex 29.05 -0.311868 2.53278
      vertex 29.05 -0.610106 2.62968
    endloop
  endfacet
  facet normal -0 0.669131 0.743145
    outer loop
      vertex 29.05 -0.881679 2.78647
      vertex 32.25 -1.11472 2.9963
      vertex 32.25 -0.881679 2.78647
    endloop
  endfacet
  facet normal 0 0.669131 0.743145
    outer loop
      vertex 32.25 -1.11472 2.9963
      vertex 29.05 -0.881679 2.78647
      vertex 29.05 -1.11472 2.9963
    endloop
  endfacet
  facet normal 1.47863e-08 0.809016 0.587786
    outer loop
      vertex 32.25 -1.11472 2.9963
      vertex 29.05 -1.15477 3.05143
      vertex 32.25 -1.16933 3.07147
    endloop
  endfacet
  facet normal 0 0.809017 0.587786
    outer loop
      vertex 29.05 -1.15477 3.05143
      vertex 32.25 -1.11472 2.9963
      vertex 29.05 -1.11472 2.9963
    endloop
  endfacet
  facet normal 0 0.913546 0.406734
    outer loop
      vertex 32.25 -1.42659 3.53647
      vertex 29.05 -1.39887 3.47423
      vertex 29.05 -1.42659 3.53647
    endloop
  endfacet
  facet normal -7.58401e-09 0.913546 0.406735
    outer loop
      vertex 29.05 -1.39887 3.47423
      vertex 32.25 -1.42659 3.53647
      vertex 32.25 -1.38879 3.45159
    endloop
  endfacet
  facet normal 0 0.978148 0.207912
    outer loop
      vertex 32.25 -1.42659 3.53647
      vertex 29.05 -1.49178 3.84321
      vertex 32.25 -1.49178 3.84321
    endloop
  endfacet
  facet normal 0 0.978148 0.207912
    outer loop
      vertex 29.05 -1.49178 3.84321
      vertex 32.25 -1.42659 3.53647
      vertex 29.05 -1.42659 3.53647
    endloop
  endfacet
  facet normal 0 0.5 -0.866026
    outer loop
      vertex 29.05 -0.881679 5.21352
      vertex 32.25 -0.610106 5.37032
      vertex 32.25 -0.881679 5.21352
    endloop
  endfacet
  facet normal 0 0.5 -0.866026
    outer loop
      vertex 32.25 -0.610106 5.37032
      vertex 29.05 -0.881679 5.21352
      vertex 29.05 -0.610106 5.37032
    endloop
  endfacet
  facet normal 0 -0.809016 0.587787
    outer loop
      vertex 29.05 1.11472 2.9963
      vertex 32.25 1.29904 3.25
      vertex 29.05 1.29904 3.25
    endloop
  endfacet
  facet normal 0 -0.809016 0.587787
    outer loop
      vertex 32.25 1.29904 3.25
      vertex 29.05 1.11472 2.9963
      vertex 32.25 1.11472 2.9963
    endloop
  endfacet
  facet normal 0 -0.669131 0.743145
    outer loop
      vertex 29.05 1.11472 2.9963
      vertex 32.25 0.881678 2.78647
      vertex 32.25 1.11472 2.9963
    endloop
  endfacet
  facet normal 0 -0.669131 0.743145
    outer loop
      vertex 32.25 0.881678 2.78647
      vertex 29.05 1.11472 2.9963
      vertex 29.05 0.881678 2.78647
    endloop
  endfacet
  facet normal -6.06083e-08 -0.913546 -0.406736
    outer loop
      vertex 29.05 1.32675 4.68775
      vertex 32.25 1.29904 4.75
      vertex 29.05 1.29904 4.75
    endloop
  endfacet
  facet normal -1.66593e-08 -0.913545 -0.406738
    outer loop
      vertex 32.25 1.29904 4.75
      vertex 29.05 1.32675 4.68775
      vertex 32.25 1.33683 4.66512
    endloop
  endfacet
  facet normal 3.95553e-08 -0.809015 -0.587788
    outer loop
      vertex 29.05 1.29904 4.75
      vertex 32.25 1.24442 4.82517
      vertex 29.05 1.25899 4.80512
    endloop
  endfacet
  facet normal -8.75866e-08 -0.809018 -0.587784
    outer loop
      vertex 32.25 1.24442 4.82517
      vertex 29.05 1.29904 4.75
      vertex 32.25 1.29904 4.75
    endloop
  endfacet
  facet normal 0 -0.978148 -0.207912
    outer loop
      vertex 29.05 1.49178 4.15679
      vertex 32.25 1.42658 4.46352
      vertex 29.05 1.42658 4.46352
    endloop
  endfacet
  facet normal 0 -0.978148 -0.207912
    outer loop
      vertex 32.25 1.42658 4.46352
      vertex 29.05 1.49178 4.15679
      vertex 32.25 1.49178 4.15679
    endloop
  endfacet
  facet normal 0 -1 0
    outer loop
      vertex 29.05 1.49178 3.84321
      vertex 32.25 1.49178 4.15679
      vertex 29.05 1.49178 4.15679
    endloop
  endfacet
  facet normal 0 -1 -0
    outer loop
      vertex 32.25 1.49178 4.15679
      vertex 29.05 1.49178 3.84321
      vertex 32.25 1.49178 3.84321
    endloop
  endfacet
  facet normal 0 -0.5 -0.866026
    outer loop
      vertex 29.05 0.610105 5.37032
      vertex 32.25 0.881678 5.21352
      vertex 32.25 0.610105 5.37032
    endloop
  endfacet
  facet normal -0 -0.5 -0.866026
    outer loop
      vertex 32.25 0.881678 5.21352
      vertex 29.05 0.610105 5.37032
      vertex 29.05 0.881678 5.21352
    endloop
  endfacet
  facet normal 0 -0.913546 0.406735
    outer loop
      vertex 29.05 1.29904 3.25
      vertex 32.25 1.42658 3.53647
      vertex 29.05 1.42658 3.53647
    endloop
  endfacet
  facet normal 0 -0.913546 0.406735
    outer loop
      vertex 32.25 1.42658 3.53647
      vertex 29.05 1.29904 3.25
      vertex 32.25 1.29904 3.25
    endloop
  endfacet
  facet normal 0 -0.5 0.866026
    outer loop
      vertex 29.05 0.881678 2.78647
      vertex 32.25 0.610105 2.62968
      vertex 32.25 0.881678 2.78647
    endloop
  endfacet
  facet normal 0 -0.5 0.866026
    outer loop
      vertex 32.25 0.610105 2.62968
      vertex 29.05 0.881678 2.78647
      vertex 29.05 0.610105 2.62968
    endloop
  endfacet
  facet normal 0 -0.309018 0.951056
    outer loop
      vertex 29.05 0.610105 2.62968
      vertex 32.25 0.311867 2.53278
      vertex 32.25 0.610105 2.62968
    endloop
  endfacet
  facet normal 0 -0.309018 0.951056
    outer loop
      vertex 32.25 0.311867 2.53278
      vertex 29.05 0.610105 2.62968
      vertex 29.05 0.311867 2.53278
    endloop
  endfacet
  facet normal 8.63627e-09 -0.913546 -0.406735
    outer loop
      vertex 29.05 1.42658 4.46352
      vertex 32.25 1.33683 4.66512
      vertex 29.05 1.32675 4.68775
    endloop
  endfacet
  facet normal 0 -0.913546 -0.406735
    outer loop
      vertex 32.25 1.33683 4.66512
      vertex 29.05 1.42658 4.46352
      vertex 32.25 1.42658 4.46352
    endloop
  endfacet
endsolid OpenSCAD_Model
