solid OpenSCAD_Model
  facet normal -1 0 0
    outer loop
      vertex -11.4 10.25 42.5
      vertex -11.4 14.25 38.5
      vertex -11.4 14.25 4
    endloop
  endfacet
  facet normal -1 0 0
    outer loop
      vertex -11.4 10.25 42.5
      vertex -11.4 14.25 4
      vertex -11.4 14.25 -4
    endloop
  endfacet
  facet normal -1 0 0
    outer loop
      vertex -11.4 10.25 42.5
      vertex -11.4 14.25 -38.5
      vertex -11.4 10.25 -42.5
    endloop
  endfacet
  facet normal -1 0 0
    outer loop
      vertex -11.4 -14.25 -4
      vertex -11.4 -20.25 -4
      vertex -11.4 -20.25 4
    endloop
  endfacet
  facet normal -1 0 0
    outer loop
      vertex -11.4 -14.25 38.5
      vertex -11.4 -20.25 38.5
      vertex -11.4 -20.25 46.5
    endloop
  endfacet
  facet normal -1 0 0
    outer loop
      vertex -11.4 -10.25 42.5
      vertex -11.4 -20.25 46.5
      vertex -11.4 20.25 46.5
    endloop
  endfacet
  facet normal -1 0 0
    outer loop
      vertex -11.4 14.25 38.5
      vertex -11.4 20.25 46.5
      vertex -11.4 20.25 38.5
    endloop
  endfacet
  facet normal -1 0 0
    outer loop
      vertex -11.4 10.25 42.5
      vertex -11.4 20.25 46.5
      vertex -11.4 14.25 38.5
    endloop
  endfacet
  facet normal -1 0 0
    outer loop
      vertex -11.4 -10.25 -42.5
      vertex -11.4 -14.25 -4
      vertex -11.4 -14.25 4
    endloop
  endfacet
  facet normal -1 0 0
    outer loop
      vertex -11.4 14.25 -4
      vertex -11.4 14.25 4
      vertex -11.4 20.25 -4
    endloop
  endfacet
  facet normal -1 0 0
    outer loop
      vertex -11.4 -14.25 -4
      vertex -11.4 -20.25 4
      vertex -11.4 -14.25 4
    endloop
  endfacet
  facet normal -1 0 0
    outer loop
      vertex -11.4 20.25 -38.5
      vertex -11.4 20.25 -46.5
      vertex -11.4 14.25 -38.5
    endloop
  endfacet
  facet normal -1 0 0
    outer loop
      vertex -11.4 -10.25 42.5
      vertex -11.4 20.25 46.5
      vertex -11.4 10.25 42.5
    endloop
  endfacet
  facet normal -1 0 0
    outer loop
      vertex -11.4 -14.25 38.5
      vertex -11.4 -20.25 46.5
      vertex -11.4 -10.25 42.5
    endloop
  endfacet
  facet normal -1 0 0
    outer loop
      vertex -11.4 -10.25 -42.5
      vertex -11.4 -20.25 -38.5
      vertex -11.4 -14.25 -38.5
    endloop
  endfacet
  facet normal -1 0 0
    outer loop
      vertex -11.4 -20.25 -46.5
      vertex -11.4 -20.25 -38.5
      vertex -11.4 -10.25 -42.5
    endloop
  endfacet
  facet normal -1 0 0
    outer loop
      vertex -11.4 -20.25 -46.5
      vertex -11.4 -10.25 -42.5
      vertex -11.4 20.25 -46.5
    endloop
  endfacet
  facet normal -1 0 0
    outer loop
      vertex -11.4 10.25 42.5
      vertex -11.4 14.25 -4
      vertex -11.4 14.25 -38.5
    endloop
  endfacet
  facet normal -1 0 0
    outer loop
      vertex -11.4 -10.25 -42.5
      vertex -11.4 -14.25 -38.5
      vertex -11.4 -14.25 -4
    endloop
  endfacet
  facet normal -1 0 0
    outer loop
      vertex -11.4 20.25 4
      vertex -11.4 20.25 -4
      vertex -11.4 14.25 4
    endloop
  endfacet
  facet normal -1 0 0
    outer loop
      vertex -11.4 -10.25 -42.5
      vertex -11.4 -14.25 4
      vertex -11.4 -14.25 38.5
    endloop
  endfacet
  facet normal -1 0 0
    outer loop
      vertex -11.4 -10.25 -42.5
      vertex -11.4 -14.25 38.5
      vertex -11.4 -10.25 42.5
    endloop
  endfacet
  facet normal -1 0 0
    outer loop
      vertex -11.4 14.25 -38.5
      vertex -11.4 20.25 -46.5
      vertex -11.4 10.25 -42.5
    endloop
  endfacet
  facet normal -1 0 0
    outer loop
      vertex -11.4 10.25 -42.5
      vertex -11.4 20.25 -46.5
      vertex -11.4 -10.25 -42.5
    endloop
  endfacet
  facet normal 0 -1 0
    outer loop
      vertex -11.4 -20.25 -38.5
      vertex -11.4 -20.25 -46.5
      vertex -7.4 -20.25 -46.5
    endloop
  endfacet
  facet normal 0 -1 0
    outer loop
      vertex -7.4 -20.25 -38.5
      vertex -11.4 -20.25 -38.5
      vertex -7.4 -20.25 -46.5
    endloop
  endfacet
  facet normal 0 0 -1
    outer loop
      vertex -11.4 -20.25 -46.5
      vertex -11.4 20.25 -46.5
      vertex -7.4 -20.25 -46.5
    endloop
  endfacet
  facet normal 0 0 -1
    outer loop
      vertex -7.4 12.85 -46.5
      vertex -11.4 20.25 -46.5
      vertex -7.4 20.25 -46.5
    endloop
  endfacet
  facet normal 0 0 -1
    outer loop
      vertex -7.4 -20.25 -46.5
      vertex -11.4 20.25 -46.5
      vertex -7.4 -12.85 -46.5
    endloop
  endfacet
  facet normal 0 0 -1
    outer loop
      vertex -0.455407 3.16743 -46.5
      vertex 7.4 12.85 -46.5
      vertex 1.32933 2.91082 -46.5
    endloop
  endfacet
  facet normal 0 0 -1
    outer loop
      vertex 7.4 12.85 -46.5
      vertex 7.4 20.25 -46.5
      vertex 11.4 20.25 -46.5
    endloop
  endfacet
  facet normal 0 0 -1
    outer loop
      vertex 7.4 -20.25 -46.5
      vertex 11.4 20.25 -46.5
      vertex 11.4 -20.25 -46.5
    endloop
  endfacet
  facet normal 0 0 -1
    outer loop
      vertex 7.4 -12.85 -46.5
      vertex 11.4 20.25 -46.5
      vertex 7.4 -20.25 -46.5
    endloop
  endfacet
  facet normal 0 0 -1
    outer loop
      vertex 2.69201 -1.73005 -46.5
      vertex 11.4 20.25 -46.5
      vertex 7.4 -12.85 -46.5
    endloop
  endfacet
  facet normal 0 0 -1
    outer loop
      vertex -7.4 12.85 -46.5
      vertex -7.4 -12.85 -46.5
      vertex -11.4 20.25 -46.5
    endloop
  endfacet
  facet normal 0 0 -1
    outer loop
      vertex -7.4 12.85 -46.5
      vertex -3.07038 0.901544 -46.5
      vertex -7.4 -12.85 -46.5
    endloop
  endfacet
  facet normal 0 0 -1
    outer loop
      vertex -2.09555 2.4184 -46.5
      vertex 7.4 12.85 -46.5
      vertex -0.455407 3.16743 -46.5
    endloop
  endfacet
  facet normal 0 0 -1
    outer loop
      vertex -3.07038 0.901544 -46.5
      vertex -3.07038 -0.901544 -46.5
      vertex -7.4 -12.85 -46.5
    endloop
  endfacet
  facet normal 0 0 -1
    outer loop
      vertex -3.07038 -0.901544 -46.5
      vertex -2.09555 -2.4184 -46.5
      vertex -7.4 -12.85 -46.5
    endloop
  endfacet
  facet normal 0 0 -1
    outer loop
      vertex 2.69201 1.73005 -46.5
      vertex 11.4 20.25 -46.5
      vertex 3.2 0 -46.5
    endloop
  endfacet
  facet normal 0 0 -1
    outer loop
      vertex -0.455407 -3.16743 -46.5
      vertex -7.4 -12.85 -46.5
      vertex -2.09555 -2.4184 -46.5
    endloop
  endfacet
  facet normal 0 0 -1
    outer loop
      vertex 3.2 0 -46.5
      vertex 11.4 20.25 -46.5
      vertex 2.69201 -1.73005 -46.5
    endloop
  endfacet
  facet normal 0 0 -1
    outer loop
      vertex 1.32933 -2.91082 -46.5
      vertex 2.69201 -1.73005 -46.5
      vertex 7.4 -12.85 -46.5
    endloop
  endfacet
  facet normal 0 0 -1
    outer loop
      vertex 7.4 12.85 -46.5
      vertex 11.4 20.25 -46.5
      vertex 2.69201 1.73005 -46.5
    endloop
  endfacet
  facet normal 0 0 -1
    outer loop
      vertex -7.4 12.85 -46.5
      vertex 7.4 12.85 -46.5
      vertex -2.09555 2.4184 -46.5
    endloop
  endfacet
  facet normal 0 0 -1
    outer loop
      vertex -7.4 12.85 -46.5
      vertex -2.09555 2.4184 -46.5
      vertex -3.07038 0.901544 -46.5
    endloop
  endfacet
  facet normal 0 0 -1
    outer loop
      vertex 1.32933 2.91082 -46.5
      vertex 7.4 12.85 -46.5
      vertex 2.69201 1.73005 -46.5
    endloop
  endfacet
  facet normal 0 0 -1
    outer loop
      vertex -7.4 -12.85 -46.5
      vertex -0.455407 -3.16743 -46.5
      vertex 1.32933 -2.91082 -46.5
    endloop
  endfacet
  facet normal 0 0 -1
    outer loop
      vertex -7.4 -12.85 -46.5
      vertex 1.32933 -2.91082 -46.5
      vertex 7.4 -12.85 -46.5
    endloop
  endfacet
  facet normal 0 1 0
    outer loop
      vertex -11.4 20.25 -46.5
      vertex -11.4 20.25 -38.5
      vertex -7.4 20.25 -46.5
    endloop
  endfacet
  facet normal 0 1 0
    outer loop
      vertex -7.4 20.25 -46.5
      vertex -11.4 20.25 -38.5
      vertex -7.4 20.25 -38.5
    endloop
  endfacet
  facet normal 0 0 1
    outer loop
      vertex -11.4 20.25 -38.5
      vertex -11.4 14.25 -38.5
      vertex -7.4 14.25 -38.5
    endloop
  endfacet
  facet normal 0 0 1
    outer loop
      vertex -7.4 20.25 -38.5
      vertex -11.4 20.25 -38.5
      vertex -7.4 14.25 -38.5
    endloop
  endfacet
  facet normal 0 1 0
    outer loop
      vertex -11.4 14.25 -38.5
      vertex -11.4 14.25 -4
      vertex -7.4 14.25 -38.5
    endloop
  endfacet
  facet normal 0 1 0
    outer loop
      vertex -7.4 14.25 -38.5
      vertex -11.4 14.25 -4
      vertex -7.4 14.25 -4
    endloop
  endfacet
  facet normal 0 0 -1
    outer loop
      vertex -11.4 14.25 -4
      vertex -11.4 20.25 -4
      vertex -7.4 14.25 -4
    endloop
  endfacet
  facet normal 0 0 -1
    outer loop
      vertex -7.4 14.25 -4
      vertex -11.4 20.25 -4
      vertex -7.4 20.25 -4
    endloop
  endfacet
  facet normal 0 1 0
    outer loop
      vertex -11.4 20.25 -4
      vertex -11.4 20.25 4
      vertex -7.4 20.25 -4
    endloop
  endfacet
  facet normal 0 1 0
    outer loop
      vertex -7.4 20.25 -4
      vertex -11.4 20.25 4
      vertex -7.4 20.25 4
    endloop
  endfacet
  facet normal 0 0 1
    outer loop
      vertex -11.4 20.25 4
      vertex -11.4 14.25 4
      vertex -7.4 14.25 4
    endloop
  endfacet
  facet normal 0 0 1
    outer loop
      vertex -7.4 20.25 4
      vertex -11.4 20.25 4
      vertex -7.4 14.25 4
    endloop
  endfacet
  facet normal 0 1 0
    outer loop
      vertex -11.4 14.25 4
      vertex -11.4 14.25 38.5
      vertex -7.4 14.25 4
    endloop
  endfacet
  facet normal 0 1 0
    outer loop
      vertex -7.4 14.25 4
      vertex -11.4 14.25 38.5
      vertex -7.4 14.25 38.5
    endloop
  endfacet
  facet normal 0 0 -1
    outer loop
      vertex -11.4 14.25 38.5
      vertex -11.4 20.25 38.5
      vertex -7.4 14.25 38.5
    endloop
  endfacet
  facet normal 0 0 -1
    outer loop
      vertex -7.4 14.25 38.5
      vertex -11.4 20.25 38.5
      vertex -7.4 20.25 38.5
    endloop
  endfacet
  facet normal 0 1 0
    outer loop
      vertex -11.4 20.25 38.5
      vertex -11.4 20.25 46.5
      vertex -7.4 20.25 38.5
    endloop
  endfacet
  facet normal 0 1 0
    outer loop
      vertex -7.4 20.25 38.5
      vertex -11.4 20.25 46.5
      vertex -7.4 20.25 46.5
    endloop
  endfacet
  facet normal 0 0 1
    outer loop
      vertex -8.6 -10.6 46.5
      vertex -11.4 -20.25 46.5
      vertex -7.4 -20.25 46.5
    endloop
  endfacet
  facet normal 0 0 1
    outer loop
      vertex -8.6 10.6 46.5
      vertex 8.6 10.6 46.5
      vertex 7.4 12.85 46.5
    endloop
  endfacet
  facet normal 0 0 1
    outer loop
      vertex -8.6 10.6 46.5
      vertex 7.4 12.85 46.5
      vertex -7.4 12.85 46.5
    endloop
  endfacet
  facet normal 0 0 1
    outer loop
      vertex -7.4 12.85 46.5
      vertex -7.4 20.25 46.5
      vertex -11.4 20.25 46.5
    endloop
  endfacet
  facet normal 0 0 1
    outer loop
      vertex 11.4 -20.25 46.5
      vertex 7.4 -12.85 46.5
      vertex 7.4 -20.25 46.5
    endloop
  endfacet
  facet normal 0 0 1
    outer loop
      vertex 8.6 -10.6 46.5
      vertex 7.4 -12.85 46.5
      vertex 11.4 -20.25 46.5
    endloop
  endfacet
  facet normal 0 0 1
    outer loop
      vertex 11.4 20.25 46.5
      vertex 7.4 20.25 46.5
      vertex 7.4 12.85 46.5
    endloop
  endfacet
  facet normal 0 0 1
    outer loop
      vertex -8.6 -10.6 46.5
      vertex -8.6 10.6 46.5
      vertex -11.4 20.25 46.5
    endloop
  endfacet
  facet normal 0 0 1
    outer loop
      vertex -11.4 20.25 46.5
      vertex -11.4 -20.25 46.5
      vertex -8.6 -10.6 46.5
    endloop
  endfacet
  facet normal 0 0 1
    outer loop
      vertex -7.4 12.85 46.5
      vertex -11.4 20.25 46.5
      vertex -8.6 10.6 46.5
    endloop
  endfacet
  facet normal 0 0 1
    outer loop
      vertex 11.4 20.25 46.5
      vertex 7.4 12.85 46.5
      vertex 8.6 10.6 46.5
    endloop
  endfacet
  facet normal 0 0 1
    outer loop
      vertex 11.4 20.25 46.5
      vertex 8.6 -10.6 46.5
      vertex 11.4 -20.25 46.5
    endloop
  endfacet
  facet normal 0 0 1
    outer loop
      vertex 8.6 10.6 46.5
      vertex 8.6 -10.6 46.5
      vertex 11.4 20.25 46.5
    endloop
  endfacet
  facet normal 0 0 1
    outer loop
      vertex 8.6 -10.6 46.5
      vertex -7.4 -12.85 46.5
      vertex 7.4 -12.85 46.5
    endloop
  endfacet
  facet normal 0 0 1
    outer loop
      vertex -7.4 -12.85 46.5
      vertex -8.6 -10.6 46.5
      vertex -7.4 -20.25 46.5
    endloop
  endfacet
  facet normal 0 0 1
    outer loop
      vertex 8.6 -10.6 46.5
      vertex -8.6 -10.6 46.5
      vertex -7.4 -12.85 46.5
    endloop
  endfacet
  facet normal 0 -1 0
    outer loop
      vertex -11.4 -20.25 46.5
      vertex -11.4 -20.25 38.5
      vertex -7.4 -20.25 38.5
    endloop
  endfacet
  facet normal 0 -1 0
    outer loop
      vertex -7.4 -20.25 46.5
      vertex -11.4 -20.25 46.5
      vertex -7.4 -20.25 38.5
    endloop
  endfacet
  facet normal 0 0 -1
    outer loop
      vertex -11.4 -20.25 38.5
      vertex -11.4 -14.25 38.5
      vertex -7.4 -20.25 38.5
    endloop
  endfacet
  facet normal 0 0 -1
    outer loop
      vertex -7.4 -20.25 38.5
      vertex -11.4 -14.25 38.5
      vertex -7.4 -14.25 38.5
    endloop
  endfacet
  facet normal 0 -1 0
    outer loop
      vertex -11.4 -14.25 38.5
      vertex -11.4 -14.25 4
      vertex -7.4 -14.25 4
    endloop
  endfacet
  facet normal 0 -1 0
    outer loop
      vertex -7.4 -14.25 38.5
      vertex -11.4 -14.25 38.5
      vertex -7.4 -14.25 4
    endloop
  endfacet
  facet normal 0 0 1
    outer loop
      vertex -11.4 -14.25 4
      vertex -11.4 -20.25 4
      vertex -7.4 -20.25 4
    endloop
  endfacet
  facet normal 0 0 1
    outer loop
      vertex -7.4 -14.25 4
      vertex -11.4 -14.25 4
      vertex -7.4 -20.25 4
    endloop
  endfacet
  facet normal 0 -1 0
    outer loop
      vertex -11.4 -20.25 4
      vertex -11.4 -20.25 -4
      vertex -7.4 -20.25 -4
    endloop
  endfacet
  facet normal 0 -1 0
    outer loop
      vertex -7.4 -20.25 4
      vertex -11.4 -20.25 4
      vertex -7.4 -20.25 -4
    endloop
  endfacet
  facet normal 0 0 -1
    outer loop
      vertex -11.4 -20.25 -4
      vertex -11.4 -14.25 -4
      vertex -7.4 -20.25 -4
    endloop
  endfacet
  facet normal 0 0 -1
    outer loop
      vertex -7.4 -20.25 -4
      vertex -11.4 -14.25 -4
      vertex -7.4 -14.25 -4
    endloop
  endfacet
  facet normal 0 -1 0
    outer loop
      vertex -11.4 -14.25 -4
      vertex -11.4 -14.25 -38.5
      vertex -7.4 -14.25 -38.5
    endloop
  endfacet
  facet normal 0 -1 0
    outer loop
      vertex -7.4 -14.25 -4
      vertex -11.4 -14.25 -4
      vertex -7.4 -14.25 -38.5
    endloop
  endfacet
  facet normal 0 0 1
    outer loop
      vertex -11.4 -14.25 -38.5
      vertex -11.4 -20.25 -38.5
      vertex -7.4 -20.25 -38.5
    endloop
  endfacet
  facet normal 0 0 1
    outer loop
      vertex -7.4 -14.25 -38.5
      vertex -11.4 -14.25 -38.5
      vertex -7.4 -20.25 -38.5
    endloop
  endfacet
  facet normal 0 0 -1
    outer loop
      vertex -0.455407 3.16743 42.5
      vertex -11.4 10.25 42.5
      vertex 1.32933 2.91082 42.5
    endloop
  endfacet
  facet normal 0 0 -1
    outer loop
      vertex -2.09555 -2.4184 42.5
      vertex 11.4 -10.25 42.5
      vertex -11.4 -10.25 42.5
    endloop
  endfacet
  facet normal 0 0 -1
    outer loop
      vertex 2.69201 -1.73005 42.5
      vertex 11.4 -10.25 42.5
      vertex 1.32933 -2.91082 42.5
    endloop
  endfacet
  facet normal 0 0 -1
    outer loop
      vertex -11.4 10.25 42.5
      vertex -3.07038 -0.901544 42.5
      vertex -11.4 -10.25 42.5
    endloop
  endfacet
  facet normal 0 0 -1
    outer loop
      vertex -0.455407 -3.16743 42.5
      vertex 11.4 -10.25 42.5
      vertex -2.09555 -2.4184 42.5
    endloop
  endfacet
  facet normal 0 0 -1
    outer loop
      vertex -3.07038 -0.901544 42.5
      vertex -2.09555 -2.4184 42.5
      vertex -11.4 -10.25 42.5
    endloop
  endfacet
  facet normal 0 0 -1
    outer loop
      vertex 11.4 10.25 42.5
      vertex 11.4 -10.25 42.5
      vertex 2.69201 -1.73005 42.5
    endloop
  endfacet
  facet normal 0 0 -1
    outer loop
      vertex 11.4 10.25 42.5
      vertex 2.69201 -1.73005 42.5
      vertex 3.2 0 42.5
    endloop
  endfacet
  facet normal 0 0 -1
    outer loop
      vertex 11.4 10.25 42.5
      vertex 3.2 0 42.5
      vertex 2.69201 1.73005 42.5
    endloop
  endfacet
  facet normal 0 0 -1
    outer loop
      vertex 11.4 10.25 42.5
      vertex 2.69201 1.73005 42.5
      vertex 1.32933 2.91082 42.5
    endloop
  endfacet
  facet normal 0 0 -1
    outer loop
      vertex 11.4 10.25 42.5
      vertex 1.32933 2.91082 42.5
      vertex -11.4 10.25 42.5
    endloop
  endfacet
  facet normal 0 0 -1
    outer loop
      vertex -2.09555 2.4184 42.5
      vertex -11.4 10.25 42.5
      vertex -0.455407 3.16743 42.5
    endloop
  endfacet
  facet normal 0 0 -1
    outer loop
      vertex -3.07038 0.901544 42.5
      vertex -11.4 10.25 42.5
      vertex -2.09555 2.4184 42.5
    endloop
  endfacet
  facet normal 0 0 -1
    outer loop
      vertex -11.4 10.25 42.5
      vertex -3.07038 0.901544 42.5
      vertex -3.07038 -0.901544 42.5
    endloop
  endfacet
  facet normal 0 0 -1
    outer loop
      vertex 1.32933 -2.91082 42.5
      vertex 11.4 -10.25 42.5
      vertex -0.455407 -3.16743 42.5
    endloop
  endfacet
  facet normal 0 1 0
    outer loop
      vertex 11.4 -10.25 42.5
      vertex 11.4 -10.25 -42.5
      vertex -11.4 -10.25 42.5
    endloop
  endfacet
  facet normal 0 1 0
    outer loop
      vertex -11.4 -10.25 42.5
      vertex 11.4 -10.25 -42.5
      vertex -11.4 -10.25 -42.5
    endloop
  endfacet
  facet normal 0 -1 0
    outer loop
      vertex 11.4 10.25 -42.5
      vertex 11.4 10.25 42.5
      vertex -11.4 10.25 42.5
    endloop
  endfacet
  facet normal 0 -1 0
    outer loop
      vertex -11.4 10.25 -42.5
      vertex 11.4 10.25 -42.5
      vertex -11.4 10.25 42.5
    endloop
  endfacet
  facet normal 0 0 1
    outer loop
      vertex -2.09555 2.4184 -42.5
      vertex 11.4 10.25 -42.5
      vertex -11.4 10.25 -42.5
    endloop
  endfacet
  facet normal 0 0 1
    outer loop
      vertex 2.69201 1.73005 -42.5
      vertex 3.2 0 -42.5
      vertex 11.4 -10.25 -42.5
    endloop
  endfacet
  facet normal 0 0 1
    outer loop
      vertex -11.4 -10.25 -42.5
      vertex -3.07038 0.901544 -42.5
      vertex -11.4 10.25 -42.5
    endloop
  endfacet
  facet normal 0 0 1
    outer loop
      vertex -0.455407 3.16743 -42.5
      vertex 11.4 10.25 -42.5
      vertex -2.09555 2.4184 -42.5
    endloop
  endfacet
  facet normal 0 0 1
    outer loop
      vertex 1.32933 2.91082 -42.5
      vertex 11.4 10.25 -42.5
      vertex -0.455407 3.16743 -42.5
    endloop
  endfacet
  facet normal 0 0 1
    outer loop
      vertex 2.69201 1.73005 -42.5
      vertex 11.4 10.25 -42.5
      vertex 1.32933 2.91082 -42.5
    endloop
  endfacet
  facet normal 0 0 1
    outer loop
      vertex 3.2 0 -42.5
      vertex 2.69201 -1.73005 -42.5
      vertex 11.4 -10.25 -42.5
    endloop
  endfacet
  facet normal 0 0 1
    outer loop
      vertex 11.4 -10.25 -42.5
      vertex 11.4 10.25 -42.5
      vertex 2.69201 1.73005 -42.5
    endloop
  endfacet
  facet normal 0 0 1
    outer loop
      vertex -11.4 -10.25 -42.5
      vertex 11.4 -10.25 -42.5
      vertex 1.32933 -2.91082 -42.5
    endloop
  endfacet
  facet normal 0 0 1
    outer loop
      vertex -11.4 -10.25 -42.5
      vertex 1.32933 -2.91082 -42.5
      vertex -0.455407 -3.16743 -42.5
    endloop
  endfacet
  facet normal 0 0 1
    outer loop
      vertex -11.4 -10.25 -42.5
      vertex -0.455407 -3.16743 -42.5
      vertex -2.09555 -2.4184 -42.5
    endloop
  endfacet
  facet normal 0 0 1
    outer loop
      vertex -11.4 -10.25 -42.5
      vertex -3.07038 -0.901544 -42.5
      vertex -3.07038 0.901544 -42.5
    endloop
  endfacet
  facet normal 0 0 1
    outer loop
      vertex -11.4 -10.25 -42.5
      vertex -2.09555 -2.4184 -42.5
      vertex -3.07038 -0.901544 -42.5
    endloop
  endfacet
  facet normal 0 0 1
    outer loop
      vertex -3.07038 0.901544 -42.5
      vertex -2.09555 2.4184 -42.5
      vertex -11.4 10.25 -42.5
    endloop
  endfacet
  facet normal 0 0 1
    outer loop
      vertex 2.69201 -1.73005 -42.5
      vertex 1.32933 -2.91082 -42.5
      vertex 11.4 -10.25 -42.5
    endloop
  endfacet
  facet normal 1 0 0
    outer loop
      vertex -7.4 -14.25 38.5
      vertex -7.4 -12.85 46.5
      vertex -7.4 -20.25 46.5
    endloop
  endfacet
  facet normal 1 0 0
    outer loop
      vertex -7.4 -12.85 -46.5
      vertex -7.4 -12.85 46.5
      vertex -7.4 -14.25 38.5
    endloop
  endfacet
  facet normal 1 0 0
    outer loop
      vertex -7.4 -12.85 -46.5
      vertex -7.4 -14.25 38.5
      vertex -7.4 -14.25 4
    endloop
  endfacet
  facet normal 1 0 0
    outer loop
      vertex -7.4 -14.25 -4
      vertex -7.4 -14.25 -38.5
      vertex -7.4 -12.85 -46.5
    endloop
  endfacet
  facet normal 1 0 0
    outer loop
      vertex -7.4 -14.25 4
      vertex -7.4 -20.25 4
      vertex -7.4 -14.25 -4
    endloop
  endfacet
  facet normal 1 0 0
    outer loop
      vertex -7.4 -12.85 -46.5
      vertex -7.4 -14.25 4
      vertex -7.4 -14.25 -4
    endloop
  endfacet
  facet normal 1 0 0
    outer loop
      vertex -7.4 -20.25 -38.5
      vertex -7.4 -12.85 -46.5
      vertex -7.4 -14.25 -38.5
    endloop
  endfacet
  facet normal 1 0 0
    outer loop
      vertex -7.4 -20.25 -46.5
      vertex -7.4 -12.85 -46.5
      vertex -7.4 -20.25 -38.5
    endloop
  endfacet
  facet normal 1 0 0
    outer loop
      vertex -7.4 -20.25 -4
      vertex -7.4 -14.25 -4
      vertex -7.4 -20.25 4
    endloop
  endfacet
  facet normal 1 0 0
    outer loop
      vertex -7.4 -20.25 38.5
      vertex -7.4 -14.25 38.5
      vertex -7.4 -20.25 46.5
    endloop
  endfacet
  facet normal 0 -1 0
    outer loop
      vertex 7.4 -12.85 -46.5
      vertex 7.4 -12.85 46.5
      vertex -7.4 -12.85 46.5
    endloop
  endfacet
  facet normal 0 -1 0
    outer loop
      vertex -7.4 -12.85 -46.5
      vertex 7.4 -12.85 -46.5
      vertex -7.4 -12.85 46.5
    endloop
  endfacet
  facet normal -1 0 0
    outer loop
      vertex 7.4 -20.25 4
      vertex 7.4 -14.25 -4
      vertex 7.4 -20.25 -4
    endloop
  endfacet
  facet normal -1 0 0
    outer loop
      vertex 7.4 -14.25 4
      vertex 7.4 -14.25 -4
      vertex 7.4 -20.25 4
    endloop
  endfacet
  facet normal -1 0 0
    outer loop
      vertex 7.4 -14.25 -38.5
      vertex 7.4 -14.25 -4
      vertex 7.4 -12.85 46.5
    endloop
  endfacet
  facet normal -1 0 0
    outer loop
      vertex 7.4 -14.25 -4
      vertex 7.4 -14.25 4
      vertex 7.4 -12.85 46.5
    endloop
  endfacet
  facet normal -1 0 0
    outer loop
      vertex 7.4 -20.25 46.5
      vertex 7.4 -14.25 38.5
      vertex 7.4 -20.25 38.5
    endloop
  endfacet
  facet normal -1 0 0
    outer loop
      vertex 7.4 -12.85 46.5
      vertex 7.4 -14.25 38.5
      vertex 7.4 -20.25 46.5
    endloop
  endfacet
  facet normal -1 0 0
    outer loop
      vertex 7.4 -14.25 4
      vertex 7.4 -14.25 38.5
      vertex 7.4 -12.85 46.5
    endloop
  endfacet
  facet normal -1 0 0
    outer loop
      vertex 7.4 -14.25 -38.5
      vertex 7.4 -12.85 46.5
      vertex 7.4 -12.85 -46.5
    endloop
  endfacet
  facet normal -1 0 0
    outer loop
      vertex 7.4 -14.25 -38.5
      vertex 7.4 -12.85 -46.5
      vertex 7.4 -20.25 -38.5
    endloop
  endfacet
  facet normal -1 0 0
    outer loop
      vertex 7.4 -12.85 -46.5
      vertex 7.4 -20.25 -46.5
      vertex 7.4 -20.25 -38.5
    endloop
  endfacet
  facet normal 0 -1 0
    outer loop
      vertex 7.4 -20.25 -38.5
      vertex 7.4 -20.25 -46.5
      vertex 11.4 -20.25 -46.5
    endloop
  endfacet
  facet normal 0 -1 0
    outer loop
      vertex 11.4 -20.25 -38.5
      vertex 7.4 -20.25 -38.5
      vertex 11.4 -20.25 -46.5
    endloop
  endfacet
  facet normal 1 0 0
    outer loop
      vertex 11.4 -10.25 -42.5
      vertex 11.4 -20.25 -46.5
      vertex 11.4 20.25 -46.5
    endloop
  endfacet
  facet normal 1 0 0
    outer loop
      vertex 11.4 14.25 4
      vertex 11.4 14.25 -4
      vertex 11.4 20.25 4
    endloop
  endfacet
  facet normal 1 0 0
    outer loop
      vertex 11.4 20.25 -38.5
      vertex 11.4 14.25 -38.5
      vertex 11.4 20.25 -46.5
    endloop
  endfacet
  facet normal 1 0 0
    outer loop
      vertex 11.4 20.25 -4
      vertex 11.4 20.25 4
      vertex 11.4 14.25 -4
    endloop
  endfacet
  facet normal 1 0 0
    outer loop
      vertex 11.4 10.25 -42.5
      vertex 11.4 -10.25 -42.5
      vertex 11.4 20.25 -46.5
    endloop
  endfacet
  facet normal 1 0 0
    outer loop
      vertex 11.4 20.25 38.5
      vertex 11.4 20.25 46.5
      vertex 11.4 14.25 38.5
    endloop
  endfacet
  facet normal 1 0 0
    outer loop
      vertex 11.4 -14.25 38.5
      vertex 11.4 -20.25 46.5
      vertex 11.4 -20.25 38.5
    endloop
  endfacet
  facet normal 1 0 0
    outer loop
      vertex 11.4 10.25 42.5
      vertex 11.4 10.25 -42.5
      vertex 11.4 14.25 -38.5
    endloop
  endfacet
  facet normal 1 0 0
    outer loop
      vertex 11.4 -10.25 42.5
      vertex 11.4 -20.25 46.5
      vertex 11.4 -14.25 38.5
    endloop
  endfacet
  facet normal 1 0 0
    outer loop
      vertex 11.4 -10.25 42.5
      vertex 11.4 10.25 42.5
      vertex 11.4 -20.25 46.5
    endloop
  endfacet
  facet normal 1 0 0
    outer loop
      vertex 11.4 -20.25 -4
      vertex 11.4 -14.25 -4
      vertex 11.4 -14.25 4
    endloop
  endfacet
  facet normal 1 0 0
    outer loop
      vertex 11.4 10.25 42.5
      vertex 11.4 14.25 -4
      vertex 11.4 14.25 4
    endloop
  endfacet
  facet normal 1 0 0
    outer loop
      vertex 11.4 -10.25 -42.5
      vertex 11.4 -14.25 -38.5
      vertex 11.4 -20.25 -38.5
    endloop
  endfacet
  facet normal 1 0 0
    outer loop
      vertex 11.4 -20.25 -38.5
      vertex 11.4 -20.25 -46.5
      vertex 11.4 -10.25 -42.5
    endloop
  endfacet
  facet normal 1 0 0
    outer loop
      vertex 11.4 10.25 42.5
      vertex 11.4 14.25 4
      vertex 11.4 14.25 38.5
    endloop
  endfacet
  facet normal 1 0 0
    outer loop
      vertex 11.4 20.25 46.5
      vertex 11.4 10.25 42.5
      vertex 11.4 14.25 38.5
    endloop
  endfacet
  facet normal 1 0 0
    outer loop
      vertex 11.4 20.25 46.5
      vertex 11.4 -20.25 46.5
      vertex 11.4 10.25 42.5
    endloop
  endfacet
  facet normal 1 0 0
    outer loop
      vertex 11.4 14.25 -38.5
      vertex 11.4 10.25 -42.5
      vertex 11.4 20.25 -46.5
    endloop
  endfacet
  facet normal 1 0 0
    outer loop
      vertex 11.4 10.25 42.5
      vertex 11.4 14.25 -38.5
      vertex 11.4 14.25 -4
    endloop
  endfacet
  facet normal 1 0 0
    outer loop
      vertex 11.4 -14.25 4
      vertex 11.4 -20.25 4
      vertex 11.4 -20.25 -4
    endloop
  endfacet
  facet normal 1 0 0
    outer loop
      vertex 11.4 -10.25 -42.5
      vertex 11.4 -14.25 -4
      vertex 11.4 -14.25 -38.5
    endloop
  endfacet
  facet normal 1 0 0
    outer loop
      vertex 11.4 -10.25 -42.5
      vertex 11.4 -14.25 4
      vertex 11.4 -14.25 -4
    endloop
  endfacet
  facet normal 1 0 0
    outer loop
      vertex 11.4 -10.25 -42.5
      vertex 11.4 -14.25 38.5
      vertex 11.4 -14.25 4
    endloop
  endfacet
  facet normal 1 0 0
    outer loop
      vertex 11.4 -10.25 -42.5
      vertex 11.4 -10.25 42.5
      vertex 11.4 -14.25 38.5
    endloop
  endfacet
  facet normal 0 1 0
    outer loop
      vertex 7.4 20.25 -46.5
      vertex 7.4 20.25 -38.5
      vertex 11.4 20.25 -46.5
    endloop
  endfacet
  facet normal 0 1 0
    outer loop
      vertex 11.4 20.25 -46.5
      vertex 7.4 20.25 -38.5
      vertex 11.4 20.25 -38.5
    endloop
  endfacet
  facet normal -1 0 0
    outer loop
      vertex 7.4 20.25 46.5
      vertex 7.4 20.25 38.5
      vertex 7.4 12.85 46.5
    endloop
  endfacet
  facet normal -1 0 0
    outer loop
      vertex 7.4 12.85 46.5
      vertex 7.4 20.25 38.5
      vertex 7.4 14.25 38.5
    endloop
  endfacet
  facet normal -1 0 0
    outer loop
      vertex 7.4 12.85 46.5
      vertex 7.4 14.25 38.5
      vertex 7.4 14.25 4
    endloop
  endfacet
  facet normal -1 0 0
    outer loop
      vertex 7.4 14.25 4
      vertex 7.4 20.25 4
      vertex 7.4 20.25 -4
    endloop
  endfacet
  facet normal -1 0 0
    outer loop
      vertex 7.4 14.25 4
      vertex 7.4 20.25 -4
      vertex 7.4 14.25 -4
    endloop
  endfacet
  facet normal -1 0 0
    outer loop
      vertex 7.4 14.25 4
      vertex 7.4 14.25 -4
      vertex 7.4 12.85 46.5
    endloop
  endfacet
  facet normal -1 0 0
    outer loop
      vertex 7.4 14.25 -4
      vertex 7.4 14.25 -38.5
      vertex 7.4 12.85 46.5
    endloop
  endfacet
  facet normal -1 0 0
    outer loop
      vertex 7.4 14.25 -38.5
      vertex 7.4 20.25 -38.5
      vertex 7.4 20.25 -46.5
    endloop
  endfacet
  facet normal -1 0 0
    outer loop
      vertex 7.4 14.25 -38.5
      vertex 7.4 20.25 -46.5
      vertex 7.4 12.85 -46.5
    endloop
  endfacet
  facet normal -1 0 0
    outer loop
      vertex 7.4 14.25 -38.5
      vertex 7.4 12.85 -46.5
      vertex 7.4 12.85 46.5
    endloop
  endfacet
  facet normal 0 1 0
    outer loop
      vertex 7.4 12.85 46.5
      vertex 7.4 12.85 -46.5
      vertex -7.4 12.85 46.5
    endloop
  endfacet
  facet normal 0 1 0
    outer loop
      vertex -7.4 12.85 46.5
      vertex 7.4 12.85 -46.5
      vertex -7.4 12.85 -46.5
    endloop
  endfacet
  facet normal 1 0 0
    outer loop
      vertex -7.4 14.25 -4
      vertex -7.4 12.85 46.5
      vertex -7.4 14.25 -38.5
    endloop
  endfacet
  facet normal 1 0 0
    outer loop
      vertex -7.4 20.25 -46.5
      vertex -7.4 20.25 -38.5
      vertex -7.4 14.25 -38.5
    endloop
  endfacet
  facet normal 1 0 0
    outer loop
      vertex -7.4 14.25 4
      vertex -7.4 12.85 46.5
      vertex -7.4 14.25 -4
    endloop
  endfacet
  facet normal 1 0 0
    outer loop
      vertex -7.4 12.85 -46.5
      vertex -7.4 20.25 -46.5
      vertex -7.4 14.25 -38.5
    endloop
  endfacet
  facet normal 1 0 0
    outer loop
      vertex -7.4 20.25 -4
      vertex -7.4 20.25 4
      vertex -7.4 14.25 -4
    endloop
  endfacet
  facet normal 1 0 0
    outer loop
      vertex -7.4 20.25 4
      vertex -7.4 14.25 4
      vertex -7.4 14.25 -4
    endloop
  endfacet
  facet normal 1 0 0
    outer loop
      vertex -7.4 14.25 38.5
      vertex -7.4 12.85 46.5
      vertex -7.4 14.25 4
    endloop
  endfacet
  facet normal 1 0 0
    outer loop
      vertex -7.4 20.25 38.5
      vertex -7.4 20.25 46.5
      vertex -7.4 14.25 38.5
    endloop
  endfacet
  facet normal 1 0 0
    outer loop
      vertex -7.4 20.25 46.5
      vertex -7.4 12.85 46.5
      vertex -7.4 14.25 38.5
    endloop
  endfacet
  facet normal 1 0 0
    outer loop
      vertex -7.4 12.85 46.5
      vertex -7.4 12.85 -46.5
      vertex -7.4 14.25 -38.5
    endloop
  endfacet
  facet normal 0.841253 -0.540641 0
    outer loop
      vertex -2.09555 2.4184 -46.5
      vertex -2.09555 2.4184 -42.5
      vertex -3.07038 0.901544 -42.5
    endloop
  endfacet
  facet normal 0.841253 -0.540641 0
    outer loop
      vertex -3.07038 0.901544 -46.5
      vertex -2.09555 2.4184 -46.5
      vertex -3.07038 0.901544 -42.5
    endloop
  endfacet
  facet normal 1 0 0
    outer loop
      vertex -3.07038 0.901544 -46.5
      vertex -3.07038 0.901544 -42.5
      vertex -3.07038 -0.901544 -42.5
    endloop
  endfacet
  facet normal 1 0 0
    outer loop
      vertex -3.07038 -0.901544 -46.5
      vertex -3.07038 0.901544 -46.5
      vertex -3.07038 -0.901544 -42.5
    endloop
  endfacet
  facet normal 0.415415 -0.909632 0
    outer loop
      vertex -0.455407 3.16743 -46.5
      vertex -0.455407 3.16743 -42.5
      vertex -2.09555 2.4184 -42.5
    endloop
  endfacet
  facet normal 0.415415 -0.909632 0
    outer loop
      vertex -2.09555 2.4184 -46.5
      vertex -0.455407 3.16743 -46.5
      vertex -2.09555 2.4184 -42.5
    endloop
  endfacet
  facet normal -0.142315 -0.989821 0
    outer loop
      vertex 1.32933 2.91082 -46.5
      vertex 1.32933 2.91082 -42.5
      vertex -0.455407 3.16743 -42.5
    endloop
  endfacet
  facet normal -0.142315 -0.989821 0
    outer loop
      vertex -0.455407 3.16743 -46.5
      vertex 1.32933 2.91082 -46.5
      vertex -0.455407 3.16743 -42.5
    endloop
  endfacet
  facet normal -0.654861 -0.75575 0
    outer loop
      vertex 2.69201 1.73005 -46.5
      vertex 2.69201 1.73005 -42.5
      vertex 1.32933 2.91082 -42.5
    endloop
  endfacet
  facet normal -0.654861 -0.75575 0
    outer loop
      vertex 1.32933 2.91082 -46.5
      vertex 2.69201 1.73005 -46.5
      vertex 1.32933 2.91082 -42.5
    endloop
  endfacet
  facet normal -0.959493 -0.281733 0
    outer loop
      vertex 3.2 0 -42.5
      vertex 2.69201 1.73005 -42.5
      vertex 3.2 0 -46.5
    endloop
  endfacet
  facet normal -0.959493 -0.281733 0
    outer loop
      vertex 3.2 0 -46.5
      vertex 2.69201 1.73005 -42.5
      vertex 2.69201 1.73005 -46.5
    endloop
  endfacet
  facet normal -0.959493 0.281733 0
    outer loop
      vertex 3.2 0 -42.5
      vertex 3.2 0 -46.5
      vertex 2.69201 -1.73005 -42.5
    endloop
  endfacet
  facet normal -0.959493 0.281733 0
    outer loop
      vertex 2.69201 -1.73005 -42.5
      vertex 3.2 0 -46.5
      vertex 2.69201 -1.73005 -46.5
    endloop
  endfacet
  facet normal -0.654861 0.75575 0
    outer loop
      vertex 2.69201 -1.73005 -42.5
      vertex 2.69201 -1.73005 -46.5
      vertex 1.32933 -2.91082 -42.5
    endloop
  endfacet
  facet normal -0.654861 0.75575 0
    outer loop
      vertex 1.32933 -2.91082 -42.5
      vertex 2.69201 -1.73005 -46.5
      vertex 1.32933 -2.91082 -46.5
    endloop
  endfacet
  facet normal -0.142315 0.989821 0
    outer loop
      vertex 1.32933 -2.91082 -42.5
      vertex 1.32933 -2.91082 -46.5
      vertex -0.455407 -3.16743 -42.5
    endloop
  endfacet
  facet normal -0.142315 0.989821 0
    outer loop
      vertex -0.455407 -3.16743 -42.5
      vertex 1.32933 -2.91082 -46.5
      vertex -0.455407 -3.16743 -46.5
    endloop
  endfacet
  facet normal 0.415415 0.909632 0
    outer loop
      vertex -0.455407 -3.16743 -42.5
      vertex -0.455407 -3.16743 -46.5
      vertex -2.09555 -2.4184 -42.5
    endloop
  endfacet
  facet normal 0.415415 0.909632 0
    outer loop
      vertex -2.09555 -2.4184 -42.5
      vertex -0.455407 -3.16743 -46.5
      vertex -2.09555 -2.4184 -46.5
    endloop
  endfacet
  facet normal 0.841253 0.540641 0
    outer loop
      vertex -3.07038 -0.901544 -42.5
      vertex -2.09555 -2.4184 -42.5
      vertex -2.09555 -2.4184 -46.5
    endloop
  endfacet
  facet normal 0.841253 0.540641 0
    outer loop
      vertex -3.07038 -0.901544 -46.5
      vertex -3.07038 -0.901544 -42.5
      vertex -2.09555 -2.4184 -46.5
    endloop
  endfacet
  facet normal 0 1 0
    outer loop
      vertex 7.4 20.25 38.5
      vertex 7.4 20.25 46.5
      vertex 11.4 20.25 38.5
    endloop
  endfacet
  facet normal 0 1 0
    outer loop
      vertex 11.4 20.25 38.5
      vertex 7.4 20.25 46.5
      vertex 11.4 20.25 46.5
    endloop
  endfacet
  facet normal 0 -1 0
    outer loop
      vertex 7.4 -20.25 46.5
      vertex 7.4 -20.25 38.5
      vertex 11.4 -20.25 38.5
    endloop
  endfacet
  facet normal 0 -1 0
    outer loop
      vertex 11.4 -20.25 46.5
      vertex 7.4 -20.25 46.5
      vertex 11.4 -20.25 38.5
    endloop
  endfacet
  facet normal -1 0 0
    outer loop
      vertex -8.6 6.6 52.7
      vertex -8.6 10.6 46.5
      vertex -8.6 6.6 46.5
    endloop
  endfacet
  facet normal -1 0 0
    outer loop
      vertex -8.6 6.6 52.7
      vertex -8.6 -10.6 57.6
      vertex -8.6 10.6 57.6
    endloop
  endfacet
  facet normal -1 0 0
    outer loop
      vertex -8.6 -10.6 46.5
      vertex -8.6 -10.6 57.6
      vertex -8.6 -6.6 52.7
    endloop
  endfacet
  facet normal -1 0 0
    outer loop
      vertex -8.6 -10.6 46.5
      vertex -8.6 -6.6 52.7
      vertex -8.6 -6.6 46.5
    endloop
  endfacet
  facet normal -1 0 0
    outer loop
      vertex -8.6 -10.6 46.5
      vertex -8.6 -6.6 46.5
      vertex -8.6 10.6 46.5
    endloop
  endfacet
  facet normal -1 0 0
    outer loop
      vertex -8.6 -6.6 46.5
      vertex -8.6 6.6 46.5
      vertex -8.6 10.6 46.5
    endloop
  endfacet
  facet normal -1 0 0
    outer loop
      vertex -8.6 10.6 46.5
      vertex -8.6 6.6 52.7
      vertex -8.6 10.6 57.6
    endloop
  endfacet
  facet normal -1 0 0
    outer loop
      vertex -8.6 -6.6 52.7
      vertex -8.6 -10.6 57.6
      vertex -8.6 6.6 52.7
    endloop
  endfacet
  facet normal 0 -1 0
    outer loop
      vertex -8.6 -10.6 57.6
      vertex -8.6 -10.6 46.5
      vertex 8.6 -10.6 46.5
    endloop
  endfacet
  facet normal 0 -1 0
    outer loop
      vertex 8.6 -10.6 57.6
      vertex -8.6 -10.6 57.6
      vertex 8.6 -10.6 46.5
    endloop
  endfacet
  facet normal 1 0 0
    outer loop
      vertex 8.6 -6.6 46.5
      vertex 8.6 -10.6 46.5
      vertex 8.6 10.6 46.5
    endloop
  endfacet
  facet normal 1 0 0
    outer loop
      vertex 8.6 6.6 46.5
      vertex 8.6 -6.6 46.5
      vertex 8.6 10.6 46.5
    endloop
  endfacet
  facet normal 1 0 0
    outer loop
      vertex 8.6 -10.6 57.6
      vertex 8.6 -10.6 46.5
      vertex 8.6 -6.6 46.5
    endloop
  endfacet
  facet normal 1 0 0
    outer loop
      vertex 8.6 6.6 52.7
      vertex 8.6 6.6 46.5
      vertex 8.6 10.6 46.5
    endloop
  endfacet
  facet normal 1 0 0
    outer loop
      vertex 8.6 -10.6 57.6
      vertex 8.6 -6.6 46.5
      vertex 8.6 -6.6 52.7
    endloop
  endfacet
  facet normal 1 0 0
    outer loop
      vertex 8.6 10.6 57.6
      vertex 8.6 6.6 52.7
      vertex 8.6 10.6 46.5
    endloop
  endfacet
  facet normal 1 0 0
    outer loop
      vertex 8.6 10.6 57.6
      vertex 8.6 -10.6 57.6
      vertex 8.6 6.6 52.7
    endloop
  endfacet
  facet normal 1 0 0
    outer loop
      vertex 8.6 -6.6 52.7
      vertex 8.6 6.6 52.7
      vertex 8.6 -10.6 57.6
    endloop
  endfacet
  facet normal 0 1 0
    outer loop
      vertex -8.6 10.6 46.5
      vertex -8.6 10.6 57.6
      vertex 8.6 10.6 46.5
    endloop
  endfacet
  facet normal 0 1 0
    outer loop
      vertex 8.6 10.6 46.5
      vertex -8.6 10.6 57.6
      vertex 8.6 10.6 57.6
    endloop
  endfacet
  facet normal 1 0 0
    outer loop
      vertex -3.07038 0.901544 42.5
      vertex -3.07038 0.901544 46.5
      vertex -3.07038 -0.901544 46.5
    endloop
  endfacet
  facet normal 1 0 0
    outer loop
      vertex -3.07038 -0.901544 42.5
      vertex -3.07038 0.901544 42.5
      vertex -3.07038 -0.901544 46.5
    endloop
  endfacet
  facet normal 0.841253 0.540641 0
    outer loop
      vertex -3.07038 -0.901544 46.5
      vertex -2.09555 -2.4184 46.5
      vertex -2.09555 -2.4184 42.5
    endloop
  endfacet
  facet normal 0.841253 0.540641 0
    outer loop
      vertex -3.07038 -0.901544 42.5
      vertex -3.07038 -0.901544 46.5
      vertex -2.09555 -2.4184 42.5
    endloop
  endfacet
  facet normal 0.841253 -0.540641 0
    outer loop
      vertex -2.09555 2.4184 42.5
      vertex -2.09555 2.4184 46.5
      vertex -3.07038 0.901544 46.5
    endloop
  endfacet
  facet normal 0.841253 -0.540641 0
    outer loop
      vertex -3.07038 0.901544 42.5
      vertex -2.09555 2.4184 42.5
      vertex -3.07038 0.901544 46.5
    endloop
  endfacet
  facet normal 0.415415 -0.909632 0
    outer loop
      vertex -0.455407 3.16743 42.5
      vertex -0.455407 3.16743 46.5
      vertex -2.09555 2.4184 46.5
    endloop
  endfacet
  facet normal 0.415415 -0.909632 0
    outer loop
      vertex -2.09555 2.4184 42.5
      vertex -0.455407 3.16743 42.5
      vertex -2.09555 2.4184 46.5
    endloop
  endfacet
  facet normal -0.142315 -0.989821 0
    outer loop
      vertex 1.32933 2.91082 42.5
      vertex 1.32933 2.91082 46.5
      vertex -0.455407 3.16743 46.5
    endloop
  endfacet
  facet normal -0.142315 -0.989821 0
    outer loop
      vertex -0.455407 3.16743 42.5
      vertex 1.32933 2.91082 42.5
      vertex -0.455407 3.16743 46.5
    endloop
  endfacet
  facet normal -0.654861 -0.75575 0
    outer loop
      vertex 2.69201 1.73005 42.5
      vertex 2.69201 1.73005 46.5
      vertex 1.32933 2.91082 46.5
    endloop
  endfacet
  facet normal -0.654861 -0.75575 0
    outer loop
      vertex 1.32933 2.91082 42.5
      vertex 2.69201 1.73005 42.5
      vertex 1.32933 2.91082 46.5
    endloop
  endfacet
  facet normal -0.959493 -0.281733 0
    outer loop
      vertex 3.2 0 46.5
      vertex 2.69201 1.73005 46.5
      vertex 3.2 0 42.5
    endloop
  endfacet
  facet normal -0.959493 -0.281733 0
    outer loop
      vertex 3.2 0 42.5
      vertex 2.69201 1.73005 46.5
      vertex 2.69201 1.73005 42.5
    endloop
  endfacet
  facet normal -0.959493 0.281733 0
    outer loop
      vertex 3.2 0 46.5
      vertex 3.2 0 42.5
      vertex 2.69201 -1.73005 46.5
    endloop
  endfacet
  facet normal -0.959493 0.281733 0
    outer loop
      vertex 2.69201 -1.73005 46.5
      vertex 3.2 0 42.5
      vertex 2.69201 -1.73005 42.5
    endloop
  endfacet
  facet normal -0.654861 0.75575 0
    outer loop
      vertex 2.69201 -1.73005 46.5
      vertex 2.69201 -1.73005 42.5
      vertex 1.32933 -2.91082 46.5
    endloop
  endfacet
  facet normal -0.654861 0.75575 0
    outer loop
      vertex 1.32933 -2.91082 46.5
      vertex 2.69201 -1.73005 42.5
      vertex 1.32933 -2.91082 42.5
    endloop
  endfacet
  facet normal -0.142315 0.989821 0
    outer loop
      vertex 1.32933 -2.91082 46.5
      vertex 1.32933 -2.91082 42.5
      vertex -0.455407 -3.16743 46.5
    endloop
  endfacet
  facet normal -0.142315 0.989821 0
    outer loop
      vertex -0.455407 -3.16743 46.5
      vertex 1.32933 -2.91082 42.5
      vertex -0.455407 -3.16743 42.5
    endloop
  endfacet
  facet normal 0.415415 0.909632 0
    outer loop
      vertex -0.455407 -3.16743 46.5
      vertex -0.455407 -3.16743 42.5
      vertex -2.09555 -2.4184 46.5
    endloop
  endfacet
  facet normal 0.415415 0.909632 0
    outer loop
      vertex -2.09555 -2.4184 46.5
      vertex -0.455407 -3.16743 42.5
      vertex -2.09555 -2.4184 42.5
    endloop
  endfacet
  facet normal 0 0 1
    outer loop
      vertex 7.4 -14.25 -38.5
      vertex 7.4 -20.25 -38.5
      vertex 11.4 -20.25 -38.5
    endloop
  endfacet
  facet normal 0 0 1
    outer loop
      vertex 11.4 -14.25 -38.5
      vertex 7.4 -14.25 -38.5
      vertex 11.4 -20.25 -38.5
    endloop
  endfacet
  facet normal 0 0 -1
    outer loop
      vertex 7.4 -20.25 38.5
      vertex 7.4 -14.25 38.5
      vertex 11.4 -20.25 38.5
    endloop
  endfacet
  facet normal 0 0 -1
    outer loop
      vertex 11.4 -20.25 38.5
      vertex 7.4 -14.25 38.5
      vertex 11.4 -14.25 38.5
    endloop
  endfacet
  facet normal 0 -1 0
    outer loop
      vertex 7.4 -14.25 38.5
      vertex 7.4 -14.25 4
      vertex 11.4 -14.25 4
    endloop
  endfacet
  facet normal 0 -1 0
    outer loop
      vertex 11.4 -14.25 38.5
      vertex 7.4 -14.25 38.5
      vertex 11.4 -14.25 4
    endloop
  endfacet
  facet normal 0 0 1
    outer loop
      vertex 7.4 -14.25 4
      vertex 7.4 -20.25 4
      vertex 11.4 -20.25 4
    endloop
  endfacet
  facet normal 0 0 1
    outer loop
      vertex 11.4 -14.25 4
      vertex 7.4 -14.25 4
      vertex 11.4 -20.25 4
    endloop
  endfacet
  facet normal 0 -1 0
    outer loop
      vertex 7.4 -20.25 4
      vertex 7.4 -20.25 -4
      vertex 11.4 -20.25 -4
    endloop
  endfacet
  facet normal 0 -1 0
    outer loop
      vertex 11.4 -20.25 4
      vertex 7.4 -20.25 4
      vertex 11.4 -20.25 -4
    endloop
  endfacet
  facet normal 0 0 -1
    outer loop
      vertex 7.4 -20.25 -4
      vertex 7.4 -14.25 -4
      vertex 11.4 -20.25 -4
    endloop
  endfacet
  facet normal 0 0 -1
    outer loop
      vertex 11.4 -20.25 -4
      vertex 7.4 -14.25 -4
      vertex 11.4 -14.25 -4
    endloop
  endfacet
  facet normal 0 -1 0
    outer loop
      vertex 7.4 -14.25 -4
      vertex 7.4 -14.25 -38.5
      vertex 11.4 -14.25 -38.5
    endloop
  endfacet
  facet normal 0 -1 0
    outer loop
      vertex 11.4 -14.25 -4
      vertex 7.4 -14.25 -4
      vertex 11.4 -14.25 -38.5
    endloop
  endfacet
  facet normal 0 0 -1
    outer loop
      vertex 7.4 14.25 38.5
      vertex 7.4 20.25 38.5
      vertex 11.4 14.25 38.5
    endloop
  endfacet
  facet normal 0 0 -1
    outer loop
      vertex 11.4 14.25 38.5
      vertex 7.4 20.25 38.5
      vertex 11.4 20.25 38.5
    endloop
  endfacet
  facet normal 0 1 0
    outer loop
      vertex 7.4 14.25 4
      vertex 7.4 14.25 38.5
      vertex 11.4 14.25 4
    endloop
  endfacet
  facet normal 0 1 0
    outer loop
      vertex 11.4 14.25 4
      vertex 7.4 14.25 38.5
      vertex 11.4 14.25 38.5
    endloop
  endfacet
  facet normal 0 0 1
    outer loop
      vertex 7.4 20.25 4
      vertex 7.4 14.25 4
      vertex 11.4 14.25 4
    endloop
  endfacet
  facet normal 0 0 1
    outer loop
      vertex 11.4 20.25 4
      vertex 7.4 20.25 4
      vertex 11.4 14.25 4
    endloop
  endfacet
  facet normal 0 1 0
    outer loop
      vertex 7.4 20.25 -4
      vertex 7.4 20.25 4
      vertex 11.4 20.25 -4
    endloop
  endfacet
  facet normal 0 1 0
    outer loop
      vertex 11.4 20.25 -4
      vertex 7.4 20.25 4
      vertex 11.4 20.25 4
    endloop
  endfacet
  facet normal 0 0 -1
    outer loop
      vertex 7.4 14.25 -4
      vertex 7.4 20.25 -4
      vertex 11.4 14.25 -4
    endloop
  endfacet
  facet normal 0 0 -1
    outer loop
      vertex 11.4 14.25 -4
      vertex 7.4 20.25 -4
      vertex 11.4 20.25 -4
    endloop
  endfacet
  facet normal 0 1 0
    outer loop
      vertex 7.4 14.25 -38.5
      vertex 7.4 14.25 -4
      vertex 11.4 14.25 -38.5
    endloop
  endfacet
  facet normal 0 1 0
    outer loop
      vertex 11.4 14.25 -38.5
      vertex 7.4 14.25 -4
      vertex 11.4 14.25 -4
    endloop
  endfacet
  facet normal 0 0 1
    outer loop
      vertex 7.4 20.25 -38.5
      vertex 7.4 14.25 -38.5
      vertex 11.4 14.25 -38.5
    endloop
  endfacet
  facet normal 0 0 1
    outer loop
      vertex 11.4 20.25 -38.5
      vertex 7.4 20.25 -38.5
      vertex 11.4 14.25 -38.5
    endloop
  endfacet
  facet normal 0 0 1
    outer loop
      vertex -0.455407 -3.16743 57.6
      vertex -8.6 -10.6 57.6
      vertex 8.6 -10.6 57.6
    endloop
  endfacet
  facet normal 0 0 1
    outer loop
      vertex -8.6 10.6 57.6
      vertex -8.6 -10.6 57.6
      vertex -3.07038 -0.901544 57.6
    endloop
  endfacet
  facet normal 0 0 1
    outer loop
      vertex -8.6 10.6 57.6
      vertex -3.07038 -0.901544 57.6
      vertex -3.07038 0.901544 57.6
    endloop
  endfacet
  facet normal 0 0 1
    outer loop
      vertex 3.2 0 57.6
      vertex 2.69201 -1.73005 57.6
      vertex 8.6 -10.6 57.6
    endloop
  endfacet
  facet normal 0 0 1
    outer loop
      vertex -8.6 10.6 57.6
      vertex -3.07038 0.901544 57.6
      vertex -2.09555 2.4184 57.6
    endloop
  endfacet
  facet normal 0 0 1
    outer loop
      vertex 2.69201 -1.73005 57.6
      vertex 1.32933 -2.91082 57.6
      vertex 8.6 -10.6 57.6
    endloop
  endfacet
  facet normal 0 0 1
    outer loop
      vertex 8.6 10.6 57.6
      vertex -8.6 10.6 57.6
      vertex -0.455407 3.16743 57.6
    endloop
  endfacet
  facet normal 0 0 1
    outer loop
      vertex 1.32933 -2.91082 57.6
      vertex -0.455407 -3.16743 57.6
      vertex 8.6 -10.6 57.6
    endloop
  endfacet
  facet normal 0 0 1
    outer loop
      vertex 8.6 10.6 57.6
      vertex -0.455407 3.16743 57.6
      vertex 1.32933 2.91082 57.6
    endloop
  endfacet
  facet normal 0 0 1
    outer loop
      vertex 8.6 10.6 57.6
      vertex 2.69201 1.73005 57.6
      vertex 8.6 -10.6 57.6
    endloop
  endfacet
  facet normal 0 0 1
    outer loop
      vertex 8.6 10.6 57.6
      vertex 1.32933 2.91082 57.6
      vertex 2.69201 1.73005 57.6
    endloop
  endfacet
  facet normal 0 0 1
    outer loop
      vertex 2.69201 1.73005 57.6
      vertex 3.2 0 57.6
      vertex 8.6 -10.6 57.6
    endloop
  endfacet
  facet normal 0 0 1
    outer loop
      vertex -2.09555 -2.4184 57.6
      vertex -8.6 -10.6 57.6
      vertex -0.455407 -3.16743 57.6
    endloop
  endfacet
  facet normal 0 0 1
    outer loop
      vertex -3.07038 -0.901544 57.6
      vertex -8.6 -10.6 57.6
      vertex -2.09555 -2.4184 57.6
    endloop
  endfacet
  facet normal 0 0 1
    outer loop
      vertex -2.09555 2.4184 57.6
      vertex -0.455407 3.16743 57.6
      vertex -8.6 10.6 57.6
    endloop
  endfacet
  facet normal 0 0 -1
    outer loop
      vertex -2.09555 2.4184 52.7
      vertex -8.6 6.6 52.7
      vertex -0.455407 3.16743 52.7
    endloop
  endfacet
  facet normal 0 0 -1
    outer loop
      vertex -0.455407 -3.16743 52.7
      vertex 8.6 -6.6 52.7
      vertex -8.6 -6.6 52.7
    endloop
  endfacet
  facet normal 0 0 -1
    outer loop
      vertex 2.69201 -1.73005 52.7
      vertex 8.6 -6.6 52.7
      vertex 1.32933 -2.91082 52.7
    endloop
  endfacet
  facet normal 0 0 -1
    outer loop
      vertex -8.6 6.6 52.7
      vertex -3.07038 -0.901544 52.7
      vertex -8.6 -6.6 52.7
    endloop
  endfacet
  facet normal 0 0 -1
    outer loop
      vertex -3.07038 -0.901544 52.7
      vertex -2.09555 -2.4184 52.7
      vertex -8.6 -6.6 52.7
    endloop
  endfacet
  facet normal 0 0 -1
    outer loop
      vertex -2.09555 -2.4184 52.7
      vertex -0.455407 -3.16743 52.7
      vertex -8.6 -6.6 52.7
    endloop
  endfacet
  facet normal 0 0 -1
    outer loop
      vertex 8.6 6.6 52.7
      vertex 8.6 -6.6 52.7
      vertex 2.69201 -1.73005 52.7
    endloop
  endfacet
  facet normal 0 0 -1
    outer loop
      vertex 8.6 6.6 52.7
      vertex 2.69201 -1.73005 52.7
      vertex 3.2 0 52.7
    endloop
  endfacet
  facet normal 0 0 -1
    outer loop
      vertex 8.6 6.6 52.7
      vertex 3.2 0 52.7
      vertex 2.69201 1.73005 52.7
    endloop
  endfacet
  facet normal 0 0 -1
    outer loop
      vertex 8.6 6.6 52.7
      vertex 2.69201 1.73005 52.7
      vertex 1.32933 2.91082 52.7
    endloop
  endfacet
  facet normal 0 0 -1
    outer loop
      vertex 8.6 6.6 52.7
      vertex 1.32933 2.91082 52.7
      vertex -8.6 6.6 52.7
    endloop
  endfacet
  facet normal 0 0 -1
    outer loop
      vertex 1.32933 2.91082 52.7
      vertex -0.455407 3.16743 52.7
      vertex -8.6 6.6 52.7
    endloop
  endfacet
  facet normal 0 0 -1
    outer loop
      vertex -3.07038 0.901544 52.7
      vertex -8.6 6.6 52.7
      vertex -2.09555 2.4184 52.7
    endloop
  endfacet
  facet normal 0 0 -1
    outer loop
      vertex -8.6 6.6 52.7
      vertex -3.07038 0.901544 52.7
      vertex -3.07038 -0.901544 52.7
    endloop
  endfacet
  facet normal 0 0 -1
    outer loop
      vertex 1.32933 -2.91082 52.7
      vertex 8.6 -6.6 52.7
      vertex -0.455407 -3.16743 52.7
    endloop
  endfacet
  facet normal 0 1 0
    outer loop
      vertex 8.6 -6.6 52.7
      vertex 8.6 -6.6 46.5
      vertex -8.6 -6.6 52.7
    endloop
  endfacet
  facet normal 0 1 0
    outer loop
      vertex -8.6 -6.6 52.7
      vertex 8.6 -6.6 46.5
      vertex -8.6 -6.6 46.5
    endloop
  endfacet
  facet normal 0 -1 0
    outer loop
      vertex 8.6 6.6 46.5
      vertex 8.6 6.6 52.7
      vertex -8.6 6.6 52.7
    endloop
  endfacet
  facet normal 0 -1 0
    outer loop
      vertex -8.6 6.6 46.5
      vertex 8.6 6.6 46.5
      vertex -8.6 6.6 52.7
    endloop
  endfacet
  facet normal 0 0 1
    outer loop
      vertex -0.455407 3.16743 46.5
      vertex 8.6 6.6 46.5
      vertex -8.6 6.6 46.5
    endloop
  endfacet
  facet normal 0 0 1
    outer loop
      vertex -8.6 -6.6 46.5
      vertex -3.07038 0.901544 46.5
      vertex -8.6 6.6 46.5
    endloop
  endfacet
  facet normal 0 0 1
    outer loop
      vertex -2.09555 2.4184 46.5
      vertex -0.455407 3.16743 46.5
      vertex -8.6 6.6 46.5
    endloop
  endfacet
  facet normal 0 0 1
    outer loop
      vertex 2.69201 1.73005 46.5
      vertex 3.2 0 46.5
      vertex 8.6 -6.6 46.5
    endloop
  endfacet
  facet normal 0 0 1
    outer loop
      vertex 2.69201 1.73005 46.5
      vertex 8.6 6.6 46.5
      vertex 1.32933 2.91082 46.5
    endloop
  endfacet
  facet normal 0 0 1
    outer loop
      vertex 3.2 0 46.5
      vertex 2.69201 -1.73005 46.5
      vertex 8.6 -6.6 46.5
    endloop
  endfacet
  facet normal 0 0 1
    outer loop
      vertex 8.6 -6.6 46.5
      vertex 8.6 6.6 46.5
      vertex 2.69201 1.73005 46.5
    endloop
  endfacet
  facet normal 0 0 1
    outer loop
      vertex 2.69201 -1.73005 46.5
      vertex 1.32933 -2.91082 46.5
      vertex 8.6 -6.6 46.5
    endloop
  endfacet
  facet normal 0 0 1
    outer loop
      vertex -0.455407 3.16743 46.5
      vertex 1.32933 2.91082 46.5
      vertex 8.6 6.6 46.5
    endloop
  endfacet
  facet normal 0 0 1
    outer loop
      vertex -8.6 -6.6 46.5
      vertex 8.6 -6.6 46.5
      vertex 1.32933 -2.91082 46.5
    endloop
  endfacet
  facet normal 0 0 1
    outer loop
      vertex -8.6 -6.6 46.5
      vertex 1.32933 -2.91082 46.5
      vertex -0.455407 -3.16743 46.5
    endloop
  endfacet
  facet normal 0 0 1
    outer loop
      vertex -8.6 -6.6 46.5
      vertex -0.455407 -3.16743 46.5
      vertex -2.09555 -2.4184 46.5
    endloop
  endfacet
  facet normal 0 0 1
    outer loop
      vertex -8.6 -6.6 46.5
      vertex -3.07038 -0.901544 46.5
      vertex -3.07038 0.901544 46.5
    endloop
  endfacet
  facet normal 0 0 1
    outer loop
      vertex -8.6 -6.6 46.5
      vertex -2.09555 -2.4184 46.5
      vertex -3.07038 -0.901544 46.5
    endloop
  endfacet
  facet normal 0 0 1
    outer loop
      vertex -3.07038 0.901544 46.5
      vertex -2.09555 2.4184 46.5
      vertex -8.6 6.6 46.5
    endloop
  endfacet
  facet normal 1 0 0
    outer loop
      vertex -3.07038 0.901544 52.7
      vertex -3.07038 0.901544 57.6
      vertex -3.07038 -0.901544 57.6
    endloop
  endfacet
  facet normal 1 0 0
    outer loop
      vertex -3.07038 -0.901544 52.7
      vertex -3.07038 0.901544 52.7
      vertex -3.07038 -0.901544 57.6
    endloop
  endfacet
  facet normal 0.841253 0.540641 0
    outer loop
      vertex -3.07038 -0.901544 57.6
      vertex -2.09555 -2.4184 57.6
      vertex -2.09555 -2.4184 52.7
    endloop
  endfacet
  facet normal 0.841253 0.540641 0
    outer loop
      vertex -3.07038 -0.901544 52.7
      vertex -3.07038 -0.901544 57.6
      vertex -2.09555 -2.4184 52.7
    endloop
  endfacet
  facet normal 0.415415 0.909632 0
    outer loop
      vertex -0.455407 -3.16743 57.6
      vertex -0.455407 -3.16743 52.7
      vertex -2.09555 -2.4184 57.6
    endloop
  endfacet
  facet normal 0.415415 0.909632 0
    outer loop
      vertex -2.09555 -2.4184 57.6
      vertex -0.455407 -3.16743 52.7
      vertex -2.09555 -2.4184 52.7
    endloop
  endfacet
  facet normal -0.142315 0.989821 0
    outer loop
      vertex 1.32933 -2.91082 57.6
      vertex 1.32933 -2.91082 52.7
      vertex -0.455407 -3.16743 57.6
    endloop
  endfacet
  facet normal -0.142315 0.989821 0
    outer loop
      vertex -0.455407 -3.16743 57.6
      vertex 1.32933 -2.91082 52.7
      vertex -0.455407 -3.16743 52.7
    endloop
  endfacet
  facet normal -0.654861 0.75575 0
    outer loop
      vertex 2.69201 -1.73005 57.6
      vertex 2.69201 -1.73005 52.7
      vertex 1.32933 -2.91082 57.6
    endloop
  endfacet
  facet normal -0.654861 0.75575 0
    outer loop
      vertex 1.32933 -2.91082 57.6
      vertex 2.69201 -1.73005 52.7
      vertex 1.32933 -2.91082 52.7
    endloop
  endfacet
  facet normal -0.959493 0.281733 0
    outer loop
      vertex 3.2 0 57.6
      vertex 3.2 0 52.7
      vertex 2.69201 -1.73005 57.6
    endloop
  endfacet
  facet normal -0.959493 0.281733 0
    outer loop
      vertex 2.69201 -1.73005 57.6
      vertex 3.2 0 52.7
      vertex 2.69201 -1.73005 52.7
    endloop
  endfacet
  facet normal -0.959493 -0.281733 0
    outer loop
      vertex 3.2 0 57.6
      vertex 2.69201 1.73005 57.6
      vertex 3.2 0 52.7
    endloop
  endfacet
  facet normal -0.959493 -0.281733 0
    outer loop
      vertex 3.2 0 52.7
      vertex 2.69201 1.73005 57.6
      vertex 2.69201 1.73005 52.7
    endloop
  endfacet
  facet normal -0.654861 -0.75575 0
    outer loop
      vertex 2.69201 1.73005 52.7
      vertex 2.69201 1.73005 57.6
      vertex 1.32933 2.91082 57.6
    endloop
  endfacet
  facet normal -0.654861 -0.75575 0
    outer loop
      vertex 1.32933 2.91082 52.7
      vertex 2.69201 1.73005 52.7
      vertex 1.32933 2.91082 57.6
    endloop
  endfacet
  facet normal -0.142315 -0.989821 0
    outer loop
      vertex 1.32933 2.91082 52.7
      vertex 1.32933 2.91082 57.6
      vertex -0.455407 3.16743 57.6
    endloop
  endfacet
  facet normal -0.142315 -0.989821 0
    outer loop
      vertex -0.455407 3.16743 52.7
      vertex 1.32933 2.91082 52.7
      vertex -0.455407 3.16743 57.6
    endloop
  endfacet
  facet normal 0.415415 -0.909632 0
    outer loop
      vertex -0.455407 3.16743 52.7
      vertex -0.455407 3.16743 57.6
      vertex -2.09555 2.4184 57.6
    endloop
  endfacet
  facet normal 0.415415 -0.909632 0
    outer loop
      vertex -2.09555 2.4184 52.7
      vertex -0.455407 3.16743 52.7
      vertex -2.09555 2.4184 57.6
    endloop
  endfacet
  facet normal 0.841253 -0.540641 0
    outer loop
      vertex -2.09555 2.4184 52.7
      vertex -2.09555 2.4184 57.6
      vertex -3.07038 0.901544 57.6
    endloop
  endfacet
  facet normal 0.841253 -0.540641 0
    outer loop
      vertex -3.07038 0.901544 52.7
      vertex -2.09555 2.4184 52.7
      vertex -3.07038 0.901544 57.6
    endloop
  endfacet
  facet normal -1 0 0
    outer loop
      vertex -11.4 11 -48.65
      vertex -11.4 14.25 -52.65
      vertex -11.4 -11 -48.65
    endloop
  endfacet
  facet normal -1 0 0
    outer loop
      vertex -11.4 -14.25 -52.65
      vertex -11.4 -14.25 -46.5
      vertex -11.4 -11 -48.65
    endloop
  endfacet
  facet normal -1 0 0
    outer loop
      vertex -11.4 -14.25 -52.65
      vertex -11.4 -11 -48.65
      vertex -11.4 14.25 -52.65
    endloop
  endfacet
  facet normal -1 0 0
    outer loop
      vertex -11.4 14.25 -52.65
      vertex -11.4 11 -48.65
      vertex -11.4 11 -46.5
    endloop
  endfacet
  facet normal -1 0 0
    outer loop
      vertex -11.4 14.25 -52.65
      vertex -11.4 11 -46.5
      vertex -11.4 14.25 -46.5
    endloop
  endfacet
  facet normal -1 0 0
    outer loop
      vertex -11.4 -11 -48.65
      vertex -11.4 -14.25 -46.5
      vertex -11.4 -11 -46.5
    endloop
  endfacet
  facet normal 0 -1 0
    outer loop
      vertex -11.4 -14.25 -46.5
      vertex -11.4 -14.25 -52.65
      vertex -7.4 -14.25 -52.65
    endloop
  endfacet
  facet normal 0 -1 0
    outer loop
      vertex -7.4 -14.25 -46.5
      vertex -11.4 -14.25 -46.5
      vertex -7.4 -14.25 -52.65
    endloop
  endfacet
  facet normal 0 0 -1
    outer loop
      vertex -11.4 -14.25 -52.65
      vertex -11.4 14.25 -52.65
      vertex -7.4 -14.25 -52.65
    endloop
  endfacet
  facet normal 0 0 -1
    outer loop
      vertex -7.4 12.85 -52.65
      vertex -11.4 14.25 -52.65
      vertex -7.4 14.25 -52.65
    endloop
  endfacet
  facet normal 0 0 -1
    outer loop
      vertex -7.4 -14.25 -52.65
      vertex -11.4 14.25 -52.65
      vertex -7.4 -12.85 -52.65
    endloop
  endfacet
  facet normal 0 0 -1
    outer loop
      vertex 7.4 12.85 -52.65
      vertex 7.4 14.25 -52.65
      vertex 11.4 14.25 -52.65
    endloop
  endfacet
  facet normal 0 0 -1
    outer loop
      vertex -7.4 -12.85 -52.65
      vertex -4.76484 -4.42112 -52.65
      vertex -3.25 -5.62916 -52.65
    endloop
  endfacet
  facet normal 0 0 -1
    outer loop
      vertex -7.4 -12.85 -52.65
      vertex -1.44639 -6.33703 -52.65
      vertex 0 -6.44542 -52.65
    endloop
  endfacet
  facet normal 0 0 -1
    outer loop
      vertex -7.4 12.85 -52.65
      vertex 7.4 12.85 -52.65
      vertex 0 6.5 -52.65
    endloop
  endfacet
  facet normal 0 0 -1
    outer loop
      vertex -1.44639 6.33703 -52.65
      vertex 0 6.5 -52.65
      vertex 0 6.44542 -52.65
    endloop
  endfacet
  facet normal 0 0 -1
    outer loop
      vertex -7.4 12.85 -52.65
      vertex 0 6.5 -52.65
      vertex -1.44639 6.33703 -52.65
    endloop
  endfacet
  facet normal 0 0 -1
    outer loop
      vertex -7.4 -12.85 -52.65
      vertex -5.8563 -2.82024 -52.65
      vertex -4.76484 -4.42112 -52.65
    endloop
  endfacet
  facet normal 0 0 -1
    outer loop
      vertex -7.4 12.85 -52.65
      vertex -1.44639 6.33703 -52.65
      vertex -3.25 5.62916 -52.65
    endloop
  endfacet
  facet normal 0 0 -1
    outer loop
      vertex -7.4 12.85 -52.65
      vertex -3.25 5.62916 -52.65
      vertex -4.76484 4.42112 -52.65
    endloop
  endfacet
  facet normal 0 0 -1
    outer loop
      vertex -7.4 12.85 -52.65
      vertex -4.76484 4.42112 -52.65
      vertex -5.8563 2.82024 -52.65
    endloop
  endfacet
  facet normal 0 0 -1
    outer loop
      vertex -7.4 12.85 -52.65
      vertex -5.8563 2.82024 -52.65
      vertex -6.4274 0.968775 -52.65
    endloop
  endfacet
  facet normal 0 0 -1
    outer loop
      vertex -7.4 -12.85 -52.65
      vertex -3.25 -5.62916 -52.65
      vertex -1.44639 -6.33703 -52.65
    endloop
  endfacet
  facet normal 0 0 -1
    outer loop
      vertex -7.4 -12.85 -52.65
      vertex -6.4274 -0.968775 -52.65
      vertex -5.8563 -2.82024 -52.65
    endloop
  endfacet
  facet normal 0 0 -1
    outer loop
      vertex -7.4 -12.85 -52.65
      vertex -6.4274 0.968775 -52.65
      vertex -6.4274 -0.968775 -52.65
    endloop
  endfacet
  facet normal 0 0 -1
    outer loop
      vertex 7.4 -14.25 -52.65
      vertex 11.4 -6.5 -52.65
      vertex 11.4 -14.25 -52.65
    endloop
  endfacet
  facet normal 0 0 -1
    outer loop
      vertex 7.4 -12.85 -52.65
      vertex 11.4 -6.5 -52.65
      vertex 7.4 -14.25 -52.65
    endloop
  endfacet
  facet normal 0 0 -1
    outer loop
      vertex -7.4 12.85 -52.65
      vertex -6.4274 0.968775 -52.65
      vertex -7.4 -12.85 -52.65
    endloop
  endfacet
  facet normal 0 0 -1
    outer loop
      vertex -7.4 12.85 -52.65
      vertex -7.4 -12.85 -52.65
      vertex -11.4 14.25 -52.65
    endloop
  endfacet
  facet normal 0 0 -1
    outer loop
      vertex 0 6.5 -52.65
      vertex 7.4 12.85 -52.65
      vertex 11.4 14.25 -52.65
    endloop
  endfacet
  facet normal 0 0 -1
    outer loop
      vertex 0 6.5 -52.65
      vertex 11.4 14.25 -52.65
      vertex 11.4 6.5 -52.65
    endloop
  endfacet
  facet normal 0 0 -1
    outer loop
      vertex -7.4 -12.85 -52.65
      vertex 0 -6.44542 -52.65
      vertex 0 -6.5 -52.65
    endloop
  endfacet
  facet normal 0 0 -1
    outer loop
      vertex -7.4 -12.85 -52.65
      vertex 0 -6.5 -52.65
      vertex 11.4 -6.5 -52.65
    endloop
  endfacet
  facet normal 0 0 -1
    outer loop
      vertex -7.4 -12.85 -52.65
      vertex 11.4 -6.5 -52.65
      vertex 7.4 -12.85 -52.65
    endloop
  endfacet
  facet normal 0 1 0
    outer loop
      vertex -11.4 14.25 -52.65
      vertex -11.4 14.25 -46.5
      vertex -7.4 14.25 -52.65
    endloop
  endfacet
  facet normal 0 1 0
    outer loop
      vertex -7.4 14.25 -52.65
      vertex -11.4 14.25 -46.5
      vertex -7.4 14.25 -46.5
    endloop
  endfacet
  facet normal 0 0 1
    outer loop
      vertex -7.4 12.85 -46.5
      vertex -11.4 11 -46.5
      vertex 11.4 11 -46.5
    endloop
  endfacet
  facet normal 0 0 1
    outer loop
      vertex -7.4 12.85 -46.5
      vertex -7.4 14.25 -46.5
      vertex -11.4 14.25 -46.5
    endloop
  endfacet
  facet normal 0 0 1
    outer loop
      vertex 11.4 14.25 -46.5
      vertex 7.4 14.25 -46.5
      vertex 11.4 11 -46.5
    endloop
  endfacet
  facet normal 0 0 1
    outer loop
      vertex 7.4 14.25 -46.5
      vertex 7.4 12.85 -46.5
      vertex 11.4 11 -46.5
    endloop
  endfacet
  facet normal 0 0 1
    outer loop
      vertex -11.4 14.25 -46.5
      vertex -11.4 11 -46.5
      vertex -7.4 12.85 -46.5
    endloop
  endfacet
  facet normal 0 0 1
    outer loop
      vertex 7.4 12.85 -46.5
      vertex -7.4 12.85 -46.5
      vertex 11.4 11 -46.5
    endloop
  endfacet
  facet normal 0 -1 0
    outer loop
      vertex 11.4 11 -48.65
      vertex 11.4 11 -46.5
      vertex -11.4 11 -46.5
    endloop
  endfacet
  facet normal 0 -1 0
    outer loop
      vertex -11.4 11 -48.65
      vertex 11.4 11 -48.65
      vertex -11.4 11 -46.5
    endloop
  endfacet
  facet normal 0 0 1
    outer loop
      vertex 0 -6.44542 -48.65
      vertex -1.44639 -6.33703 -48.65
      vertex 0 -6.5 -48.65
    endloop
  endfacet
  facet normal 0 0 1
    outer loop
      vertex 11.4 -11 -48.65
      vertex 11.4 -6.5 -48.65
      vertex 0 -6.5 -48.65
    endloop
  endfacet
  facet normal 0 0 1
    outer loop
      vertex -1.44639 -6.33703 -48.65
      vertex -11.4 -11 -48.65
      vertex 11.4 -11 -48.65
    endloop
  endfacet
  facet normal 0 0 1
    outer loop
      vertex -1.44639 -6.33703 -48.65
      vertex 11.4 -11 -48.65
      vertex 0 -6.5 -48.65
    endloop
  endfacet
  facet normal 0 0 1
    outer loop
      vertex -3.25 -5.62916 -48.65
      vertex -11.4 -11 -48.65
      vertex -1.44639 -6.33703 -48.65
    endloop
  endfacet
  facet normal 0 0 1
    outer loop
      vertex -4.76484 -4.42112 -48.65
      vertex -11.4 -11 -48.65
      vertex -3.25 -5.62916 -48.65
    endloop
  endfacet
  facet normal 0 0 1
    outer loop
      vertex -5.8563 -2.82024 -48.65
      vertex -11.4 -11 -48.65
      vertex -4.76484 -4.42112 -48.65
    endloop
  endfacet
  facet normal 0 0 1
    outer loop
      vertex -6.4274 -0.968775 -48.65
      vertex -11.4 11 -48.65
      vertex -5.8563 -2.82024 -48.65
    endloop
  endfacet
  facet normal 0 0 1
    outer loop
      vertex -6.4274 0.968775 -48.65
      vertex -11.4 11 -48.65
      vertex -6.4274 -0.968775 -48.65
    endloop
  endfacet
  facet normal 0 0 1
    outer loop
      vertex -5.8563 2.82024 -48.65
      vertex -11.4 11 -48.65
      vertex -6.4274 0.968775 -48.65
    endloop
  endfacet
  facet normal 0 0 1
    outer loop
      vertex -4.76484 4.42112 -48.65
      vertex -11.4 11 -48.65
      vertex -5.8563 2.82024 -48.65
    endloop
  endfacet
  facet normal 0 0 1
    outer loop
      vertex -3.25 5.62916 -48.65
      vertex -11.4 11 -48.65
      vertex -4.76484 4.42112 -48.65
    endloop
  endfacet
  facet normal 0 0 1
    outer loop
      vertex -1.44639 6.33703 -48.65
      vertex -11.4 11 -48.65
      vertex -3.25 5.62916 -48.65
    endloop
  endfacet
  facet normal 0 0 1
    outer loop
      vertex 0 6.44542 -48.65
      vertex 0 6.5 -48.65
      vertex -1.44639 6.33703 -48.65
    endloop
  endfacet
  facet normal 0 0 1
    outer loop
      vertex 0 6.5 -48.65
      vertex 11.4 11 -48.65
      vertex -1.44639 6.33703 -48.65
    endloop
  endfacet
  facet normal 0 0 1
    outer loop
      vertex 11.4 6.5 -48.65
      vertex 11.4 11 -48.65
      vertex 0 6.5 -48.65
    endloop
  endfacet
  facet normal 0 0 1
    outer loop
      vertex 11.4 11 -48.65
      vertex -11.4 11 -48.65
      vertex -1.44639 6.33703 -48.65
    endloop
  endfacet
  facet normal 0 0 1
    outer loop
      vertex -11.4 11 -48.65
      vertex -11.4 -11 -48.65
      vertex -5.8563 -2.82024 -48.65
    endloop
  endfacet
  facet normal 0 1 0
    outer loop
      vertex 11.4 -11 -46.5
      vertex 11.4 -11 -48.65
      vertex -11.4 -11 -46.5
    endloop
  endfacet
  facet normal 0 1 0
    outer loop
      vertex -11.4 -11 -46.5
      vertex 11.4 -11 -48.65
      vertex -11.4 -11 -48.65
    endloop
  endfacet
  facet normal 0 0 1
    outer loop
      vertex -11.4 -11 -46.5
      vertex -11.4 -14.25 -46.5
      vertex -7.4 -14.25 -46.5
    endloop
  endfacet
  facet normal 0 0 1
    outer loop
      vertex 7.4 -12.85 -46.5
      vertex -11.4 -11 -46.5
      vertex -7.4 -12.85 -46.5
    endloop
  endfacet
  facet normal 0 0 1
    outer loop
      vertex -7.4 -12.85 -46.5
      vertex -11.4 -11 -46.5
      vertex -7.4 -14.25 -46.5
    endloop
  endfacet
  facet normal 0 0 1
    outer loop
      vertex 11.4 -11 -46.5
      vertex -11.4 -11 -46.5
      vertex 7.4 -12.85 -46.5
    endloop
  endfacet
  facet normal 0 0 1
    outer loop
      vertex 11.4 -14.25 -46.5
      vertex 7.4 -12.85 -46.5
      vertex 7.4 -14.25 -46.5
    endloop
  endfacet
  facet normal 0 0 1
    outer loop
      vertex 11.4 -11 -46.5
      vertex 7.4 -12.85 -46.5
      vertex 11.4 -14.25 -46.5
    endloop
  endfacet
  facet normal 1 0 0
    outer loop
      vertex -7.4 -12.85 -52.65
      vertex -7.4 -12.85 -46.5
      vertex -7.4 -14.25 -46.5
    endloop
  endfacet
  facet normal 1 0 0
    outer loop
      vertex -7.4 -14.25 -52.65
      vertex -7.4 -12.85 -52.65
      vertex -7.4 -14.25 -46.5
    endloop
  endfacet
  facet normal 0 -1 0
    outer loop
      vertex 7.4 -12.85 -52.65
      vertex 7.4 -12.85 -46.5
      vertex -7.4 -12.85 -46.5
    endloop
  endfacet
  facet normal 0 -1 0
    outer loop
      vertex -7.4 -12.85 -52.65
      vertex 7.4 -12.85 -52.65
      vertex -7.4 -12.85 -46.5
    endloop
  endfacet
  facet normal -1 0 0
    outer loop
      vertex 7.4 -12.85 -46.5
      vertex 7.4 -12.85 -52.65
      vertex 7.4 -14.25 -46.5
    endloop
  endfacet
  facet normal -1 0 0
    outer loop
      vertex 7.4 -14.25 -46.5
      vertex 7.4 -12.85 -52.65
      vertex 7.4 -14.25 -52.65
    endloop
  endfacet
  facet normal 0 -1 0
    outer loop
      vertex 7.4 -14.25 -46.5
      vertex 7.4 -14.25 -52.65
      vertex 11.4 -14.25 -52.65
    endloop
  endfacet
  facet normal 0 -1 0
    outer loop
      vertex 11.4 -14.25 -46.5
      vertex 7.4 -14.25 -46.5
      vertex 11.4 -14.25 -52.65
    endloop
  endfacet
  facet normal 1 0 0
    outer loop
      vertex 11.4 -14.25 -46.5
      vertex 11.4 -14.25 -52.65
      vertex 11.4 -6.5 -52.65
    endloop
  endfacet
  facet normal 1 0 0
    outer loop
      vertex 11.4 -11 -48.65
      vertex 11.4 -14.25 -46.5
      vertex 11.4 -6.5 -52.65
    endloop
  endfacet
  facet normal 1 0 0
    outer loop
      vertex 11.4 -6.5 -48.65
      vertex 11.4 -11 -48.65
      vertex 11.4 -6.5 -52.65
    endloop
  endfacet
  facet normal 1 0 0
    outer loop
      vertex 11.4 -11 -48.65
      vertex 11.4 -11 -46.5
      vertex 11.4 -14.25 -46.5
    endloop
  endfacet
  facet normal 0 1 0
    outer loop
      vertex 11.4 -6.5 -48.65
      vertex 11.4 -6.5 -52.65
      vertex 0 -6.5 -48.65
    endloop
  endfacet
  facet normal 0 1 0
    outer loop
      vertex 0 -6.5 -48.65
      vertex 11.4 -6.5 -52.65
      vertex 0 -6.5 -52.65
    endloop
  endfacet
  facet normal 1 0 0
    outer loop
      vertex 0 -6.44542 -52.65
      vertex 0 -6.44542 -48.65
      vertex 0 -6.5 -48.65
    endloop
  endfacet
  facet normal 1 0 0
    outer loop
      vertex 0 -6.5 -52.65
      vertex 0 -6.44542 -52.65
      vertex 0 -6.5 -48.65
    endloop
  endfacet
  facet normal 0.0747305 0.997204 0
    outer loop
      vertex 0 -6.44542 -48.65
      vertex 0 -6.44542 -52.65
      vertex -1.44639 -6.33703 -48.65
    endloop
  endfacet
  facet normal 0.0747305 0.997204 0
    outer loop
      vertex -1.44639 -6.33703 -48.65
      vertex 0 -6.44542 -52.65
      vertex -1.44639 -6.33703 -52.65
    endloop
  endfacet
  facet normal 0.365341 0.930874 0
    outer loop
      vertex -1.44639 -6.33703 -48.65
      vertex -1.44639 -6.33703 -52.65
      vertex -3.25 -5.62916 -48.65
    endloop
  endfacet
  facet normal 0.365341 0.930874 0
    outer loop
      vertex -3.25 -5.62916 -48.65
      vertex -1.44639 -6.33703 -52.65
      vertex -3.25 -5.62916 -52.65
    endloop
  endfacet
  facet normal 0.62349 0.781832 0
    outer loop
      vertex -3.25 -5.62916 -48.65
      vertex -3.25 -5.62916 -52.65
      vertex -4.76484 -4.42112 -48.65
    endloop
  endfacet
  facet normal 0.62349 0.781832 0
    outer loop
      vertex -4.76484 -4.42112 -48.65
      vertex -3.25 -5.62916 -52.65
      vertex -4.76484 -4.42112 -52.65
    endloop
  endfacet
  facet normal 0.826239 0.56332 0
    outer loop
      vertex -5.8563 -2.82024 -48.65
      vertex -4.76484 -4.42112 -48.65
      vertex -4.76484 -4.42112 -52.65
    endloop
  endfacet
  facet normal 0.826239 0.56332 0
    outer loop
      vertex -5.8563 -2.82024 -52.65
      vertex -5.8563 -2.82024 -48.65
      vertex -4.76484 -4.42112 -52.65
    endloop
  endfacet
  facet normal 0.955573 0.294755 0
    outer loop
      vertex -6.4274 -0.968775 -48.65
      vertex -5.8563 -2.82024 -48.65
      vertex -5.8563 -2.82024 -52.65
    endloop
  endfacet
  facet normal 0.955573 0.294755 0
    outer loop
      vertex -6.4274 -0.968775 -52.65
      vertex -6.4274 -0.968775 -48.65
      vertex -5.8563 -2.82024 -52.65
    endloop
  endfacet
  facet normal 1 0 0
    outer loop
      vertex -6.4274 0.968775 -52.65
      vertex -6.4274 0.968775 -48.65
      vertex -6.4274 -0.968775 -48.65
    endloop
  endfacet
  facet normal 1 0 0
    outer loop
      vertex -6.4274 -0.968775 -52.65
      vertex -6.4274 0.968775 -52.65
      vertex -6.4274 -0.968775 -48.65
    endloop
  endfacet
  facet normal 0.955573 -0.294755 0
    outer loop
      vertex -5.8563 2.82024 -52.65
      vertex -5.8563 2.82024 -48.65
      vertex -6.4274 0.968775 -48.65
    endloop
  endfacet
  facet normal 0.955573 -0.294755 0
    outer loop
      vertex -6.4274 0.968775 -52.65
      vertex -5.8563 2.82024 -52.65
      vertex -6.4274 0.968775 -48.65
    endloop
  endfacet
  facet normal 0.826239 -0.56332 0
    outer loop
      vertex -4.76484 4.42112 -52.65
      vertex -4.76484 4.42112 -48.65
      vertex -5.8563 2.82024 -48.65
    endloop
  endfacet
  facet normal 0.826239 -0.56332 0
    outer loop
      vertex -5.8563 2.82024 -52.65
      vertex -4.76484 4.42112 -52.65
      vertex -5.8563 2.82024 -48.65
    endloop
  endfacet
  facet normal 0.62349 -0.781832 0
    outer loop
      vertex -3.25 5.62916 -52.65
      vertex -3.25 5.62916 -48.65
      vertex -4.76484 4.42112 -48.65
    endloop
  endfacet
  facet normal 0.62349 -0.781832 0
    outer loop
      vertex -4.76484 4.42112 -52.65
      vertex -3.25 5.62916 -52.65
      vertex -4.76484 4.42112 -48.65
    endloop
  endfacet
  facet normal 0.365341 -0.930874 0
    outer loop
      vertex -1.44639 6.33703 -52.65
      vertex -1.44639 6.33703 -48.65
      vertex -3.25 5.62916 -48.65
    endloop
  endfacet
  facet normal 0.365341 -0.930874 0
    outer loop
      vertex -3.25 5.62916 -52.65
      vertex -1.44639 6.33703 -52.65
      vertex -3.25 5.62916 -48.65
    endloop
  endfacet
  facet normal 0.0747305 -0.997204 0
    outer loop
      vertex 0 6.44542 -52.65
      vertex 0 6.44542 -48.65
      vertex -1.44639 6.33703 -48.65
    endloop
  endfacet
  facet normal 0.0747305 -0.997204 0
    outer loop
      vertex -1.44639 6.33703 -52.65
      vertex 0 6.44542 -52.65
      vertex -1.44639 6.33703 -48.65
    endloop
  endfacet
  facet normal 1 0 0
    outer loop
      vertex 0 6.5 -52.65
      vertex 0 6.5 -48.65
      vertex 0 6.44542 -48.65
    endloop
  endfacet
  facet normal 1 0 0
    outer loop
      vertex 0 6.44542 -52.65
      vertex 0 6.5 -52.65
      vertex 0 6.44542 -48.65
    endloop
  endfacet
  facet normal 0 -1 0
    outer loop
      vertex 11.4 6.5 -52.65
      vertex 11.4 6.5 -48.65
      vertex 0 6.5 -48.65
    endloop
  endfacet
  facet normal 0 -1 0
    outer loop
      vertex 0 6.5 -52.65
      vertex 11.4 6.5 -52.65
      vertex 0 6.5 -48.65
    endloop
  endfacet
  facet normal 1 0 0
    outer loop
      vertex 11.4 6.5 -48.65
      vertex 11.4 6.5 -52.65
      vertex 11.4 14.25 -52.65
    endloop
  endfacet
  facet normal 1 0 0
    outer loop
      vertex 11.4 11 -48.65
      vertex 11.4 6.5 -48.65
      vertex 11.4 14.25 -52.65
    endloop
  endfacet
  facet normal 1 0 0
    outer loop
      vertex 11.4 14.25 -46.5
      vertex 11.4 11 -48.65
      vertex 11.4 14.25 -52.65
    endloop
  endfacet
  facet normal 1 0 0
    outer loop
      vertex 11.4 11 -46.5
      vertex 11.4 11 -48.65
      vertex 11.4 14.25 -46.5
    endloop
  endfacet
  facet normal 0 1 0
    outer loop
      vertex 7.4 14.25 -52.65
      vertex 7.4 14.25 -46.5
      vertex 11.4 14.25 -52.65
    endloop
  endfacet
  facet normal 0 1 0
    outer loop
      vertex 11.4 14.25 -52.65
      vertex 7.4 14.25 -46.5
      vertex 11.4 14.25 -46.5
    endloop
  endfacet
  facet normal -1 0 0
    outer loop
      vertex 7.4 14.25 -46.5
      vertex 7.4 14.25 -52.65
      vertex 7.4 12.85 -46.5
    endloop
  endfacet
  facet normal -1 0 0
    outer loop
      vertex 7.4 12.85 -46.5
      vertex 7.4 14.25 -52.65
      vertex 7.4 12.85 -52.65
    endloop
  endfacet
  facet normal 0 1 0
    outer loop
      vertex 7.4 12.85 -46.5
      vertex 7.4 12.85 -52.65
      vertex -7.4 12.85 -46.5
    endloop
  endfacet
  facet normal 0 1 0
    outer loop
      vertex -7.4 12.85 -46.5
      vertex 7.4 12.85 -52.65
      vertex -7.4 12.85 -52.65
    endloop
  endfacet
  facet normal 1 0 0
    outer loop
      vertex -7.4 14.25 -52.65
      vertex -7.4 14.25 -46.5
      vertex -7.4 12.85 -46.5
    endloop
  endfacet
  facet normal 1 0 0
    outer loop
      vertex -7.4 12.85 -52.65
      vertex -7.4 14.25 -52.65
      vertex -7.4 12.85 -46.5
    endloop
  endfacet
endsolid OpenSCAD_Model
